<svg width="14" height="8" viewBox="0 0 14 8" fill="none" xmlns="http://www.w3.org/2000/svg">
<g clip-path="url(#clip0)">
<path d="M7.02082 6.13874C5.43843 4.508 3.931 2.96264 2.42356 1.40875C2.07377 1.05016 1.72398 0.683027 1.36586 0.324436C0.999407 -0.0426929 0.533018 -0.0512308 0.216539 0.290285C-0.0832825 0.606187 -0.0749531 1.09285 0.26651 1.43436C2.30696 3.52614 4.34741 5.62646 6.38787 7.70971C6.7793 8.10245 7.19572 8.09391 7.59548 7.69263C9.63593 5.60085 11.6764 3.50907 13.7168 1.41729C14.0833 1.04162 14.0999 0.580573 13.7835 0.247595C13.467 -0.0939202 12.9839 -0.0768445 12.6092 0.30736C10.8435 2.11739 9.07793 3.92742 7.31232 5.74599C7.19572 5.84845 7.12076 5.98506 7.02082 6.13874Z" fill="black"/>
</g>
<defs>
<clipPath id="clip0">
<rect width="14" height="8" fill="white" transform="matrix(-1 0 0 1 14 0)"/>
</clipPath>
</defs>
</svg>
