<svg id="Layer_1" data-name="Layer 1" xmlns="http://www.w3.org/2000/svg" xmlns:xlink="http://www.w3.org/1999/xlink" viewBox="0 0 14 14"><defs><style>.cls-1{fill:none;}.cls-2{clip-path:url(#clip-path);}.cls-3{fill:#3899d5;}</style><clipPath id="clip-path"><rect class="cls-1" x="1.96" width="10.08" height="14"/></clipPath></defs><title>bell blue</title><g class="cls-2"><path class="cls-3" d="M5.56,2.24c0-.18-.08-.35-.1-.51A1.55,1.55,0,0,1,6.74,0,1.56,1.56,0,0,1,8.52,1.34,1.53,1.53,0,0,1,7.21,3.09c-.31,0-.61.05-.91.08A1.65,1.65,0,0,0,4.72,4.75c-.08.89-.07,1.79-.2,2.68A7.39,7.39,0,0,1,4,9.2c-.13.3-.46.5-.67.76s-.28.32-.28.48.23.27.42.28c1.28.06,2.57.16,3.84.16,1.1,0,2.21-.1,3.31-.18.13,0,.33-.14.34-.24a.52.52,0,0,0-.19-.42A3.22,3.22,0,0,1,9.33,7.51c-.12-.78-.11-1.57-.2-2.36,0-.42-.2-.84-.26-1.26A1.2,1.2,0,0,1,9,3.24c0-.09.3-.16.43-.13a.6.6,0,0,1,.38.33,6.53,6.53,0,0,1,.37,1.36c.1.83.11,1.66.2,2.49a4.93,4.93,0,0,0,.27,1,1.79,1.79,0,0,0,.73.88,1.4,1.4,0,0,1-.2,2.5,2.15,2.15,0,0,1-.83.16q-3.29,0-6.59,0a2.85,2.85,0,0,1-.65-.11,1.33,1.33,0,0,1-1.07-1,1.2,1.2,0,0,1,.43-1.37,3,3,0,0,0,1.12-2.5c.07-.67.07-1.35.13-2A2.72,2.72,0,0,1,5.45,2.29S5.51,2.27,5.56,2.24ZM7,1a.49.49,0,0,0-.49.51A.51.51,0,0,0,7,2.07a.55.55,0,0,0,.53-.5A.57.57,0,0,0,7,1Z"/><path class="cls-3" d="M7,14a2,2,0,0,1-1.62-.75c-.16-.2-.35-.4-.12-.67a.76.76,0,0,1,.8-.06,1.74,1.74,0,0,1,.22.18,1,1,0,0,0,1.4,0,1.3,1.3,0,0,1,.61-.25.52.52,0,0,1,.42.2.58.58,0,0,1-.07.49A2,2,0,0,1,7,14Z"/></g></svg>