<svg width="13" height="14" viewBox="0 0 13 14" fill="none" xmlns="http://www.w3.org/2000/svg">
<g clip-path="url(#clip0)">
<path d="M0 12.7038C0 9.2205 0 5.73479 0 2.25146C0.00710383 2.21812 0.0165756 2.18479 0.0213115 2.14908C0.113661 1.46098 0.696175 0.941934 1.38761 0.939553C1.80674 0.937172 2.2235 0.939553 2.64262 0.939553C2.68761 0.939553 2.73497 0.939553 2.7918 0.939553C2.7918 0.841934 2.78944 0.760982 2.7918 0.677648C2.79654 0.563363 2.7847 0.444315 2.81075 0.334791C2.86521 0.113363 3.08069 -0.0175893 3.31038 0.0109821C3.53297 0.0371726 3.7082 0.225268 3.7153 0.453839C3.72004 0.613363 3.7153 0.775267 3.7153 0.934791C5.57887 0.934791 7.4235 0.934791 9.27996 0.934791C9.27996 0.775267 9.26576 0.618125 9.2847 0.468125C9.29891 0.363363 9.33916 0.251458 9.40073 0.165744C9.51202 0.0133631 9.72277 -0.031875 9.89326 0.0300297C10.0827 0.101458 10.2011 0.263363 10.2058 0.463363C10.2082 0.620506 10.2058 0.777648 10.2058 0.939553C10.6865 0.939553 11.1483 0.934791 11.61 0.941934C12.1381 0.951458 12.5477 1.18717 12.8011 1.65146C12.9053 1.83955 12.9361 2.06812 13 2.27765C13 5.74669 13 9.21336 13 12.6824C12.9929 12.7157 12.9834 12.7515 12.9787 12.7848C12.9242 13.1729 12.7395 13.4848 12.4317 13.7229C12.1452 13.9443 11.816 14.0038 11.4632 14.0038C8.1623 14.0014 4.86138 14.0014 1.56047 14.0014C1.48944 14.0014 1.4184 14.0038 1.34736 13.9991C0.795628 13.9657 0.39071 13.6991 0.14918 13.2038C0.0734062 13.0491 0.0473588 12.8705 0 12.7038ZM12.0623 5.14193C8.34463 5.14193 4.64827 5.14193 0.937705 5.14193C0.937705 5.2086 0.937705 5.26574 0.937705 5.32526C0.937705 7.57526 0.937705 9.82526 0.937705 12.0753C0.937705 12.6753 1.32605 13.0657 1.92277 13.0657C4.97268 13.0657 8.02495 13.0657 11.0749 13.0657C11.674 13.0657 12.0599 12.6776 12.0599 12.0753C12.0599 9.80859 12.0599 7.54431 12.0599 5.27765C12.0623 5.23479 12.0623 5.19193 12.0623 5.14193ZM3.71767 1.87765C3.71767 2.03955 3.72004 2.18955 3.71767 2.33955C3.71293 2.60384 3.51876 2.80146 3.26302 2.80146C2.99781 2.80146 2.79654 2.60622 2.79417 2.33955C2.7918 2.2205 2.78944 2.10146 2.79654 1.98241C2.80128 1.89431 2.77286 1.86574 2.68288 1.86812C2.41056 1.87289 2.13825 1.86812 1.86594 1.8705C1.35683 1.87527 0.95428 2.26574 0.942441 2.77765C0.932969 3.22527 0.940073 3.67527 0.940073 4.12288C0.940073 4.14669 0.944809 4.16812 0.949545 4.19669C4.65301 4.19669 8.35173 4.19669 12.0528 4.19669C12.0576 4.18479 12.067 4.17288 12.067 4.16336C12.0647 3.66336 12.0789 3.16336 12.0528 2.66574C12.0291 2.28955 11.7024 1.95384 11.3282 1.89908C11.1033 1.86574 10.8736 1.87765 10.6439 1.87289C10.5042 1.8705 10.3621 1.87289 10.2082 1.87289C10.2082 1.95146 10.2106 2.01336 10.2082 2.07527C10.2035 2.2086 10.2177 2.34908 10.1845 2.47527C10.1253 2.70622 9.90747 2.83241 9.67304 2.79908C9.45045 2.76812 9.2847 2.57289 9.28233 2.33241C9.27996 2.18241 9.28233 2.03241 9.28233 1.87765C7.42587 1.87765 5.58124 1.87765 3.71767 1.87765Z" fill="#009EED"/>
<path d="M7.41622 8.39285C6.80529 8.39285 6.19672 8.39285 5.58105 8.39285C5.58105 7.7738 5.58105 7.15952 5.58105 6.53333C5.73497 6.53333 5.87942 6.53333 6.02386 6.53333C6.45483 6.53333 6.88343 6.53333 7.31439 6.53333C7.37596 6.53333 7.43042 6.52619 7.43042 6.61904C7.42806 7.19523 7.42806 7.76904 7.42806 8.34523C7.42806 8.35713 7.42332 8.36904 7.41622 8.39285Z" fill="#009EED"/>
<path d="M10.6633 8.39285C10.0524 8.39285 9.44616 8.39285 8.82812 8.39285C8.82812 7.77618 8.82812 7.15952 8.82812 6.53333C8.89916 6.53333 8.96547 6.53333 9.03177 6.53333C9.54088 6.53333 10.05 6.53333 10.5591 6.53333C10.6278 6.53333 10.6799 6.53333 10.6775 6.63094C10.6728 7.19523 10.6751 7.75714 10.6751 8.32142C10.6751 8.34285 10.668 8.36666 10.6633 8.39285Z" fill="#009EED"/>
<path d="M5.58105 9.80237C6.20383 9.80237 6.80765 9.80237 7.42095 9.80237C7.42095 10.4214 7.42095 11.0357 7.42095 11.6595C6.80765 11.6595 6.19672 11.6595 5.58105 11.6595C5.58105 11.0381 5.58105 10.4214 5.58105 9.80237Z" fill="#009EED"/>
<path d="M10.6655 11.6595C10.0498 11.6595 9.43891 11.6595 8.82324 11.6595C8.82324 11.0405 8.82324 10.4262 8.82324 9.80713C9.43654 9.80713 10.0475 9.80713 10.6655 9.80713C10.6655 10.4214 10.6655 11.0357 10.6655 11.6595Z" fill="#009EED"/>
<path d="M2.33203 8.38809C2.33203 7.77142 2.33203 7.16189 2.33203 6.54285C2.94533 6.54285 3.55389 6.54285 4.17429 6.54285C4.17429 7.15475 4.17429 7.76666 4.17429 8.38809C3.56336 8.38809 2.9548 8.38809 2.33203 8.38809Z" fill="#009EED"/>
<path d="M2.33203 9.80237C2.95243 9.80237 3.55863 9.80237 4.17429 9.80237C4.17429 10.419 4.17429 11.0309 4.17429 11.6547C3.56336 11.6547 2.95006 11.6547 2.33203 11.6547C2.33203 11.0381 2.33203 10.4262 2.33203 9.80237Z" fill="#009EED"/>
</g>
<defs>
<clipPath id="clip0">
<rect width="13" height="14" fill="white"/>
</clipPath>
</defs>
</svg>
