<svg id="Layer_1" data-name="Layer 1" xmlns="http://www.w3.org/2000/svg" xmlns:xlink="http://www.w3.org/1999/xlink" viewBox="0 0 14 14"><defs><style>.cls-1{fill:none;}.cls-2{clip-path:url(#clip-path);}.cls-3{fill:#010101;}</style><clipPath id="clip-path"><rect class="cls-1" x="0.21" y="0.32" width="13.57" height="13.35"/></clipPath></defs><title>Chat Black</title><g class="cls-2"><path class="cls-3" d="M6.57,11.51a8.49,8.49,0,0,1-3-.8,5.56,5.56,0,0,1-2.3-1.82,4.77,4.77,0,0,1,.4-6.36A6.65,6.65,0,0,1,5.72.44,7.56,7.56,0,0,1,11.5,1.73a5.46,5.46,0,0,1,2.23,3.62,4.55,4.55,0,0,1-.87,3.33,6,6,0,0,1-2.06,1.86.65.65,0,0,0-.29.25,5.67,5.67,0,0,1-4,2.76c-.33.07-.67.09-1,.13S5,13.6,5,13.37a.74.74,0,0,1,.21-.54c.39-.39.82-.75,1.24-1.12Zm.35,1A4.32,4.32,0,0,0,9.39,11a1.74,1.74,0,0,0,.27-.45,1.3,1.3,0,0,1,.71-.73c2.51-1.31,3.7-4.69,1-7a7,7,0,0,0-8.49-.22A4,4,0,0,0,1.24,6.89,4.4,4.4,0,0,0,3.53,9.73a7.27,7.27,0,0,0,3.62.94c.64,0,.8.31.47.87a4.8,4.8,0,0,1-.39.53C7.14,12.21,7,12.34,6.92,12.48Z"/><path class="cls-3" d="M6.92,6.92H9.73a1.14,1.14,0,0,1,.49,0,.54.54,0,0,1,.3.35.5.5,0,0,1-.24.39,1.12,1.12,0,0,1-.55.09c-1.81,0-3.62,0-5.43,0a2.31,2.31,0,0,1-.52-.06.38.38,0,0,1-.31-.44.39.39,0,0,1,.4-.37H6.92Z"/><path class="cls-3" d="M6.94,5.23H4.34a5.63,5.63,0,0,1-.59-.05c-.22,0-.37-.17-.34-.36a.53.53,0,0,1,.29-.33,1.78,1.78,0,0,1,.65-.11H9.27a5,5,0,0,1,1,.11.4.4,0,0,1,.26.29.39.39,0,0,1-.22.34,2.73,2.73,0,0,1-.81.11c-.85,0-1.71,0-2.57,0Z"/></g></svg>