<svg id="Layer_1" data-name="Layer 1" xmlns="http://www.w3.org/2000/svg" xmlns:xlink="http://www.w3.org/1999/xlink" viewBox="0 0 14 14"><defs><style>.cls-1{fill:none;}.cls-2{clip-path:url(#clip-path);}.cls-3{fill:#3899d5;}</style><clipPath id="clip-path"><rect class="cls-1" x="0.44" y="0.52" width="13.13" height="12.92"/></clipPath></defs><title>Chat Blue</title><g class="cls-2"><path class="cls-3" d="M6.59,11.34a8.19,8.19,0,0,1-2.94-.77A5.42,5.42,0,0,1,1.43,8.81a4.61,4.61,0,0,1,.39-6.15,6.43,6.43,0,0,1,3.94-2,7.33,7.33,0,0,1,5.6,1.25,5.3,5.3,0,0,1,2.15,3.5,4.34,4.34,0,0,1-.84,3.22,5.77,5.77,0,0,1-2,1.8.66.66,0,0,0-.28.24,5.47,5.47,0,0,1-3.88,2.67,8.19,8.19,0,0,1-1,.12c-.24,0-.46-.07-.49-.3a.68.68,0,0,1,.2-.51c.38-.38.79-.73,1.2-1.09Zm.33.94a4.15,4.15,0,0,0,2.39-1.46,1.65,1.65,0,0,0,.26-.44,1.28,1.28,0,0,1,.69-.7c2.43-1.27,3.58-4.54,1-6.81A6.71,6.71,0,0,0,3,2.66,3.89,3.89,0,0,0,1.43,6.87,4.26,4.26,0,0,0,3.64,9.62a6.92,6.92,0,0,0,3.5.9c.62,0,.78.3.46.85-.11.18-.25.34-.37.51Z"/><path class="cls-3" d="M6.93,6.9H9.64a1,1,0,0,1,.47,0c.13.06.29.21.29.33a.51.51,0,0,1-.23.39,1.14,1.14,0,0,1-.52.09H4.39a2.22,2.22,0,0,1-.51-.06.35.35,0,0,1-.29-.42A.37.37,0,0,1,4,6.92h3Z"/><path class="cls-3" d="M7,5.27H4.43c-.2,0-.39,0-.57,0s-.36-.16-.33-.36a.48.48,0,0,1,.28-.31,1.67,1.67,0,0,1,.63-.11H9.19a4.6,4.6,0,0,1,1,.11.37.37,0,0,1,.25.28.38.38,0,0,1-.21.33,3.34,3.34,0,0,1-.78.11c-.83,0-1.65,0-2.48,0Z"/></g></svg>