<svg width="12" height="14" viewBox="0 0 12 14" fill="none" xmlns="http://www.w3.org/2000/svg">
<g clip-path="url(#clip0)">
<path d="M2.44354 7.59554C2.44354 8.25136 2.43434 8.90717 2.44661 9.56298C2.45889 10.2344 2.62771 10.8652 2.98989 11.4336C3.45951 12.1706 4.11329 12.6547 4.95123 12.8733C6.02551 13.1543 7.02919 12.9919 7.9408 12.3455C8.52398 11.9333 8.91686 11.368 9.14399 10.681C9.29132 10.2375 9.3435 9.78158 9.3435 9.31627C9.34043 8.30132 9.34043 7.28638 9.34657 6.27143C9.34657 6.11841 9.3036 6.08718 9.15934 6.10592C8.49635 6.1996 7.83337 6.28705 7.17038 6.37136C6.36621 6.47442 5.55896 6.52751 4.75172 6.45881C4.22071 6.41509 3.70506 6.27143 3.24772 5.97163C2.89167 5.74054 2.85177 5.33144 3.15871 5.0941C3.30297 4.98479 3.57001 4.97855 3.72041 5.10034C4.0212 5.35017 4.38032 5.422 4.74558 5.4626C5.605 5.56253 6.46136 5.45011 7.31464 5.3533C7.78733 5.30021 8.25694 5.23775 8.72656 5.17217C9.04884 5.12845 9.37113 5.07224 9.69648 5.02227C10.0802 4.96293 10.3073 5.15968 10.3104 5.55941C10.3104 5.81549 10.3165 6.06844 10.3073 6.32452C10.3042 6.45881 10.3441 6.51814 10.4884 6.53063C11.001 6.56811 11.578 7.10213 11.7438 7.68923C11.9402 8.38252 11.3877 9.15388 10.8229 9.38185C10.7155 9.42557 10.5989 9.45992 10.4853 9.47553C10.3625 9.49115 10.3134 9.53799 10.3073 9.67228C10.2766 10.2375 10.16 10.7809 9.92054 11.2931C9.3742 12.461 8.51477 13.2886 7.31464 13.7352C6.78978 13.9288 6.24957 14.0381 5.69401 13.9944C4.40181 13.8976 3.3398 13.3292 2.50493 12.3236C2.07829 11.8083 1.78056 11.2181 1.61174 10.5686C1.53808 10.2844 1.50739 9.98457 1.4859 9.69102C1.47362 9.53799 1.42451 9.49115 1.28332 9.46929C0.586572 9.36623 -0.0150253 8.66358 0.00032155 7.97342C0.0064603 7.66425 0.120027 7.38631 0.310329 7.14585C0.380924 7.05528 0.393202 6.98345 0.344092 6.87103C0.0340847 6.10592 -0.0672047 5.30958 0.0432928 4.48825C0.209039 3.24846 0.749249 2.21165 1.67006 1.3872C2.29008 0.831326 3.01752 0.478437 3.81556 0.269202C4.6228 0.0568444 5.44539 -0.03372 6.27413 0.0131237C7.36069 0.0724589 8.41041 0.278571 9.36499 0.84694C10.2858 1.39345 10.9549 2.16481 11.3785 3.16102C11.667 3.84493 11.8051 4.55695 11.7837 5.30021C11.7775 5.52506 11.7837 5.74678 11.7806 5.97163C11.7775 6.28705 11.5719 6.49004 11.2711 6.48379C10.9856 6.47754 10.8076 6.27768 10.8076 5.96226C10.8076 5.6812 10.8107 5.40014 10.8076 5.11908C10.783 3.47018 10.074 2.25537 8.60378 1.53086C8.19862 1.33099 7.76584 1.21232 7.32078 1.128C6.62097 0.999963 5.91808 0.965611 5.21519 1.02495C4.33735 1.0999 3.48713 1.28727 2.729 1.77444C1.89413 2.31158 1.34778 3.06108 1.09916 4.04168C0.936481 4.67563 0.94262 5.30645 1.05005 5.94353C1.07767 6.09967 1.13599 6.25269 1.18203 6.40572C1.20966 6.4994 1.27718 6.55562 1.36619 6.51502C1.4153 6.49316 1.46441 6.41196 1.46441 6.35887C1.47362 6.07781 1.46441 5.79675 1.47055 5.51569C1.47362 5.30021 1.59947 5.11283 1.77135 5.04725C1.96779 4.97542 2.19799 5.01602 2.31463 5.18154C2.37909 5.2721 2.4282 5.39702 2.4282 5.50632C2.44661 6.1996 2.44048 6.89601 2.44354 7.59554ZM10.3104 7.98591C10.3104 8.12019 10.3104 8.25448 10.3104 8.38876C10.3104 8.46996 10.338 8.51368 10.4331 8.49494C10.6787 8.4481 10.8045 8.29508 10.8107 8.02651C10.8168 7.72046 10.7155 7.57681 10.4608 7.5081C10.3441 7.47687 10.3104 7.52059 10.3104 7.62677C10.3104 7.74857 10.3104 7.86724 10.3104 7.98591ZM1.47362 7.9984C1.47362 7.86724 1.47669 7.7392 1.47362 7.60804C1.47055 7.52372 1.43986 7.48937 1.34778 7.50498C1.08688 7.55495 0.973314 7.70172 0.976383 8.00777C0.976383 8.28571 1.1053 8.4481 1.35392 8.49494C1.44907 8.51368 1.47669 8.46684 1.47669 8.38564C1.47362 8.26072 1.47362 8.12956 1.47362 7.9984Z" fill="#009EED"/>
<path d="M5.96716 11.5048C5.26734 11.4517 4.66574 11.3455 4.15929 10.9302C3.84621 10.671 3.86463 10.2494 4.19612 10.0589C4.35266 9.96834 4.59207 9.99332 4.7394 10.1214C5.14149 10.4743 5.62032 10.5336 6.12063 10.4867C6.46747 10.4524 6.79589 10.3618 7.06907 10.1057C7.2563 9.93087 7.56938 9.98396 7.73205 10.1745C7.89473 10.3681 7.87632 10.6772 7.68908 10.8677C7.43432 11.1238 7.11818 11.2706 6.78054 11.3612C6.49202 11.4361 6.19122 11.4642 5.96716 11.5048Z" fill="#009EED"/>
<path d="M4.40495 8.01025C4.40495 8.28506 4.1993 8.49117 3.92919 8.48805C3.64681 8.48492 3.45037 8.28194 3.4473 7.99776C3.44423 7.75418 3.65602 7.50435 3.91998 7.51684C4.21771 7.52621 4.40495 7.70421 4.40495 8.01025Z" fill="#009EED"/>
<path d="M7.3809 8.00715C7.37783 7.71047 7.56199 7.52934 7.85051 7.51373C8.13289 7.49811 8.3324 7.74795 8.33547 7.98216C8.33854 8.26947 8.13903 8.47871 7.85051 8.48183C7.57427 8.48183 7.38397 8.28821 7.3809 8.00715Z" fill="#009EED"/>
</g>
<defs>
<clipPath id="clip0">
<rect width="11.7895" height="14" fill="white"/>
</clipPath>
</defs>
</svg>
