<svg width="17" height="17" viewBox="0 0 17 17" fill="none" xmlns="http://www.w3.org/2000/svg">
<g opacity="0.5">
<g clip-path="url(#clip0)">
<path d="M17 8.52361C17 13.2022 13.1747 16.9998 8.48221 16.9998C3.78969 16.9879 -0.011852 13.1665 2.77676e-05 8.48789C0.0119076 3.78551 3.8372 -0.0121115 8.51785 -0.000206691C13.2104 0.0116981 17 3.82122 17 8.52361ZM8.48221 15.4403C12.3194 15.4522 15.42 12.3569 15.4438 8.4998C15.4675 4.72599 12.3431 1.57122 8.55349 1.54741C4.70443 1.5236 1.5444 4.67837 1.55628 8.53551C1.56816 12.3331 4.68067 15.4284 8.48221 15.4403Z" fill="black"/>
<path d="M9.57493 8.50001C10.3352 9.25001 11.0599 9.95239 11.7608 10.6667C12.1291 11.0476 12.1291 11.5357 11.7846 11.8214C11.4044 12.131 11.0243 12.0952 10.6679 11.7619C10.5728 11.6667 10.4659 11.5714 10.3709 11.4643C9.77689 10.8572 9.1829 10.25 8.52951 9.57144C7.91176 10.1905 7.32965 10.7738 6.74754 11.3452C6.61686 11.4762 6.49806 11.5952 6.36738 11.7143C5.98723 12.0714 5.51204 12.0952 5.20316 11.7976C4.85865 11.4643 4.88241 11.0119 5.28632 10.5952C5.96347 9.90477 6.66438 9.2381 7.49597 8.42858C6.86634 7.85715 6.28423 7.32143 5.714 6.79762C5.5358 6.63096 5.36948 6.46429 5.21504 6.28572C4.89429 5.91667 4.85865 5.52381 5.21504 5.17858C5.57144 4.82143 5.97535 4.85715 6.31987 5.20238C6.9495 5.80953 7.55537 6.42858 8.17312 7.04762C8.26815 7.14286 8.37507 7.2381 8.57703 7.42858C9.26606 6.70239 9.91945 5.96429 10.6322 5.29762C10.8461 5.09524 11.2856 4.9881 11.5589 5.05953C12.1172 5.21429 12.2004 5.88096 11.7371 6.35715C11.048 7.07143 10.3352 7.75001 9.57493 8.50001Z" fill="black"/>
</g>
</g>
<defs>
<clipPath id="clip0">
<rect width="17" height="17" fill="white"/>
</clipPath>
</defs>
</svg>
