<svg width="20" height="16" viewBox="0 0 20 16" fill="none" xmlns="http://www.w3.org/2000/svg">
<path d="M9.26656 0C9.59381 0 9.92107 0 10.2483 0C10.3874 0.0364483 10.5265 0.0728967 10.6656 0.102055C12.8664 0.605042 14.2817 2.77007 13.8072 4.8695C13.5945 5.80257 13.12 6.59715 12.3182 7.25322C12.4082 7.30424 12.4737 7.34069 12.5473 7.36985C14.3472 8.19358 15.5171 9.49114 16.2044 11.1678C16.6789 12.3341 16.638 13.5515 16.6462 14.7616C16.6462 15.1406 16.5071 15.4176 16.1307 15.5926C11.8764 15.5926 7.6221 15.5926 3.36778 15.5926C2.99962 15.4103 2.84418 15.1406 2.86054 14.7543C2.88508 14.2367 2.84418 13.7119 2.8769 13.187C2.9669 11.5979 3.55596 10.1837 4.70135 8.959C5.3804 8.23003 6.2149 7.67602 7.19667 7.2605C6.174 6.40032 5.65039 5.37248 5.62585 4.14053C5.60948 2.41288 6.64852 0.889339 8.30934 0.277007C8.62023 0.160373 8.94749 0.0947656 9.26656 0ZM15.2799 14.2367C15.3453 13.2963 15.2635 12.407 14.8953 11.5541C14.1099 9.75357 12.7355 8.50704 10.5429 8.20087C8.4566 7.902 6.77942 8.63825 5.51131 10.1108C4.47227 11.3208 4.14502 12.7205 4.25137 14.2367C7.93299 14.2367 11.5819 14.2367 15.2799 14.2367ZM9.78199 6.80126C9.9538 6.77939 10.1338 6.77939 10.3056 6.73565C11.4264 6.4878 12.1055 5.81715 12.4082 4.84763C12.7273 3.82707 12.4818 2.894 11.6719 2.114C10.5019 1.00597 8.61205 1.10803 7.64665 2.36185C7.33575 2.76278 7.12304 3.27306 7.03304 3.76147C6.73033 5.30688 8.11299 6.78668 9.78199 6.80126Z" fill="#009EED"/>
<path d="M0.103516 11.2989C0.209874 10.8761 0.283506 10.446 0.430771 10.0305C0.848022 8.82774 1.63343 7.86551 2.81155 7.16571C2.88519 7.12197 2.95882 7.07094 3.04063 7.02721C2.00978 5.67862 1.84615 4.28631 2.76247 2.87941C3.40061 1.9026 4.38238 1.37045 5.70776 1.37045C5.45414 1.85886 5.21688 2.32539 4.96326 2.78464C4.93053 2.85025 4.80781 2.87212 4.726 2.91585C3.16335 3.69585 3.12245 5.75152 4.66873 6.56067C5.00416 6.73562 5.24143 6.93244 5.20052 7.29692C5.15961 7.69056 4.84872 7.82178 4.47237 7.93112C2.53339 8.47784 1.19982 10.4023 1.51071 12.1956C1.69889 12.2101 1.90342 12.2247 2.11614 12.2393C2.06705 12.6767 2.02614 13.0995 1.98523 13.515C0.864384 13.7118 0.430771 13.6025 0.103516 13.0484C0.103516 12.4653 0.103516 11.8821 0.103516 11.2989Z" fill="#009EED"/>
<path d="M19.4119 13.0484C19.2401 13.4421 18.921 13.6025 18.4546 13.566C18.1601 13.5441 17.8574 13.5587 17.5301 13.5587C17.4811 13.1213 17.432 12.7058 17.3829 12.2466C17.5792 12.232 17.7674 12.2247 18.0047 12.2101C18.1028 11.5249 17.9883 10.8616 17.702 10.2274C17.1783 9.06832 16.2784 8.25917 14.9203 7.89469C14.5603 7.79992 14.3476 7.62497 14.3067 7.29694C14.2658 6.9689 14.4458 6.75021 14.7648 6.59713C15.5993 6.18891 15.9839 5.53285 15.9675 4.70912C15.9511 3.91455 15.5503 3.28764 14.7485 2.90129C14.6585 2.85756 14.5521 2.79924 14.5112 2.72634C14.274 2.29626 14.0531 1.85888 13.8076 1.38505C15.0266 1.36318 15.943 1.8443 16.6302 2.69719C17.4074 3.65942 17.8083 5.36519 16.4747 7.0418C17.5792 7.63226 18.4056 8.46328 18.8719 9.52756C19.1173 10.0962 19.2401 10.7085 19.42 11.3062C19.4119 11.8821 19.4119 12.4653 19.4119 13.0484Z" fill="#009EED"/>
</svg>
