<svg width="14" height="12" viewBox="0 0 14 12" fill="none" xmlns="http://www.w3.org/2000/svg">
<path d="M7.02701 12C6.11618 12 5.20536 12 4.29696 12C4.00307 12 3.84519 11.8463 3.84519 11.5513C3.84276 11.0148 3.81847 10.4783 3.85005 9.94185C3.93263 8.57628 4.53499 7.51796 5.77128 6.88638C6.92743 6.29626 8.39446 6.62058 9.29314 7.64232C9.93922 8.37632 10.2258 9.242 10.2137 10.215C10.2088 10.6588 10.2113 11.1002 10.2113 11.544C10.2113 11.8439 10.0582 12 9.75463 12C8.84623 11.9975 7.93541 11.9975 7.02701 12C7.02701 11.9975 7.02701 11.9975 7.02701 12ZM4.637 11.1855C6.24248 11.1855 7.82611 11.1855 9.40973 11.1855C9.40973 10.7612 9.4243 10.3466 9.4073 9.9321C9.37572 9.19567 9.09398 8.56409 8.57177 8.04224C7.92569 7.39603 6.942 7.21314 6.12833 7.60087C5.43124 7.93251 5.00619 8.49825 4.77059 9.22005C4.56171 9.86382 4.66858 10.5247 4.637 11.1855Z" fill="#009EED"/>
<path d="M4.43949 3.39449C4.4322 1.97527 5.59563 0.812091 7.03109 0.802337C8.4447 0.792583 9.61056 1.96308 9.62027 3.39937C9.62999 4.79421 8.45927 5.99153 7.07967 5.99884C5.60778 6.0086 4.44677 4.86249 4.43949 3.39449ZM7.03595 1.60461C6.04254 1.60705 5.23859 2.40201 5.23373 3.39205C5.22887 4.39185 6.03526 5.19657 7.04324 5.19657C8.01722 5.19657 8.81875 4.38454 8.81875 3.39693C8.81875 2.4142 8.01236 1.60217 7.03595 1.60461Z" fill="#009EED"/>
<path d="M13.2014 9.99796C13.1844 9.28347 13.284 8.56898 12.9537 7.9057C12.6112 7.21804 12.0963 6.7474 11.3239 6.62548C10.7968 6.54257 10.3135 6.67668 9.88114 6.99125C9.7767 7.06685 9.67226 7.13269 9.53624 7.11562C9.37108 7.09611 9.23021 6.9815 9.19377 6.82787C9.15248 6.64986 9.20106 6.49867 9.35165 6.3865C9.69898 6.12314 10.0827 5.94025 10.5102 5.8549C11.6275 5.63543 12.7642 6.12558 13.4127 7.10099C13.8038 7.68867 13.9981 8.33488 13.9981 9.03962C13.9981 9.47124 13.9981 9.90042 14.0005 10.332C14.0005 10.6442 13.8426 10.8027 13.5293 10.8027C12.7108 10.8027 11.8947 10.8027 11.0761 10.8027C10.8235 10.8027 10.6535 10.6759 10.6219 10.471C10.5807 10.2052 10.7652 10.0004 11.0446 10.0004C11.6955 10.0004 12.3464 10.0004 12.9998 10.0004C13.0605 9.99796 13.1188 9.99796 13.2014 9.99796Z" fill="#009EED"/>
<path d="M13.4005 2.45804C13.3932 4.19915 11.9869 5.40866 10.4106 5.16968C10.3037 5.15261 10.1968 5.12579 10.0924 5.09653C9.85678 5.03068 9.73534 4.83073 9.7912 4.60394C9.84464 4.38691 10.056 4.26255 10.294 4.32351C10.5636 4.39423 10.8356 4.42105 11.1101 4.3674C11.7804 4.2406 12.2516 3.85775 12.4848 3.21642C12.7228 2.57021 12.6111 1.96545 12.1715 1.43629C11.523 0.655964 10.3523 0.585247 9.60418 1.27047C9.39044 1.46556 9.1937 1.49482 9.01882 1.3607C8.82209 1.20707 8.80751 0.936395 8.98725 0.751067C9.76449 -0.0512091 11.0882 -0.238976 12.0573 0.326763C12.9293 0.831538 13.3689 1.59967 13.4005 2.45804Z" fill="#009EED"/>
<path d="M0.799098 9.99796C0.8161 9.28347 0.716516 8.56898 1.04684 7.9057C1.38931 7.21804 1.90423 6.7474 2.67661 6.62548C3.20368 6.54257 3.68702 6.67668 4.11936 6.99125C4.2238 7.06685 4.32824 7.13269 4.46426 7.11562C4.62942 7.09611 4.7703 6.9815 4.80673 6.82787C4.84802 6.64986 4.79944 6.49867 4.64885 6.3865C4.30153 6.12314 3.91777 5.94025 3.49028 5.8549C2.373 5.63543 1.23629 6.12558 0.587786 7.10099C0.196738 7.68867 0.00242887 8.33245 0.00242887 9.03962C0.00242887 9.47124 0.00242887 9.90042 0 10.332C0 10.6442 0.157876 10.8027 0.471201 10.8027C1.28973 10.8027 2.10583 10.8027 2.92436 10.8027C3.17696 10.8027 3.34698 10.6759 3.37856 10.471C3.41985 10.2052 3.23525 10.0004 2.95593 10.0004C2.305 10.0004 1.65406 10.0004 1.00069 10.0004C0.939972 9.99796 0.879251 9.99796 0.799098 9.99796Z" fill="#009EED"/>
<path d="M0.597656 2.45804C0.604943 4.19915 2.01126 5.40866 3.58759 5.16968C3.69446 5.15261 3.80133 5.12579 3.90578 5.09653C4.14138 5.03068 4.26282 4.83073 4.20695 4.60394C4.15352 4.38691 3.94221 4.26255 3.70418 4.32351C3.43458 4.39423 3.16254 4.42105 2.88808 4.3674C2.21771 4.2406 1.74651 3.85775 1.51334 3.21642C1.27531 2.57021 1.38704 1.96545 1.82666 1.43629C2.47517 0.655964 3.64589 0.585247 4.39398 1.27047C4.60772 1.46556 4.80446 1.49482 4.97934 1.3607C5.17607 1.20707 5.19065 0.936395 5.01091 0.751067C4.23367 -0.0512091 2.90994 -0.238976 1.94082 0.326763C1.07129 0.831538 0.63166 1.59967 0.597656 2.45804Z" fill="#009EED"/>
</svg>
