<svg width="46" height="40" viewBox="0 0 46 40" fill="none" xmlns="http://www.w3.org/2000/svg">
<g clip-path="url(#clip0)">
<path d="M28.0814 26.778C27.0562 26.2883 26.031 26.4887 24.9167 27.4013C24.1366 28.0246 23.6463 28.8704 23.312 29.5159C22.4874 31.1409 22.2646 31.2299 20.5262 30.6734C19.8576 30.4508 19.2335 30.1614 18.6764 29.8276C15.8459 28.0913 13.3275 25.8431 11.1434 23.1275C10.4302 22.2371 9.93994 21.2355 9.69478 20.167C9.53878 19.4547 9.58335 19.0986 10.3411 18.7424C11.656 18.1192 13.3944 17.0284 13.4167 14.669C13.4167 14.2906 13.439 13.7786 13.1492 13.3334C11.6337 11.1075 9.93994 8.5699 7.28781 7.03401C5.7723 6.1659 4.90312 6.23268 3.54362 7.41242C1.44866 9.19317 0.624048 11.6417 0.111451 13.8231C-0.0668437 14.5354 -0.02227 15.1587 0.267459 15.8264C5.438 28.1581 14.6202 36.2605 27.5465 39.911C27.7025 39.9556 27.9031 40.0001 28.1037 40.0001C28.2151 40.0001 28.3266 39.9778 28.4603 39.9556C30.533 39.2878 32.8731 38.3084 34.6115 36.2828C36.2161 34.3907 36.2161 33.1219 34.5446 31.2744C32.6502 29.1153 30.2209 27.802 28.0814 26.778ZM7.44382 18.7424C7.35467 20.3673 7.71126 21.7697 8.46901 22.9494C11.0766 27.0006 14.6202 30.1614 18.9884 32.3429C19.8799 32.788 20.9719 33.0106 21.9525 32.9661C24.0475 32.9439 24.1589 32.8548 24.8498 31.0073C24.939 30.7402 25.0727 30.4953 25.2064 30.2505C25.7636 29.2488 26.1647 28.8036 26.5882 28.6923C27.0116 28.581 27.5688 28.7591 28.5271 29.3379L28.6386 29.4046C30.3101 30.4063 31.8925 31.3412 33.1405 32.8103C33.6308 33.389 33.6308 33.8342 33.1851 34.4352C32.0039 35.9711 30.377 36.9951 28.0591 37.6628C27.4797 37.8187 26.8556 37.5738 26.2539 37.329C26.0756 37.2622 25.9196 37.1954 25.7636 37.1286C15.0436 33.3891 7.26552 26.2438 2.65215 15.8932C2.27327 15.0251 2.20641 14.2683 2.47385 13.4224C2.96416 11.9088 3.5882 10.2171 5.01455 8.99283C5.25971 8.77024 5.46029 8.6812 5.68316 8.6812C5.83916 8.6812 5.99517 8.74798 6.19575 8.83702C8.35757 10.1058 9.76164 12.1759 11.0989 14.157L11.2326 14.3573C11.656 14.9806 11.032 15.6929 10.6308 16.0713C10.0291 16.6278 9.31591 17.0284 8.53587 17.2733C7.62211 17.5182 7.4661 18.1192 7.44382 18.7424Z" fill="#009EED"/>
<path d="M45.9994 4.62997C46.0217 3.36119 45.5537 2.18144 44.6845 1.31333C43.8153 0.445214 42.6118 -0.0222319 41.4083 2.74671e-05C38.4442 0.0668054 35.4355 0.0445461 32.5382 0.0445461C31.2901 0.0445461 30.0644 0.0222868 28.8163 0.0222868C27.0779 0.0222868 25.3618 0.0222868 23.6235 0.0222868C19.4113 0.0445461 15.0653 0.0445461 10.764 2.74671e-05C10.7417 2.74671e-05 10.7417 2.74671e-05 10.7194 2.74671e-05C8.57986 2.74671e-05 6.97521 1.15751 6.41804 3.07181C6.06145 4.29608 6.06145 5.20871 6.44033 5.87649C6.75234 6.41071 7.26494 6.76686 8.04498 6.94494C8.13412 6.9672 8.22327 6.94494 8.29013 6.90042C8.35699 6.8559 8.40157 6.76686 8.40157 6.67782V6.1436C8.40157 5.76519 8.40157 5.38678 8.40157 5.00837C8.42385 2.64889 8.95874 2.11466 11.2766 2.0924C20.793 2.0924 30.2872 2.0924 39.8037 2.0924C40.0266 2.0924 40.2717 2.13692 40.4946 2.15918C40.7175 2.2037 40.9626 2.22596 41.1855 2.24822C43.4142 2.27048 43.8822 2.73792 43.8822 4.80804C43.9045 11.1074 43.8822 17.4736 43.8822 23.7285C43.8822 25.3979 43.1021 26.1547 41.4083 26.177C39.6477 26.1992 37.887 26.1992 36.1487 26.177C35.4132 26.177 34.6777 26.177 33.9423 26.177H29.574C29.4626 26.177 29.3512 26.2438 29.3289 26.3551C29.3066 26.4664 29.3066 26.5777 29.3735 26.6667L29.3957 26.7112C30.1758 27.5348 30.9335 28.3139 32.1593 28.3139C32.1593 28.3139 32.1593 28.3139 32.1816 28.3139C33.4965 28.3139 34.8337 28.3139 36.1487 28.3139C36.8173 28.3139 37.4859 28.3139 38.1545 28.3139C39.3134 28.3139 40.4946 28.3139 41.6535 28.2916C44.2833 28.2694 45.9771 26.5331 45.9771 23.862C45.9771 21.9477 45.9771 20.0334 45.9771 18.1191C45.9549 13.6895 45.9326 9.12635 45.9994 4.62997Z" fill="#009EED"/>
<path d="M42.3667 4.74126C42.2998 4.54093 42.2107 4.27382 41.9655 4.27382C41.8541 4.27382 41.7649 4.25156 41.6535 4.25156C41.2523 4.20704 40.7397 4.16252 40.294 4.56319C39.8705 4.96386 39.4025 5.36452 38.9345 5.74293C38.5779 6.0323 38.2213 6.34393 37.8647 6.65556C35.8589 8.45857 33.7862 10.2616 31.7804 11.9978C30.0643 13.4892 28.3037 15.0251 26.5653 16.561C26.1419 16.9394 25.9636 16.8949 25.5847 16.5387C23.4229 14.6467 21.2165 12.7101 18.7872 10.6177L17.8289 9.74961C15.8008 7.99112 13.7281 6.18812 11.6331 4.42963C11.5886 4.40737 11.5663 4.36285 11.5217 4.3406C11.2988 4.14026 11.0091 3.87315 10.6079 3.89541C10.3628 3.91767 10.1399 4.02897 9.93934 4.27382C9.69418 4.54093 9.60504 4.80804 9.62732 5.07515C9.64961 5.47582 9.96163 5.76519 10.2959 6.05456L12.9481 8.34727C16.9374 11.7752 21.0605 15.3144 25.1167 18.8314C25.4733 19.143 25.8076 19.2989 26.1419 19.2989C26.4762 19.2989 26.7882 19.143 27.1225 18.8537C30.5546 15.8264 34.076 12.7769 37.4636 9.81639C38.9122 8.54761 40.3386 7.30109 41.7872 6.0323L41.8541 5.98779C42.0992 5.78745 42.4112 5.49808 42.4112 4.9416C42.4112 4.89708 42.4112 4.85256 42.389 4.8303C42.389 4.78578 42.3667 4.76352 42.3667 4.74126Z" fill="#009EED"/>
<path d="M41.5652 22.8159C40.072 21.2355 38.3782 19.8109 36.7512 18.4308C35.57 17.4291 34.3443 16.3829 33.2076 15.2922C33.0739 15.1809 32.9402 15.0696 32.7619 14.9138C32.6505 14.8248 32.539 14.7357 32.383 14.6022C32.3162 14.5577 32.2493 14.5354 32.1824 14.5354C32.1156 14.5354 32.0487 14.5799 32.0041 14.6467C31.915 14.758 31.8481 14.847 31.759 14.9583C31.5584 15.2032 31.3578 15.4703 31.2018 15.7819C30.9567 16.2716 31.4024 16.561 31.5807 16.6723C31.6253 16.7168 31.6921 16.7391 31.7144 16.7613C34.0991 18.8537 36.5061 20.9683 38.8462 23.0162L40.3394 24.3072C40.384 24.3518 40.4286 24.3963 40.4731 24.4408C40.5846 24.5521 40.7406 24.6856 40.9189 24.7747C41.1417 24.886 41.3423 24.9305 41.5206 24.9305C41.8326 24.9305 42.1224 24.7747 42.3452 24.4853C42.791 23.8621 42.3229 23.3501 42.1669 23.1498C42.0555 23.0385 41.9218 22.9717 41.8103 22.9049C41.6766 22.9049 41.6098 22.8604 41.5652 22.8159Z" fill="#009EED"/>
<path d="M20.548 16.7613C20.6149 16.7168 20.704 16.6723 20.8155 16.6278C20.8823 16.6055 20.9492 16.5832 21.016 16.5387C21.0829 16.4942 21.1498 16.4274 21.172 16.3606C21.1943 16.2716 21.172 16.2048 21.1275 16.138C20.9938 15.9822 20.8823 15.8264 20.7932 15.6929C20.5926 15.4258 20.4366 15.2032 20.236 15.0251C20.1023 14.8693 19.9463 14.8025 19.768 14.8025C19.5228 14.8025 19.3445 14.9806 19.2108 15.1141C19.1885 15.1586 19.1439 15.1809 19.1217 15.2032C18.1856 16.0045 17.2496 16.8058 16.3135 17.6072C14.7089 18.9872 13.0596 20.4118 11.4327 21.7919C10.7641 22.3484 11.1207 22.8158 11.3213 23.083C11.3658 23.1275 11.4104 23.1943 11.4327 23.2388C11.5887 23.4836 11.7893 23.7062 12.079 23.7507C12.1013 23.7507 12.1236 23.7507 12.1459 23.7507C12.4133 23.7507 12.6362 23.5727 12.7922 23.4614C15.2215 21.3245 17.673 19.2098 20.0577 17.1842L20.548 16.7613Z" fill="#009EED"/>
<path d="M18.2085 28.4252C18.3868 28.4252 18.5874 28.4252 18.7657 28.4029C19.6348 28.3139 20.5263 28.3362 21.2618 28.4029C22.7104 28.492 24.2036 28.4475 25.0505 26.8003C25.0951 26.7112 25.0951 26.6222 25.0283 26.5332C24.9614 26.4441 24.8945 26.3996 24.7831 26.3996H15.2889C15.1775 26.3996 15.0883 26.4664 15.0438 26.5554C14.9992 26.6445 14.9992 26.7557 15.066 26.8448C15.8907 27.891 16.9159 28.4252 18.2085 28.4252Z" fill="#009EED"/>
</g>
<defs>
<clipPath id="clip0">
<rect width="46" height="40" fill="white"/>
</clipPath>
</defs>
</svg>
