<svg id="Layer_1" data-name="Layer 1" xmlns="http://www.w3.org/2000/svg" xmlns:xlink="http://www.w3.org/1999/xlink" viewBox="0 0 14 14"><defs><style>.cls-1{fill:none;}.cls-2{clip-path:url(#clip-path);}.cls-3{fill:#010101;}</style><clipPath id="clip-path"><rect class="cls-1" x="1.06" y="0.02" width="11.87" height="13.97"/></clipPath></defs><title>delete</title><g class="cls-2"><path class="cls-3" d="M2.12,4.32H1.06V3.25l.5,0c0-.12,0-.24,0-.36,0-.55.17-.68.71-.68H4.22c.06-.3.09-.58.16-.84A1.86,1.86,0,0,1,6.14,0c.58,0,1.16,0,1.75,0A1.86,1.86,0,0,1,9.71,1.83v.33h2c.52,0,.68.19.68.71v.34l.53,0V4.3H11.86v.42c0,2.58,0,5.16,0,7.74A1.52,1.52,0,0,1,10.35,14H3.64a1.55,1.55,0,0,1-1.5-1.53q0-3.87,0-7.74C2.12,4.6,2.12,4.49,2.12,4.32Zm1.09,0c0,.07,0,.1,0,.13q0,3.9,0,7.8c0,.54.13.67.67.67h6.15c.59,0,.72-.15.72-.73q0-3.8,0-7.59c0-.09,0-.18,0-.28Zm2.2-2.2H8.57c0-.72-.26-1-1-1H6.28A.84.84,0,0,0,5.41,2.14Z"/><path class="cls-3" d="M5.36,5.43v6.4h-1V5.43Z"/><path class="cls-3" d="M7.51,11.84h-1V5.43h1Z"/><path class="cls-3" d="M8.65,5.43h1v6.39h-1Z"/></g></svg>