<svg width="18" height="23" viewBox="0 0 18 23" fill="none" xmlns="http://www.w3.org/2000/svg">
<g clip-path="url(#clip0)">
<path d="M14.2824 23C10.7536 23 7.23461 23 3.70578 23C2.02538 22.3049 1.62011 21.6813 1.62011 19.7596C1.62011 15.9773 1.62011 12.1951 1.63 8.41289C1.63 8.11644 1.57069 7.93244 1.29392 7.76889C0.147294 7.09422 -0.297517 5.67333 0.196717 4.40578C0.601989 3.37333 1.49161 2.77022 2.64812 2.76C3.76509 2.74978 4.87217 2.76 5.97925 2.76C6.0781 2.44311 6.12752 2.17733 6.22637 1.932C6.6613 0.848444 7.50149 0.286222 8.54927 0C8.84581 0 9.14235 0 9.43889 0C10.4175 0.265778 11.228 0.766667 11.6827 1.73778C11.831 2.05467 11.9101 2.40222 12.0287 2.76C13.1852 2.76 14.3417 2.73956 15.4883 2.77022C16.6646 2.80089 17.6036 3.588 17.9002 4.75333C18.1967 5.91867 17.742 7.16578 16.7338 7.74844C16.4175 7.93244 16.3582 8.13689 16.3582 8.47422C16.3681 12.4302 16.3681 16.376 16.3582 20.332C16.3582 21.5893 15.6564 22.5502 14.49 22.908C14.4208 22.9284 14.3516 22.9693 14.2824 23ZM2.81616 8.17778C2.81616 8.372 2.81616 8.53555 2.81616 8.69911C2.81616 12.5324 2.81616 16.3658 2.81616 20.1889C2.81616 21.2111 3.34004 21.7631 4.3384 21.7631C7.4323 21.7631 10.5262 21.7631 13.6201 21.7631C14.6481 21.7631 15.1621 21.2213 15.1621 20.1582C15.1621 16.3453 15.1621 12.5324 15.1621 8.71956C15.1621 8.53556 15.1621 8.36178 15.1621 8.16756C11.0303 8.17778 6.94795 8.17778 2.81616 8.17778ZM9.0435 3.98667C6.9183 3.98667 4.79309 3.97644 2.67777 3.98667C1.76838 3.98667 1.21484 4.56933 1.22472 5.46889C1.23461 6.36844 1.80792 6.9 2.7865 6.9C6.93807 6.9 11.0797 6.9 15.2313 6.9C15.3796 6.9 15.5279 6.88978 15.6761 6.85911C16.3186 6.74667 16.7536 6.22533 16.7832 5.55067C16.8326 4.58978 16.2791 3.97644 15.3203 3.97644C13.2247 3.98667 11.1292 3.98667 9.0435 3.98667ZM10.6942 2.73956C10.6251 1.89111 9.81451 1.20622 8.93477 1.23689C8.07481 1.26756 7.32357 1.96267 7.31369 2.73956C8.44054 2.73956 9.56739 2.73956 10.6942 2.73956Z" fill="#D22222"/>
<path d="M5.17969 16.0182C5.17969 14.9142 5.17969 13.8102 5.17969 12.7062C5.17969 12.2769 5.28842 11.96 5.76288 11.9395C6.14838 11.9191 6.36585 12.1849 6.36585 12.696C6.37573 14.9244 6.36585 17.1529 6.36585 19.3813C6.36585 19.8004 6.23734 20.1275 5.77277 20.1582C5.37738 20.1786 5.17969 19.9026 5.17969 19.3506C5.17969 18.2262 5.17969 17.1222 5.17969 16.0182Z" fill="#D22222"/>
<path d="M12.8102 16.0693C12.8102 17.1529 12.8102 18.2467 12.8102 19.3302C12.8102 19.8822 12.6026 20.1582 12.2072 20.1378C11.7426 20.1071 11.624 19.7698 11.624 19.3507C11.624 17.1427 11.624 14.9347 11.624 12.7165C11.624 12.1645 11.8316 11.9089 12.2369 11.9191C12.6323 11.9293 12.8102 12.1747 12.8102 12.7471C12.8201 13.8613 12.8102 14.9653 12.8102 16.0693Z" fill="#D22222"/>
<path d="M9.58741 16.0489C9.58741 17.1324 9.58741 18.2262 9.58741 19.3098C9.58741 19.8618 9.38972 20.1378 9.00421 20.1378C8.61871 20.1378 8.41113 19.872 8.41113 19.32C8.41113 17.112 8.41113 14.904 8.41113 12.696C8.41113 12.1542 8.63848 11.8884 9.04375 11.9293C9.49845 11.9702 9.58741 12.2973 9.58741 12.6858C9.58741 13.8102 9.58741 14.9347 9.58741 16.0489Z" fill="#D22222"/>
</g>
<defs>
<clipPath id="clip0">
<rect width="18" height="23" fill="white"/>
</clipPath>
</defs>
</svg>
