<svg width="13" height="15" viewBox="0 0 13 15" fill="none" xmlns="http://www.w3.org/2000/svg">
<path d="M1.24219 8.8299C2.82487 7.87538 4.38428 6.93614 5.94757 5.99307C6.18032 6.81396 6.00188 8.08919 5.0127 8.92917C5.03985 8.97498 5.06701 9.02462 5.09416 9.07044C5.48595 9.7386 5.87775 10.4068 6.26954 11.0749C6.37427 11.2544 6.38203 11.4262 6.26178 11.598C6.14928 11.7584 5.98636 11.8156 5.7924 11.7813C5.63336 11.7545 5.52862 11.6553 5.45104 11.5178C5.05537 10.8497 4.65582 10.1777 4.26791 9.5057C4.2136 9.41406 4.17093 9.39879 4.06619 9.42934C3.02659 9.72714 2.10335 9.47897 1.24219 8.8299Z" fill="#009DED"/>
<path d="M7.85263 11.3765C6.90613 10.5708 6.71993 9.37961 6.87122 8.65036C8.39959 9.56288 9.92021 10.4678 11.4835 11.4032C11.2313 11.5368 11.0141 11.6666 10.7853 11.7659C10.1297 12.037 9.45471 12.079 8.77199 11.8652C8.67889 11.8346 8.64397 11.8614 8.60518 11.9339C8.20951 12.6135 7.81384 13.2893 7.41429 13.9651C7.29404 14.1713 7.10784 14.2706 6.91389 14.2362C6.56864 14.1751 6.4096 13.8315 6.59192 13.5222C6.89837 12.9915 7.21258 12.4646 7.51903 11.9377C7.6354 11.7506 7.74402 11.5674 7.85263 11.3765Z" fill="#009DED"/>
<path d="M7.72066 2.51094C7.72066 1.83896 7.74005 1.18607 7.7129 0.533179C7.69738 0.155191 8.06978 -0.157891 8.47709 0.0864655C8.86112 0.315549 9.26455 0.517907 9.65634 0.735537C9.86194 0.850079 9.9434 1.06389 9.87358 1.27388C9.80763 1.48388 9.60592 1.61751 9.38093 1.59078C9.30334 1.58315 9.22188 1.54497 9.15206 1.5106C8.98913 1.43042 8.83397 1.33879 8.65165 1.24334C8.65165 1.32352 8.65165 1.37697 8.65165 1.43424C8.65165 2.22076 8.65165 3.00729 8.65165 3.79763C8.65165 4.5536 8.10469 5.13777 7.34438 5.19886C6.63838 5.25613 5.99056 4.73687 5.87031 4.01144C5.71902 3.0951 6.6151 2.2704 7.53834 2.47276C7.58877 2.48039 7.64695 2.49185 7.72066 2.51094Z" fill="#009DED"/>
<path d="M12.7934 9.33759C11.2184 8.39835 9.65902 7.46674 8.09961 6.53895C8.697 5.95861 10.012 5.52335 11.1758 6.03497C12.4171 6.57713 13.0688 7.88291 12.7934 9.33759Z" fill="#009DED"/>
<path d="M4.73679 4.05726C3.17738 4.9965 1.63349 5.92811 0.0857163 6.86354C-0.143152 6.10756 0.0508041 4.72924 1.10205 3.93126C2.23863 3.06838 3.75925 3.25547 4.73679 4.05726Z" fill="#009DED"/>
<path d="M7.12695 7.73405C7.23169 7.5546 7.32867 7.3866 7.43341 7.20715C9.12083 8.21512 10.7966 9.21545 12.4879 10.2234C12.3754 10.3952 12.2707 10.5594 12.1582 10.7389C10.4824 9.73471 8.81438 8.74201 7.12695 7.73405Z" fill="#009DED"/>
<path d="M5.40034 4.72543C5.48568 4.85907 5.55939 4.97743 5.64085 5.10724C3.96119 6.11903 2.28928 7.127 0.601861 8.1426C0.520399 8.00897 0.446696 7.89061 0.365234 7.75698C2.04878 6.74901 3.72068 5.74104 5.40034 4.72543Z" fill="#009DED"/>
</svg>
