<svg width="15" height="10" viewBox="0 0 15 10" fill="none" xmlns="http://www.w3.org/2000/svg">
<g opacity="0.3" clip-path="url(#clip0)">
<path d="M0.15918 0.822733C0.471273 0.304943 0.910155 0.0126942 1.51484 0.00634099C2.80547 -0.00318887 4.09286 0.00316437 5.3835 0.00316437C8.02979 0.00316437 10.6793 0.00634099 13.3289 -1.22482e-05C13.9596 -0.00318887 14.4537 0.219175 14.7951 0.746494C14.8081 0.76873 14.8211 0.794143 14.8373 0.832262C14.5545 1.04192 14.2717 1.25158 13.9856 1.46441C12.1748 2.80177 10.364 4.13912 8.55645 5.47648C7.84124 6.0038 7.16178 6.0038 6.44657 5.47648C4.4017 3.96123 2.36009 2.45234 0.315227 0.943444C0.269713 0.908501 0.224199 0.870382 0.15918 0.822733Z" fill="black"/>
<path d="M10.1007 5.28589C11.6579 6.63913 13.2021 7.98284 14.7561 9.32973C14.4213 9.78081 13.9759 9.99682 13.4167 9.99682C12.8153 9.99682 12.2138 9.99682 11.6124 9.99682C8.29317 9.99682 4.97067 9.99364 1.65143 9.99682C1.10851 9.99682 0.656629 9.82211 0.315276 9.40279C0.299021 9.38373 0.286018 9.35832 0.26001 9.32338C1.80422 7.97967 3.34844 6.63596 4.89915 5.28271C5.29577 5.57496 5.68589 5.86721 6.07926 6.15629C6.50838 6.47077 6.99278 6.6296 7.53244 6.62325C8.04935 6.6169 8.51098 6.45806 8.92061 6.15629C9.31072 5.87039 9.70084 5.58449 10.1007 5.28589Z" fill="black"/>
<path d="M4.25878 4.81256C2.8381 6.05145 1.43043 7.27762 0 8.52286C0 6.22616 0 3.96123 0 1.66771C1.42718 2.72235 2.8381 3.76428 4.25878 4.81256Z" fill="black"/>
<path d="M10.7444 4.81256C12.1651 3.7611 13.5727 2.72235 14.9999 1.66771C14.9999 3.95488 14.9999 6.21981 14.9999 8.5165C13.5792 7.2808 12.1716 6.05462 10.7444 4.81256Z" fill="black"/>
</g>
<defs>
<clipPath id="clip0">
<rect width="15" height="10" fill="white"/>
</clipPath>
</defs>
</svg>
