<svg id="Layer_1" data-name="Layer 1" xmlns="http://www.w3.org/2000/svg" xmlns:xlink="http://www.w3.org/1999/xlink" viewBox="0 0 14 14"><defs><style>.cls-1{fill:none;}.cls-2{clip-path:url(#clip-path);}.cls-3{fill:#010101;}</style><clipPath id="clip-path"><rect class="cls-1" x="0.03" y="0.03" width="13.94" height="13.94"/></clipPath></defs><title>emoji</title><g class="cls-2"><path class="cls-3" d="M0,7a7,7,0,1,1,7,7A7,7,0,0,1,0,7ZM13,7a6,6,0,1,0-6,6A6,6,0,0,0,13,7Z"/><path class="cls-3" d="M7,11A5.19,5.19,0,0,1,3.76,9.81c-.16-.14-.34-.28-.33-.52a.49.49,0,0,1,.26-.43.47.47,0,0,1,.51,0c.15.1.27.22.42.32a4.12,4.12,0,0,0,5-.22.6.6,0,0,1,.47-.18.48.48,0,0,1,.41.34.42.42,0,0,1-.14.51,11.91,11.91,0,0,1-1.2.8A4.71,4.71,0,0,1,7,11Z"/><path class="cls-3" d="M8.4,5.8a1,1,0,0,1,1-1,1,1,0,0,1,1,1,1,1,0,1,1-2,0Z"/><path class="cls-3" d="M5.6,5.81a1,1,0,1,1-2,0,1,1,0,0,1,1-1A1,1,0,0,1,5.6,5.81Z"/></g></svg>