<svg id="Layer_1" data-name="Layer 1" xmlns="http://www.w3.org/2000/svg" viewBox="0 0 14 14"><defs><style>.cls-1{fill:#009ded;}</style></defs><title>esay</title><path class="cls-1" d="M2.49,8.49,6.58,6a2.55,2.55,0,0,1-.81,2.55l.07.13,1,1.74a.41.41,0,0,1,0,.46.4.4,0,0,1-.41.16.44.44,0,0,1-.3-.23l-1-1.76C5.07,9,5,9,4.94,9A2.67,2.67,0,0,1,2.49,8.49Z"/><path class="cls-1" d="M8.24,10.7a2.53,2.53,0,0,1-.85-2.37l4,2.4c-.22.11-.41.23-.61.31A2.51,2.51,0,0,1,9,11.13c-.08,0-.11,0-.15.06-.34.59-.68,1.18-1,1.77a.44.44,0,0,1-.44.23.4.4,0,0,1-.28-.62L8,11.19C8.05,11,8.15,10.87,8.24,10.7Z"/><path class="cls-1" d="M8.12,3c0-.59,0-1.16,0-1.72A.42.42,0,0,1,8.78.88c.34.2.69.37,1,.56a.39.39,0,0,1,.19.47.41.41,0,0,1-.43.28.68.68,0,0,1-.2-.07l-.43-.24V4.11A1.21,1.21,0,0,1,7.8,5.33a1.24,1.24,0,0,1-1.29-1A1.23,1.23,0,0,1,8,3Z"/><path class="cls-1" d="M12.54,8.93,8.45,6.49a2.61,2.61,0,0,1,2.68-.44A2.52,2.52,0,0,1,12.54,8.93Z"/><path class="cls-1" d="M5.53,4.33,1.48,6.78a2.51,2.51,0,0,1,.89-2.56A2.58,2.58,0,0,1,5.53,4.33Z"/><path class="cls-1" d="M7.61,7.53l.26-.46,4.4,2.63c-.09.15-.19.29-.28.45Z"/><path class="cls-1" d="M6.11,4.91l.21.34L1.93,7.89l-.21-.34C3.19,6.68,4.64,5.8,6.11,4.91Z"/></svg>