<svg width="45" height="36" viewBox="0 0 45 36" fill="none" xmlns="http://www.w3.org/2000/svg">
<path d="M39.1291 30.4723C39.1291 31.6988 39.1449 32.8531 39.1291 34.0074C39.1055 35.4323 37.9487 36.3611 36.8076 35.8651C36.5243 35.7389 36.2646 35.5044 36.0443 35.2519C34.7458 33.791 33.4552 32.312 32.1804 30.824C31.96 30.5715 31.7397 30.4633 31.4249 30.4633C27.2934 30.4723 23.1619 30.4723 19.0304 30.4723C16.8112 30.4723 15.1665 28.9031 14.7888 26.4141C14.7258 25.9903 14.7415 25.5484 14.7179 25.0434C14.2064 25.0434 13.687 25.0253 13.1676 25.0614C13.0496 25.0704 12.9316 25.2418 12.8371 25.35C11.5387 26.838 10.2402 28.326 8.94172 29.814C8.29642 30.5535 7.64325 30.7338 6.91139 30.3821C6.21887 30.0575 5.85688 29.3631 5.85688 28.353C5.85688 27.4061 5.85688 26.4592 5.85688 25.5123C5.85688 25.368 5.84114 25.2237 5.83327 25.0253C5.25879 25.0253 4.7158 25.0344 4.16493 25.0253C2.23691 24.9983 0.647267 23.6095 0.135749 21.4812C0.0334454 21.0574 0.00196738 20.5884 0.00196738 20.1465C0.00196738 15.0603 -0.00590213 9.96504 0.00983688 4.86979C0.0177064 2.02908 1.81195 0 4.29085 0C12.9945 0 21.7061 0 30.4097 0C33.1011 0 34.8324 1.95694 34.8717 5.05016C34.8717 5.16739 34.8875 5.28463 34.8953 5.46499C35.0606 5.46499 35.218 5.46499 35.3675 5.46499C37.1381 5.46499 38.9088 5.50106 40.6794 5.45597C43.1662 5.39285 45.0234 7.72855 44.9998 10.3979C44.9447 15.4571 44.984 20.5253 44.984 25.5935C44.984 28.4432 43.2134 30.4633 40.7188 30.4723C40.2073 30.4723 39.6957 30.4723 39.1291 30.4723ZM7.88721 27.6045C7.94229 27.6496 8.00525 27.6947 8.06034 27.7488C8.15477 27.5865 8.2256 27.3971 8.34364 27.2618C9.56341 25.855 10.7911 24.4572 12.0108 23.0504C12.2233 22.8069 12.4358 22.7077 12.7348 22.7077C18.6842 22.7167 24.6414 22.7167 30.5986 22.7167C31.9757 22.7167 32.865 21.7067 32.865 20.1285C32.865 15.0513 32.865 9.97406 32.865 4.88783C32.865 3.35475 31.9836 2.32668 30.6537 2.32668C21.8556 2.32668 13.0575 2.31766 4.25937 2.32668C2.92155 2.32668 2.02443 3.36377 2.02443 4.91489C2.02443 9.9921 2.02443 15.0693 2.02443 20.1555C2.02443 21.6886 2.92942 22.7167 4.28298 22.7257C5.34536 22.7257 6.40774 22.7257 7.47012 22.7257C7.60391 22.7257 7.74556 22.7437 7.91082 22.7528C7.88721 24.4031 7.88721 25.9993 7.88721 27.6045ZM36.9178 33.2318C36.9808 33.1868 37.0437 33.1326 37.1067 33.0876C37.1067 32.9342 37.1067 32.7719 37.1067 32.6186C37.1067 31.311 37.1224 30.0033 37.0988 28.6957C37.0909 28.2628 37.2247 28.1727 37.571 28.1817C38.594 28.1997 39.617 28.1907 40.6401 28.1907C42.1117 28.1817 42.9931 27.1717 42.9931 25.4943C42.9931 20.4892 42.9931 15.4841 42.9931 10.4791C42.9931 8.78367 42.1195 7.77364 40.6558 7.77364C38.8852 7.77364 37.1145 7.77364 35.3439 7.77364C35.2022 7.77364 35.0606 7.77364 34.8796 7.77364C34.8796 8.02614 34.8796 8.21552 34.8796 8.40491C34.8796 12.2557 34.8796 16.0974 34.8796 19.9481C34.8796 23.0143 33.1168 25.0344 30.4491 25.0434C26.0658 25.0434 21.6903 25.0434 17.307 25.0434C17.1417 25.0434 16.9765 25.0434 16.701 25.0434C16.7797 25.6296 16.7797 26.1616 16.9293 26.6396C17.244 27.6586 18.0231 28.1907 19.0698 28.1907C23.4767 28.1907 27.8836 28.1907 32.2905 28.1817C32.5896 28.1817 32.8021 28.2719 33.0145 28.5154C34.25 29.9492 35.4934 31.3651 36.7289 32.799C36.8155 32.9072 36.8548 33.0876 36.9178 33.2318Z" fill="#009EED"/>
<path d="M28.1427 14.827C28.2607 14.9822 28.3945 15.1608 28.5598 15.3704C28.1191 15.7198 27.6862 16.0614 27.2612 16.3952C27.0173 16.1856 26.8205 15.8906 26.5766 15.8285C26.3326 15.7664 26.0257 15.9449 25.7424 15.9993C23.9874 16.3253 22.1537 15.4946 21.3982 14.0273C20.6033 12.4901 20.9181 10.5648 22.1222 9.40799C23.9559 7.64565 28.0876 7.94843 28.9218 11.1781C29.2208 12.3349 29.0477 13.4373 28.3709 14.4388C28.3001 14.5475 28.2214 14.6484 28.1505 14.7571C28.1427 14.7726 28.1427 14.7882 28.1427 14.827ZM26.8127 13.2432C27.3163 12.2805 27.0645 11.0539 26.2775 10.4483C25.5456 9.88157 24.3966 9.90486 23.6883 10.4871C22.9013 11.1315 22.6967 12.4358 23.2319 13.3674C23.6804 14.1438 24.5855 14.5397 25.4197 14.2758C25.1836 13.9885 24.9554 13.7168 24.7114 13.414C25.1679 13.0491 25.6007 12.7075 26.0493 12.3581C26.309 12.6687 26.5451 12.9404 26.8127 13.2432Z" fill="#009EED"/>
<path d="M20.643 15.9216C19.9976 15.9216 19.3681 15.9294 18.7463 15.9061C18.6519 15.9061 18.526 15.7508 18.4788 15.6344C18.1482 14.7959 18.1482 14.7959 17.2432 14.7959C16.6293 14.7959 16.0076 14.8114 15.3938 14.7881C15.1341 14.7804 15.0003 14.8502 14.9058 15.1064C14.6225 15.9216 14.6146 15.9138 13.7332 15.9138C13.3555 15.9138 12.9777 15.9138 12.5527 15.9138C12.6078 15.7508 12.6393 15.6266 12.6865 15.5179C13.5443 13.2742 14.4022 11.0228 15.2521 8.7791C15.3465 8.53067 15.4567 8.43751 15.7322 8.44527C16.3303 8.46856 16.9363 8.43751 17.5422 8.4608C17.6682 8.46856 17.8649 8.58501 17.9043 8.6937C18.8172 11.0305 19.7065 13.3751 20.6036 15.7198C20.6194 15.7741 20.6194 15.8284 20.643 15.9216ZM16.6529 10.2697C16.6136 10.2697 16.5821 10.2775 16.5428 10.2775C16.2122 11.2324 15.8817 12.1796 15.5433 13.1655C16.2831 13.1655 16.9441 13.1655 17.6603 13.1655C17.3219 12.1796 16.9913 11.2246 16.6529 10.2697Z" fill="#009EED"/>
<path d="M6.82324 8.47632C8.66479 8.47632 10.4749 8.47632 12.3086 8.47632C12.3086 9.00424 12.3086 9.5244 12.3086 10.0834C11.372 10.0834 10.4591 10.0834 9.53835 10.0834C8.74349 10.0834 8.74349 10.0834 8.74349 10.883C8.74349 11.0072 8.74349 11.1392 8.74349 11.3023C8.91663 11.31 9.05042 11.3256 9.19208 11.3256C10.0971 11.3256 11.0022 11.3333 11.9072 11.3256C12.1748 11.3256 12.2928 11.3877 12.2771 11.6672C12.2535 12.0786 12.2692 12.4901 12.2692 12.9404C11.0887 12.9404 9.95546 12.9404 8.74349 12.9404C8.74349 13.2276 8.74349 13.4838 8.74349 13.7323C8.74349 14.3689 8.75136 14.9977 8.73562 15.6343C8.73562 15.7353 8.60184 15.9061 8.53101 15.9061C7.97225 15.9294 7.41348 15.9216 6.82324 15.9216C6.82324 13.4295 6.82324 10.9762 6.82324 8.47632Z" fill="#009EED"/>
</svg>
