<svg id="Layer_1" data-name="Layer 1" xmlns="http://www.w3.org/2000/svg" xmlns:xlink="http://www.w3.org/1999/xlink" viewBox="0 0 14 14"><defs><style>.cls-1{fill:url(#linear-gradient);}.cls-2{fill:#fff;}</style><linearGradient id="linear-gradient" x1="2.55" y1="-16.57" x2="12.28" y2="-26.3" gradientTransform="matrix(1, 0, 0, -1, 0, -14.13)" gradientUnits="userSpaceOnUse"><stop offset="0" stop-color="#2aa4f4"/><stop offset="1" stop-color="#007ad9"/></linearGradient></defs><title>fb</title><path class="cls-1" d="M7,.54a6.36,6.36,0,1,0,6.36,6.35A6.35,6.35,0,0,0,7,.54Z"/><path class="cls-2" d="M7.88,8.32H9.7L10,6.48H7.88v-1c0-.76.25-1.44,1-1.44H10V2.43a9.21,9.21,0,0,0-1.44-.09c-1.68,0-2.67.89-2.67,2.92V6.48H4.16V8.32H5.89v5.06a7.2,7.2,0,0,0,1.05.08,5.86,5.86,0,0,0,.94-.07Z"/></svg>