<svg id="Layer_1" data-name="Layer 1" xmlns="http://www.w3.org/2000/svg" xmlns:xlink="http://www.w3.org/1999/xlink" viewBox="0 0 14 14"><defs><style>.cls-1{fill:none;}.cls-2{clip-path:url(#clip-path);}.cls-3{fill:#010101;}</style><clipPath id="clip-path"><rect class="cls-1" y="0.3" width="14" height="13.39"/></clipPath></defs><title>Pin</title><g class="cls-2"><path class="cls-3" d="M7,12.73l-.77-.79c.11-.1.22-.2.32-.31,1.89-2,3.79-3.89,5.67-5.85a2.48,2.48,0,0,0,.59-2.58,2.39,2.39,0,0,0-1.93-1.75,2.36,2.36,0,0,0-2.23.74L1.59,9.48a1.83,1.83,0,0,0,.65,3,1.62,1.62,0,0,0,1.82-.42Q6.46,9.6,8.84,7.13a1.08,1.08,0,0,0,0-1.48,1,1,0,0,0-1.44,0Q5.69,7.41,4,9.17c-.08.07-.14.16-.21.23L3,8.61l.54-.55c1-1.07,2.06-2.14,3.1-3.19a1.93,1.93,0,0,1,2.09-.52A2,2,0,0,1,10.15,6a2.1,2.1,0,0,1-.57,2L4.92,12.75a3,3,0,0,1-1.36.85A2.83,2.83,0,0,1,0,11.29,2.91,2.91,0,0,1,.83,8.7C3.2,6.25,5.56,3.8,7.94,1.36a3.4,3.4,0,0,1,2.7-1A3.59,3.59,0,0,1,14,3.4a3.65,3.65,0,0,1-1,3.2L7.75,12l-.68.7Z"/></g></svg>