<svg width="32" height="26" viewBox="0 0 32 26" fill="none" xmlns="http://www.w3.org/2000/svg">
<g clip-path="url(#clip0)">
<path d="M3.90339 4.61004C2.99131 4.61004 2.10242 4.61004 1.21353 4.61004C0.556522 4.61004 0 4.08291 0 3.48896C0 2.90987 0.571981 2.39016 1.19807 2.38274C2.10242 2.38274 2.99904 2.38274 3.89566 2.38274C4.46764 0.920145 5.77392 0.103469 7.08793 0.00695284C8.80388 -0.119261 10.2184 0.920145 10.8135 2.38274C10.9604 2.38274 11.115 2.38274 11.2696 2.38274C17.7701 2.38274 24.2783 2.38274 30.7788 2.38274C31.4744 2.38274 32.031 2.92471 32.0078 3.56321C31.9923 4.06064 31.4281 4.59519 30.9102 4.61004C30.601 4.61746 30.2918 4.61004 29.9826 4.61004C23.7527 4.61004 17.515 4.61004 11.285 4.61004C11.1304 4.61004 10.9759 4.61004 10.8058 4.61004C10.5044 5.33762 10.0406 5.94642 9.36813 6.39188C8.65702 6.85218 7.86861 7.06006 7.0261 6.9784C5.63479 6.84476 4.42126 5.99839 3.90339 4.61004ZM8.65702 3.47411C8.61064 2.75395 8.12368 2.24168 7.33527 2.25652C6.53141 2.27137 6.05991 2.70941 6.05218 3.48896C6.04445 4.27594 6.53914 4.7511 7.35846 4.74367C8.13914 4.73625 8.58745 4.29079 8.65702 3.47411Z" fill="black"/>
<path d="M8.83478 23.6168C7.08792 23.6168 5.34106 23.6168 3.58647 23.6168C2.79807 23.6168 2.01739 23.6168 1.22899 23.6168C0.571981 23.6168 0 23.0971 0 22.5106C0 21.9018 0.564251 21.3895 1.25217 21.3821C3.77198 21.3821 6.29952 21.3821 8.84251 21.3821C9.15169 20.5654 9.69275 19.9195 10.4657 19.4814C11.1536 19.088 11.9111 18.9172 12.6995 19.0137C14.0444 19.177 15.2193 20.0234 15.7372 21.3821C15.8918 21.3821 16.0618 21.3821 16.2242 21.3821C21.0783 21.3821 25.9324 21.3821 30.7865 21.3821C31.4589 21.3821 32.0155 21.924 32 22.5403C31.9845 23.06 31.428 23.5945 30.887 23.6094C30.7556 23.6168 30.6319 23.6094 30.5005 23.6094C25.7391 23.6094 20.97 23.6094 16.2087 23.6094C16.0541 23.6094 15.8995 23.6094 15.7527 23.6094C15.1807 25.0497 13.7198 26.0668 12.143 25.9851C10.7594 25.9258 9.40676 25.072 8.83478 23.6168ZM13.6039 22.4957C13.5188 21.7013 13.1324 21.2559 12.228 21.2559C11.4705 21.2559 10.9836 21.7681 10.9913 22.5031C11.0068 23.2753 11.4628 23.743 12.2744 23.743C13.1324 23.7356 13.5188 23.3124 13.6039 22.4957Z" fill="black"/>
<path d="M28.1201 11.8863C29.0013 11.8863 29.8902 11.8863 30.7791 11.8863C31.4361 11.8863 32.0003 12.406 32.0003 13C32.0003 13.5939 31.4361 14.1136 30.7791 14.1211C29.8902 14.1211 29.0013 14.1211 28.1201 14.1211C27.4863 15.6579 26.0332 16.6082 24.3945 16.4894C23.0109 16.3855 21.7665 15.5391 21.2022 14.1211C21.0322 14.1211 20.8544 14.1211 20.6689 14.1211C14.1916 14.1211 7.71432 14.1211 1.23703 14.1211C0.541377 14.1136 -0.0151445 13.5865 0.000314433 12.948C0.0157734 12.4506 0.564566 11.9086 1.08244 11.8863C1.22157 11.8789 1.36843 11.8863 1.50756 11.8863C7.92302 11.8863 14.3307 11.8863 20.7462 11.8863C20.9008 11.8863 21.0554 11.8863 21.2022 11.8863C21.7742 10.4237 23.0805 9.60706 24.3945 9.51055C26.095 9.39176 27.5327 10.4163 28.1201 11.8863ZM25.9636 13.0148C25.9172 12.2204 25.4457 11.7675 24.6032 11.7453C23.923 11.7304 23.3124 12.3095 23.3433 12.9851C23.382 13.7944 23.7916 14.225 24.6496 14.2398C25.4303 14.2547 25.8863 13.8389 25.9636 13.0148Z" fill="black"/>
</g>
<defs>
<clipPath id="clip0">
<rect width="32" height="26" fill="white"/>
</clipPath>
</defs>
</svg>
