<svg id="Layer_1" data-name="Layer 1" xmlns="http://www.w3.org/2000/svg" viewBox="0 0 14 14"><defs><style>.cls-1{fill:#3fa8df;}</style></defs><title>Gender</title><path class="cls-1" d="M9.3,0V1.67h1.75L9.2,3.53A5.83,5.83,0,0,0,1.25,4.59,5.69,5.69,0,0,0,0,8.38a5.87,5.87,0,0,0,1.54,3.76A5.73,5.73,0,0,0,5.15,14l.62,0a5.72,5.72,0,0,0,3.3-1A5.68,5.68,0,0,0,11.4,9.57a5.66,5.66,0,0,0-.85-4.63l1.84-1.87V4.69H14V0Zm.59,8.24a4,4,0,0,1-1.17,2.84,4.15,4.15,0,0,1-3,1.23h0a4,4,0,0,1-2.91-1.2,4.2,4.2,0,0,1-1.19-3,4.14,4.14,0,0,1,4.11-4h0A4.16,4.16,0,0,1,9.89,8.24Z"/></svg>