<svg id="Layer_1" data-name="Layer 1" xmlns="http://www.w3.org/2000/svg" viewBox="0 0 14 14"><defs><style>.cls-1{fill:#3799d4;}</style></defs><title>Genre</title><path class="cls-1" d="M2.41,8.51,6.57,6a2.59,2.59,0,0,1-.82,2.6.83.83,0,0,0,.07.13l1,1.77a.41.41,0,0,1,0,.47.39.39,0,0,1-.41.16.46.46,0,0,1-.31-.23c-.35-.6-.7-1.19-1-1.79A.14.14,0,0,0,4.91,9,2.68,2.68,0,0,1,2.41,8.51Z"/><path class="cls-1" d="M8.26,10.77a2.61,2.61,0,0,1-.87-2.42l4.09,2.44c-.23.12-.42.24-.62.32a2.54,2.54,0,0,1-1.78.09c-.09,0-.12,0-.15.06-.35.61-.7,1.2-1.06,1.8a.41.41,0,0,1-.44.24.41.41,0,0,1-.29-.63c.28-.47.55-.94.83-1.4C8.07,11.1,8.17,10.94,8.26,10.77Z"/><path class="cls-1" d="M8.14,2.92c0-.6,0-1.18,0-1.76A.43.43,0,0,1,8.81.77c.34.2.7.38,1,.57a.39.39,0,0,1,.19.48.4.4,0,0,1-.43.28A.74.74,0,0,1,9.41,2L9,1.79V4.06A1.23,1.23,0,1,1,8,2.88Z"/><path class="cls-1" d="M12.64,9,8.48,6.48A2.63,2.63,0,0,1,11.21,6,2.55,2.55,0,0,1,12.64,9Z"/><path class="cls-1" d="M5.5,4.29,1.38,6.77a2.57,2.57,0,0,1,.9-2.6A2.61,2.61,0,0,1,5.5,4.29Z"/><path class="cls-1" d="M7.62,7.54l.27-.46,4.48,2.67-.29.46Z"/><path class="cls-1" d="M6.09,4.88l.21.34L1.84,7.9l-.21-.34Z"/></svg>