<svg width="35" height="35" viewBox="0 0 35 35" fill="none" xmlns="http://www.w3.org/2000/svg">
<path d="M25.3707 27.9969C26.116 27.9969 26.7922 27.9969 27.5299 27.9969C27.5299 28.1277 27.5299 28.2508 27.5299 28.374C27.5299 29.7438 27.5299 31.1213 27.5299 32.4912C27.5299 33.8995 26.4618 34.9923 25.0633 34.9923C19.2006 35 13.3301 35 7.46729 35C5.81526 35 4.16323 35.0076 2.5112 34.9923C1.02822 34.9769 0.0139453 33.9456 0.00626142 32.4604C-0.00142245 25.996 0.00626142 19.5316 0.00626142 13.0673C0.00626142 9.6196 0.00626142 6.16424 -0.00142245 2.71657C-0.00910631 1.05431 1.02822 0.00769568 2.69561 0.00769568C9.99529 0.00769568 17.295 0.00769568 24.5946 0C25.2554 0 25.9009 0.0538698 26.4618 0.454045C27.1149 0.923482 27.5068 1.56222 27.5222 2.36257C27.5529 3.96327 27.5299 5.57167 27.5299 7.17237C27.5299 7.21855 27.5222 7.27242 27.5068 7.34937C26.8153 7.34937 26.1314 7.34937 25.3707 7.34937C25.3707 7.19546 25.3707 7.03385 25.3707 6.87994C25.3707 5.51011 25.3707 4.13258 25.3707 2.76275C25.3707 2.23944 25.3092 2.19327 24.7944 2.19327C17.4179 2.19327 10.0414 2.19327 2.66488 2.19327C2.21153 2.19327 2.16543 2.24714 2.16543 2.70888C2.16543 12.5747 2.16543 22.4329 2.16543 32.2988C2.16543 32.8067 2.21153 32.8529 2.71098 32.8529C10.0491 32.8529 17.3872 32.8529 24.7253 32.8529C25.3323 32.8529 25.3707 32.8067 25.3707 32.191C25.3707 30.9443 25.3707 29.7053 25.3707 28.4586C25.3707 28.3124 25.3707 28.1739 25.3707 27.9969Z" fill="#009EED"/>
<path d="M35.0001 12.8441C34.8618 13.1057 34.7543 13.3982 34.5775 13.629C32.4875 16.3841 30.3821 19.1315 28.2844 21.8788C26.8937 23.7027 25.5106 25.5266 24.0967 27.3351C23.8816 27.6121 23.5665 27.8661 23.2515 28.0123C21.0847 28.9819 18.9024 29.9208 16.7202 30.8674C15.9672 31.1906 15.2296 30.8135 15.1297 30.044C15.1066 29.8516 15.1527 29.6361 15.1988 29.436C15.7367 27.1427 16.2669 24.8494 16.8201 22.5637C16.8816 22.3098 17.0122 22.0558 17.1736 21.8557C20.5622 17.7078 23.9661 13.5675 27.3624 9.4349C27.5622 9.18863 27.785 8.95007 27.9694 8.68841C28.2768 8.23437 28.6917 8.03428 29.2296 7.9958C32.0111 7.8188 34.4623 9.77351 34.9156 12.4901C34.931 12.5901 34.931 12.6979 34.9387 12.7979C34.954 12.8133 34.9771 12.8287 35.0001 12.8441ZM23.313 24.7647C23.3668 24.7185 23.4052 24.7031 23.4282 24.6724C25.5797 21.8557 27.7389 19.0391 29.875 16.2148C29.9595 16.0994 29.9903 15.8762 29.9442 15.73C29.5676 14.5294 28.3382 13.6214 27.0858 13.5906C26.8399 13.5829 26.6939 13.6598 26.5402 13.8522C24.5578 16.2841 22.56 18.7082 20.5698 21.1323C20.347 21.4017 20.1242 21.6787 19.8706 21.9866C21.4842 22.3867 22.6137 23.3102 23.313 24.7647ZM17.7652 27.9815C17.8498 27.9815 17.8882 27.9892 17.9189 27.9815C19.0561 27.489 20.1933 27.0042 21.3229 26.4962C21.4074 26.4578 21.4842 26.25 21.4689 26.1422C21.2844 25.0187 20.1319 24.0644 18.9946 24.049C18.7564 24.049 18.6642 24.1337 18.6181 24.3645C18.5106 24.9032 18.3723 25.4342 18.2416 25.9652C18.0803 26.6348 17.9189 27.3043 17.7652 27.9815ZM31.5501 14.0292C31.8959 13.5752 32.2032 13.1519 32.5336 12.7594C32.695 12.567 32.6796 12.3977 32.5951 12.1976C32.0495 10.9817 31.1121 10.3122 29.7905 10.1737C29.6983 10.166 29.5676 10.1814 29.5139 10.2429C29.1373 10.6739 28.7839 11.1203 28.3843 11.5974C29.7521 12.0437 30.7894 12.8287 31.5501 14.0292Z" fill="#009EED"/>
<path d="M13.5238 15.3221C11.795 15.3221 10.0661 15.3298 8.34491 15.3221C7.57653 15.3221 7.1155 14.8295 7.16928 14.1292C7.22307 13.5444 7.69179 13.1596 8.38333 13.1519C10.2121 13.1519 12.0409 13.1519 13.8696 13.1519C15.4832 13.1519 17.0968 13.1519 18.7028 13.1519C19.3713 13.1519 19.84 13.5213 19.9168 14.0908C20.0013 14.7834 19.5173 15.3144 18.7796 15.3221C17.7269 15.3298 16.6819 15.3298 15.6292 15.3298C14.93 15.3298 14.2308 15.3298 13.5238 15.3221C13.5238 15.3298 13.5238 15.3221 13.5238 15.3221Z" fill="#009EED"/>
<path d="M13.5542 9.60416C11.8023 9.60416 10.0504 9.61185 8.29845 9.60416C7.63764 9.60416 7.19966 9.19629 7.17661 8.59603C7.15356 7.91881 7.61459 7.45707 8.32919 7.44937C10.4499 7.44937 12.5784 7.44937 14.6991 7.44937C16.0822 7.44937 17.4653 7.44937 18.8407 7.44937C19.3786 7.44937 19.832 7.82646 19.9165 8.31129C20.0164 8.84229 19.7244 9.37329 19.2249 9.5349C19.0328 9.59646 18.8254 9.60416 18.6179 9.60416C16.9274 9.60416 15.237 9.60416 13.5542 9.60416Z" fill="#009EED"/>
<path d="M10.7271 19.0775C11.4801 19.0775 12.2331 19.0775 12.9938 19.0775C13.7161 19.0775 14.2232 19.5316 14.2232 20.1626C14.2232 20.7937 13.7161 21.2477 12.9938 21.2477C11.4571 21.2554 9.92028 21.2554 8.39119 21.2477C7.65354 21.2477 7.19251 20.8322 7.17714 20.2011C7.16178 19.547 7.60744 19.0852 8.31435 19.0699C9.11348 19.0699 9.92028 19.0775 10.7271 19.0775Z" fill="#009EED"/>
</svg>
