<svg width="19" height="19" viewBox="0 0 19 19" fill="none" xmlns="http://www.w3.org/2000/svg">
<path d="M13.7735 15.1983C14.1781 15.1983 14.5451 15.1983 14.9456 15.1983C14.9456 15.2693 14.9456 15.3362 14.9456 15.403C14.9456 16.1466 14.9456 16.8944 14.9456 17.6381C14.9456 18.4026 14.3658 18.9958 13.6066 18.9958C10.424 19 7.23712 19 4.05447 19C3.15765 19 2.26084 19.0041 1.36402 18.9958C0.558969 18.9874 0.00836549 18.4276 0.00419425 17.6213C2.30143e-05 14.1121 0.00419425 10.6029 0.00419425 7.09366C0.00419425 5.22207 0.00419425 3.3463 2.30144e-05 1.47471C-0.00414823 0.572339 0.558969 0.00417765 1.46413 0.00417765C5.42681 0.00417765 9.38948 0.00417765 13.3522 0C13.7109 0 14.0613 0.0292436 14.3658 0.246482C14.7203 0.501318 14.9331 0.848064 14.9414 1.28254C14.9581 2.15149 14.9456 3.02462 14.9456 3.89357C14.9456 3.91864 14.9414 3.94788 14.9331 3.98966C14.5577 3.98966 14.1864 3.98966 13.7735 3.98966C13.7735 3.90611 13.7735 3.81838 13.7735 3.73482C13.7735 2.9912 13.7735 2.2434 13.7735 1.49978C13.7735 1.2157 13.7401 1.19063 13.4606 1.19063C9.45622 1.19063 5.45183 1.19063 1.44744 1.19063C1.20134 1.19063 1.17631 1.21988 1.17631 1.47053C1.17631 6.82629 1.17631 12.1779 1.17631 17.5336C1.17631 17.8093 1.20134 17.8344 1.47247 17.8344C5.456 17.8344 9.43954 17.8344 13.4231 17.8344C13.7526 17.8344 13.7735 17.8093 13.7735 17.4751C13.7735 16.7983 13.7735 16.1257 13.7735 15.449C13.7735 15.3696 13.7735 15.2944 13.7735 15.1983Z" fill="white"/>
<path d="M19.0006 6.97256C18.9255 7.1146 18.8671 7.27335 18.7712 7.39868C17.6366 8.89428 16.4937 10.3857 15.3549 11.8771C14.5999 12.8672 13.8491 13.8573 13.0816 14.8391C12.9648 14.9895 12.7938 15.1274 12.6228 15.2067C11.4465 15.7331 10.2619 16.2428 9.07722 16.7566C8.66844 16.9321 8.268 16.7274 8.21378 16.3096C8.20126 16.2052 8.22629 16.0882 8.25132 15.9796C8.54331 14.7347 8.83112 13.4897 9.13145 12.2489C9.16482 12.1111 9.23573 11.9732 9.32333 11.8646C11.1628 9.61284 13.0107 7.36526 14.8544 5.12186C14.9628 4.98817 15.0838 4.85866 15.1839 4.71662C15.3508 4.47014 15.576 4.36152 15.868 4.34063C17.378 4.24455 18.7086 5.30567 18.9547 6.78039C18.9631 6.8347 18.9631 6.89318 18.9672 6.94749C18.9756 6.95585 18.9881 6.9642 19.0006 6.97256ZM12.6561 13.4438C12.6853 13.4187 12.7062 13.4103 12.7187 13.3936C13.8867 11.8646 15.0588 10.3356 16.2184 8.80237C16.2643 8.73971 16.281 8.61856 16.2559 8.53918C16.0515 7.88747 15.3841 7.3945 14.7042 7.37779C14.5707 7.37361 14.4915 7.41539 14.4081 7.51983C13.3319 8.83997 12.2474 10.1559 11.167 11.4719C11.0461 11.6181 10.9251 11.7685 10.7874 11.9356C11.6634 12.1529 12.2766 12.6542 12.6561 13.4438ZM9.64451 15.19C9.6904 15.19 9.71125 15.1942 9.72794 15.19C10.3453 14.9226 10.9626 14.6595 11.5758 14.3837C11.6217 14.3628 11.6634 14.25 11.6551 14.1916C11.5549 13.5816 10.9293 13.0636 10.3119 13.0552C10.1826 13.0552 10.1325 13.1012 10.1075 13.2265C10.0491 13.519 9.97404 13.8072 9.90313 14.0955C9.81553 14.4589 9.72794 14.8224 9.64451 15.19ZM17.1277 7.61592C17.3154 7.36944 17.4823 7.13967 17.6616 6.9266C17.7492 6.82216 17.7409 6.73025 17.695 6.62164C17.3988 5.96156 16.89 5.59811 16.1725 5.52291C16.1224 5.51873 16.0515 5.52709 16.0223 5.56051C15.8179 5.79446 15.6261 6.03676 15.4092 6.29578C16.1516 6.53808 16.7148 6.9642 17.1277 7.61592Z" fill="white"/>
<path d="M7.34206 8.31775C6.40353 8.31775 5.465 8.32193 4.53064 8.31775C4.11352 8.31775 3.86324 8.05038 3.89244 7.67021C3.92164 7.35271 4.17609 7.14383 4.5515 7.13965C5.54425 7.13965 6.53701 7.13965 7.52976 7.13965C8.40572 7.13965 9.28168 7.13965 10.1535 7.13965C10.5164 7.13965 10.7708 7.34018 10.8125 7.64932C10.8584 8.02531 10.5956 8.31357 10.1952 8.31775C9.62372 8.32193 9.05644 8.32193 8.48498 8.32193C8.10539 8.32193 7.72581 8.32193 7.34206 8.31775C7.34206 8.31775 7.34206 8.32193 7.34206 8.31775Z" fill="white"/>
<path d="M7.35858 5.21369C6.40754 5.21369 5.45649 5.21786 4.50545 5.21369C4.14672 5.21369 3.90896 4.99227 3.89644 4.66641C3.88393 4.29878 4.13421 4.04812 4.52213 4.04395C5.6734 4.04395 6.82883 4.04395 7.9801 4.04395C8.73092 4.04395 9.48175 4.04395 10.2284 4.04395C10.5204 4.04395 10.7665 4.24865 10.8124 4.51184C10.8666 4.8001 10.7081 5.08836 10.437 5.17609C10.3327 5.20951 10.2201 5.21369 10.1074 5.21369C9.18976 5.21369 8.27208 5.21369 7.35858 5.21369Z" fill="white"/>
<path d="M5.82381 10.3564C6.23259 10.3564 6.64137 10.3564 7.05432 10.3564C7.44642 10.3564 7.72172 10.6028 7.72172 10.9454C7.72172 11.288 7.44642 11.5345 7.05432 11.5345C6.22007 11.5386 5.38583 11.5386 4.55575 11.5345C4.15531 11.5345 3.90504 11.3089 3.89669 10.9663C3.88835 10.6112 4.13028 10.3605 4.51404 10.3522C4.94785 10.3522 5.38583 10.3564 5.82381 10.3564Z" fill="white"/>
</svg>
