<svg width="20" height="19" viewBox="0 0 20 19" fill="none" xmlns="http://www.w3.org/2000/svg">
<path d="M13.7754 15.1983C14.18 15.1983 14.5471 15.1983 14.9475 15.1983C14.9475 15.2693 14.9475 15.3362 14.9475 15.403C14.9475 16.1466 14.9475 16.8944 14.9475 17.6381C14.9475 18.4026 14.3677 18.9958 13.6086 18.9958C10.4259 19 7.23908 19 4.05642 19C3.1596 19 2.26279 19.0041 1.36597 18.9958C0.560922 18.9874 0.0103186 18.4276 0.00614738 17.6213C0.00197614 14.1121 0.00614738 10.6029 0.00614738 7.09366C0.00614738 5.22207 0.00614738 3.3463 0.00197614 1.47471C-0.0021951 0.572339 0.560922 0.00417765 1.46608 0.00417765C5.42876 0.00417765 9.39144 0.00417765 13.3541 0C13.7128 0 14.0632 0.0292436 14.3677 0.246482C14.7223 0.501318 14.935 0.848064 14.9434 1.28254C14.96 2.15149 14.9475 3.02462 14.9475 3.89357C14.9475 3.91864 14.9434 3.94788 14.935 3.98966C14.5596 3.98966 14.1884 3.98966 13.7754 3.98966C13.7754 3.90611 13.7754 3.81838 13.7754 3.73482C13.7754 2.9912 13.7754 2.2434 13.7754 1.49978C13.7754 1.2157 13.742 1.19063 13.4626 1.19063C9.45818 1.19063 5.45379 1.19063 1.4494 1.19063C1.20329 1.19063 1.17827 1.21988 1.17827 1.47053C1.17827 6.82629 1.17827 12.1779 1.17827 17.5336C1.17827 17.8093 1.20329 17.8344 1.47442 17.8344C5.45796 17.8344 9.44149 17.8344 13.425 17.8344C13.7546 17.8344 13.7754 17.8093 13.7754 17.4751C13.7754 16.7983 13.7754 16.1257 13.7754 15.449C13.7754 15.3696 13.7754 15.2944 13.7754 15.1983Z" fill="black"/>
<path d="M19.0026 6.97256C18.9275 7.1146 18.8691 7.27335 18.7731 7.39868C17.6386 8.89428 16.4956 10.3857 15.3569 11.8771C14.6019 12.8672 13.8511 13.8573 13.0836 14.8391C12.9668 14.9895 12.7958 15.1274 12.6247 15.2067C11.4484 15.7331 10.2638 16.2428 9.07918 16.7566C8.6704 16.9321 8.26996 16.7274 8.21573 16.3096C8.20322 16.2052 8.22824 16.0882 8.25327 15.9796C8.54526 14.7347 8.83307 13.4897 9.1334 12.2489C9.16677 12.1111 9.23768 11.9732 9.32528 11.8646C11.1648 9.61284 13.0127 7.36526 14.8563 5.12186C14.9648 4.98817 15.0858 4.85866 15.1859 4.71662C15.3527 4.47014 15.578 4.36152 15.87 4.34063C17.3799 4.24455 18.7106 5.30567 18.9567 6.78039C18.965 6.8347 18.965 6.89318 18.9692 6.94749C18.9775 6.95585 18.99 6.9642 19.0026 6.97256ZM12.6581 13.4438C12.6873 13.4187 12.7082 13.4103 12.7207 13.3936C13.8886 11.8646 15.0607 10.3356 16.2203 8.80237C16.2662 8.73971 16.2829 8.61856 16.2579 8.53918C16.0535 7.88747 15.3861 7.3945 14.7062 7.37779C14.5727 7.37361 14.4934 7.41539 14.41 7.51983C13.3338 8.83997 12.2493 10.1559 11.169 11.4719C11.048 11.6181 10.927 11.7685 10.7894 11.9356C11.6653 12.1529 12.2785 12.6542 12.6581 13.4438ZM9.64647 15.19C9.69235 15.19 9.71321 15.1942 9.72989 15.19C10.3472 14.9226 10.9646 14.6595 11.5778 14.3837C11.6236 14.3628 11.6653 14.25 11.657 14.1916C11.5569 13.5816 10.9312 13.0636 10.3139 13.0552C10.1846 13.0552 10.1345 13.1012 10.1095 13.2265C10.0511 13.519 9.97599 13.8072 9.90508 14.0955C9.81749 14.4589 9.72989 14.8224 9.64647 15.19ZM17.1297 7.61592C17.3174 7.36944 17.4842 7.13967 17.6636 6.9266C17.7512 6.82216 17.7428 6.73025 17.697 6.62164C17.4008 5.96156 16.8919 5.59811 16.1745 5.52291C16.1244 5.51873 16.0535 5.52709 16.0243 5.56051C15.8199 5.79446 15.628 6.03676 15.4111 6.29578C16.1536 6.53808 16.7167 6.9642 17.1297 7.61592Z" fill="black"/>
<path d="M7.34401 8.31775C6.40548 8.31775 5.46695 8.32193 4.53259 8.31775C4.11547 8.31775 3.8652 8.05038 3.89439 7.67021C3.92359 7.35271 4.17804 7.14383 4.55345 7.13965C5.54621 7.13965 6.53896 7.13965 7.53172 7.13965C8.40768 7.13965 9.28364 7.13965 10.1554 7.13965C10.5183 7.13965 10.7728 7.34018 10.8145 7.64932C10.8604 8.02531 10.5976 8.31357 10.1971 8.31775C9.62568 8.32193 9.05839 8.32193 8.48693 8.32193C8.10735 8.32193 7.72776 8.32193 7.34401 8.31775C7.34401 8.31775 7.34401 8.32193 7.34401 8.31775Z" fill="black"/>
<path d="M7.36053 5.21369C6.40949 5.21369 5.45844 5.21786 4.5074 5.21369C4.14867 5.21369 3.91091 4.99227 3.8984 4.66641C3.88588 4.29878 4.13616 4.04812 4.52409 4.04395C5.67535 4.04395 6.83079 4.04395 7.98205 4.04395C8.73288 4.04395 9.4837 4.04395 10.2304 4.04395C10.5223 4.04395 10.7684 4.24865 10.8143 4.51184C10.8686 4.8001 10.71 5.08836 10.4389 5.17609C10.3346 5.20951 10.222 5.21369 10.1094 5.21369C9.19171 5.21369 8.27404 5.21369 7.36053 5.21369Z" fill="black"/>
<path d="M5.82576 10.3564C6.23454 10.3564 6.64332 10.3564 7.05628 10.3564C7.44837 10.3564 7.72367 10.6028 7.72367 10.9454C7.72367 11.288 7.44837 11.5345 7.05628 11.5345C6.22203 11.5386 5.38778 11.5386 4.5577 11.5345C4.15726 11.5345 3.90699 11.3089 3.89865 10.9663C3.8903 10.6112 4.13224 10.3605 4.51599 10.3522C4.9498 10.3522 5.38778 10.3564 5.82576 10.3564Z" fill="black"/>
</svg>
