<svg width="32" height="32" viewBox="0 0 32 32" fill="none" xmlns="http://www.w3.org/2000/svg">
<g clip-path="url(#clip0)">
<path opacity="0.3" d="M16.0387 32.0775C24.8967 32.0775 32.0775 24.8967 32.0775 16.0387C32.0775 7.18079 24.8967 0 16.0387 0C7.18079 0 0 7.18079 0 16.0387C0 24.8967 7.18079 32.0775 16.0387 32.0775Z" fill="#3598D4"/>
<path d="M16.0387 29.908C23.6985 29.908 29.9079 23.6985 29.9079 16.0387C29.9079 8.37897 23.6985 2.16949 16.0387 2.16949C8.37891 2.16949 2.16943 8.37897 2.16943 16.0387C2.16943 23.6985 8.37891 29.908 16.0387 29.908Z" fill="#009EED"/>
<path d="M16.7362 22.0823C16.7362 22.7022 16.7362 23.3995 16.7362 24.0194C16.1938 24.0194 15.6514 24.0194 15.109 24.0194C15.109 23.3995 15.109 22.7797 15.109 22.1598C14.5667 22.0823 14.0243 22.0048 13.5594 21.8499C13.0945 21.6949 12.6296 21.5399 12.1647 21.3075C12.0872 21.3075 12.0098 21.1525 12.0098 21.0751C12.1647 20.5327 12.3197 19.9128 12.4747 19.3705C12.9395 19.5254 13.327 19.7579 13.7918 19.9128C14.6441 20.2228 15.4964 20.3002 16.3487 20.1453C17.201 19.9128 17.5885 19.3705 17.5885 18.6731C17.5885 18.2082 17.356 17.8208 17.0461 17.5884C16.5812 17.201 15.9613 16.9685 15.419 16.7361C14.7991 16.4261 14.1018 16.1937 13.5594 15.8063C11.3899 14.4891 11.6998 11.5448 13.7144 10.46C14.1018 10.2276 14.5667 10.0726 15.0316 9.99515C15.1865 9.91767 15.264 9.84019 15.264 9.68522C15.264 9.14285 15.264 8.60048 15.264 8.05811C15.8064 8.05811 16.3487 8.05811 16.8911 8.05811C16.8911 8.67796 16.8911 9.22033 16.8911 9.84019C17.8209 9.91767 18.7507 10.0726 19.603 10.46C19.448 11.0799 19.2931 11.6223 19.0606 12.2421C18.5182 12.0872 17.9759 11.8547 17.4335 11.7772C16.8136 11.6223 16.1938 11.6223 15.6514 11.7772C15.0316 11.9322 14.6441 12.2421 14.4892 12.862C14.4117 13.3269 14.5667 13.7143 14.8766 13.9467C15.3415 14.2567 15.8064 14.4891 16.2713 14.7215C16.9686 15.0315 17.6659 15.3414 18.3633 15.7288C19.5255 16.4261 20.1454 17.4334 19.9904 18.8281C19.9129 20.3002 19.0606 21.23 17.7434 21.7724C17.511 21.8499 17.1236 21.9274 16.7362 22.0823Z" fill="white"/>
<g clip-path="url(#clip1)">
<path d="M16.0387 32.0775C24.8967 32.0775 32.0775 24.8967 32.0775 16.0387C32.0775 7.18079 24.8967 0 16.0387 0C7.18079 0 0 7.18079 0 16.0387C0 24.8967 7.18079 32.0775 16.0387 32.0775Z" fill="#FCD30E"/>
<path d="M16.0387 29.908C23.6985 29.908 29.9079 23.6985 29.9079 16.0387C29.9079 8.37894 23.6985 2.16946 16.0387 2.16946C8.37891 2.16946 2.16943 8.37894 2.16943 16.0387C2.16943 23.6985 8.37891 29.908 16.0387 29.908Z" fill="#F5BE1D"/>
<path d="M16.7362 22.0823C16.7362 22.7022 16.7362 23.3995 16.7362 24.0194C16.1938 24.0194 15.6514 24.0194 15.109 24.0194C15.109 23.3995 15.109 22.7797 15.109 22.1598C14.5667 22.0823 14.0243 22.0048 13.5594 21.8499C13.0945 21.6949 12.6296 21.5399 12.1647 21.3075C12.0872 21.3075 12.0098 21.1525 12.0098 21.0751C12.1647 20.5327 12.3197 19.9128 12.4747 19.3705C12.9395 19.5254 13.327 19.7579 13.7918 19.9128C14.6441 20.2228 15.4964 20.3002 16.3488 20.1453C17.2011 19.9128 17.5885 19.3705 17.5885 18.6731C17.5885 18.2082 17.356 17.8208 17.0461 17.5884C16.5812 17.201 15.9613 16.9685 15.419 16.7361C14.7991 16.4261 14.1018 16.1937 13.5594 15.8063C11.3899 14.4891 11.6998 11.5448 13.7144 10.46C14.1018 10.2276 14.5667 10.0726 15.0316 9.99515C15.1865 9.91767 15.264 9.84019 15.264 9.68522C15.264 9.14285 15.264 8.60048 15.264 8.05811C15.8064 8.05811 16.3487 8.05811 16.8911 8.05811C16.8911 8.67796 16.8911 9.22033 16.8911 9.84019C17.8209 9.91767 18.7507 10.0726 19.603 10.46C19.448 11.0799 19.2931 11.6223 19.0606 12.2421C18.5182 12.0872 17.9759 11.8547 17.4335 11.7772C16.8136 11.6223 16.1938 11.6223 15.6514 11.7772C15.0316 11.9322 14.6441 12.2421 14.4892 12.862C14.4117 13.3269 14.5667 13.7143 14.8766 13.9467C15.3415 14.2567 15.8064 14.4891 16.2713 14.7215C16.9686 15.0315 17.6659 15.3414 18.3633 15.7288C19.5255 16.4261 20.1454 17.4334 19.9904 18.8281C19.9129 20.3002 19.0606 21.23 17.7434 21.7724C17.511 21.8499 17.1236 21.9274 16.7362 22.0823Z" fill="white"/>
</g>
</g>
<defs>
<clipPath id="clip0">
<rect width="32" height="32" fill="white"/>
</clipPath>
<clipPath id="clip1">
<rect width="32" height="32" fill="white"/>
</clipPath>
</defs>
</svg>
