<svg width="57" height="45" viewBox="0 0 57 45" fill="none" xmlns="http://www.w3.org/2000/svg">
<path d="M46.5538 0C46.9398 0 47.3032 0 47.6892 0C48.5522 0.492537 49.0291 1.18657 49.1653 2.19403C49.3697 3.76119 49.7331 5.30597 50.0283 6.87313C51.5952 7.1194 53.0713 7.41045 54.5474 7.54478C55.8191 7.65672 56.6594 8.17164 57 9.40299C57 9.5597 57 9.69403 57 9.85075C56.9319 10.0299 56.841 10.1866 56.8183 10.3657C56.1371 15.1119 55.4104 19.8582 54.7972 24.6269C54.502 26.8881 53.7753 29.1493 54.4793 31.4552C54.7291 32.2612 54.8199 33.1343 54.9562 33.9851C55.0924 34.8358 55.0697 35.8657 54.2068 36.1567C52.9578 36.5597 52.9351 37.4104 52.8215 38.3731C52.7534 39.0672 52.6171 39.7836 52.5036 40.4776C52.2311 41.9328 51.4135 42.5149 49.9375 42.291C46.1223 41.7313 42.3299 41.1269 38.5147 40.5896C36.9251 40.3657 35.2673 40.0299 33.7004 40.2761C28.2729 41.1269 22.8681 42.2015 17.4633 43.2313C14.4203 43.791 11.4 44.4179 8.37968 45C8.08446 45 7.76653 45 7.47132 45C6.58566 44.597 6.08606 43.9478 5.92709 42.9627C4.49641 34.9254 3.04303 26.8657 1.56693 18.8284C1.09004 16.1194 0.522311 13.4328 0 10.7463C0 10.5224 0 10.2985 0 10.0746C0.386056 8.97761 1.22629 8.48507 2.36175 8.30597C4.56454 7.94776 6.74462 7.5 8.9247 7.14179C9.71952 7.00746 10.0829 6.67164 10.151 5.86567C10.1964 5.0597 10.3554 4.25373 10.4689 3.42537C10.6733 1.99254 11.4908 1.29851 12.9442 1.5C16.4869 1.99254 20.0295 2.55224 23.5721 3.02239C25.457 3.26866 27.3191 3.78358 29.2948 3.35821C32.1562 2.70896 35.063 2.28358 37.947 1.72388C40.8084 1.16418 43.6924 0.58209 46.5538 0ZM14.0797 5.6194C12.7853 14.597 11.5363 23.4851 10.2418 32.5075C23.1633 34.3881 36.0167 36.2687 48.9382 38.1493C50.2327 29.0821 51.4817 20.194 52.7534 11.2836C39.7865 9.35821 27.0239 7.5 14.0797 5.6194ZM4.29203 11.9776C5.17769 16.8806 6.06335 21.6716 6.92629 26.4627C7.01713 26.4627 7.08526 26.4403 7.1761 26.4403C7.90279 21.3358 8.62948 16.2537 9.35618 11.0373C7.60757 11.3507 6.04064 11.6418 4.29203 11.9776ZM9.53785 40.7239C13.739 39.9403 17.804 39.1791 21.8689 38.4179C21.8689 38.3284 21.8689 38.2612 21.8689 38.1716C17.5315 37.5448 13.2167 36.9179 8.74303 36.2463C9.01554 37.8358 9.26534 39.2463 9.53785 40.7239ZM45.5546 4.27612C43.7606 4.61194 42.0801 4.92537 40.4223 5.23881C40.4223 5.30597 40.4223 5.39552 40.4223 5.46269C42.2163 5.73134 44.0104 5.97761 45.9406 6.26866C45.7817 5.55224 45.6908 4.97015 45.5546 4.27612Z" fill="#009EED"/>
<path d="M44.3278 22.2985C45.1226 26.6642 45.8948 30.8283 46.6669 35.194C35.494 33.5597 24.48 31.9701 13.4434 30.3582C14.0338 27.8507 16.6681 25.9477 19.6657 25.7462C22.0047 25.5895 24.2756 25.8358 26.4784 26.6194C27.3414 26.9328 27.8637 26.8209 28.4768 26.0821C30.9975 23.0597 33.5864 20.1045 36.2434 17.0373C37.7649 20.0373 39.2183 22.9701 40.7625 26.0149C41.9206 24.7836 43.0334 23.6418 44.3278 22.2985Z" fill="#009EED"/>
<path d="M22.8225 12.0224C24.9344 12.0448 26.5922 13.7463 26.5468 15.8507C26.5013 17.9104 24.8436 19.5448 22.7997 19.5672C20.6878 19.5672 19.0527 17.9104 19.0527 15.7836C19.0527 13.6343 20.6878 12 22.8225 12.0224Z" fill="#009EED"/>
</svg>
