<svg width="12" height="12" viewBox="0 0 12 12" fill="none" xmlns="http://www.w3.org/2000/svg">
<path d="M9.33741 11.9937L2.67426 12C1.20836 12.0013 0.00799691 10.8033 0.00633112 9.3374L1.11068e-06 2.67426C-0.00133152 1.20836 1.1967 0.00799691 2.6626 0.00633112L9.32574 1.11068e-06C10.7916 -0.00133152 11.992 1.1967 11.9937 2.6626L12 9.32574C12.0017 10.792 10.8033 11.9923 9.33741 11.9937Z" fill="url(#paint0_radial)"/>
<path d="M9.33741 11.9937L2.67426 12C1.20836 12.0013 0.00799691 10.8033 0.00633112 9.3374L1.11068e-06 2.67426C-0.00133152 1.20836 1.1967 0.00799691 2.6626 0.00633112L9.32574 1.11068e-06C10.7916 -0.00133152 11.992 1.1967 11.9937 2.6626L12 9.32574C12.0017 10.792 10.8033 11.9923 9.33741 11.9937Z" fill="url(#paint1_radial)"/>
<path d="M6.00007 8.33217C4.71442 8.33217 3.66797 7.28606 3.66797 6.00007C3.66797 4.71408 4.71442 3.66797 6.00007 3.66797C7.28572 3.66797 8.33217 4.71408 8.33217 6.00007C8.33217 7.28606 7.28572 8.33217 6.00007 8.33217ZM6.00007 4.33428C5.08156 4.33428 4.33428 5.08156 4.33428 6.00007C4.33428 6.91859 5.08156 7.66586 6.00007 7.66586C6.91859 7.66586 7.66586 6.91859 7.66586 6.00007C7.66586 5.08156 6.91859 4.33428 6.00007 4.33428Z" fill="white"/>
<path d="M8.49974 4.00104C8.77573 4.00104 8.99947 3.7773 8.99947 3.50131C8.99947 3.22531 8.77573 3.00157 8.49974 3.00157C8.22374 3.00157 8 3.22531 8 3.50131C8 3.7773 8.22374 4.00104 8.49974 4.00104Z" fill="white"/>
<path d="M7.99991 10.3311H4.00202C2.71637 10.3311 1.66992 9.285 1.66992 7.99901V4.00112C1.66992 2.71514 2.71637 1.66902 4.00202 1.66902H7.99991C9.28557 1.66902 10.332 2.71514 10.332 4.00112V7.99901C10.332 9.285 9.28557 10.3311 7.99991 10.3311ZM4.00202 2.33534C3.08351 2.33534 2.33624 3.08261 2.33624 4.00112V7.99901C2.33624 8.91753 3.08351 9.6648 4.00202 9.6648H7.99991C8.91843 9.6648 9.6657 8.91753 9.6657 7.99901V4.00112C9.6657 3.08261 8.91843 2.33534 7.99991 2.33534H4.00202Z" fill="white"/>
<defs>
<radialGradient id="paint0_radial" cx="0" cy="0" r="1" gradientUnits="userSpaceOnUse" gradientTransform="translate(4.46098 12.0087) scale(14.9584)">
<stop stop-color="#FFDD55"/>
<stop offset="0.328" stop-color="#FF543F"/>
<stop offset="0.348" stop-color="#FC5245"/>
<stop offset="0.504" stop-color="#E64771"/>
<stop offset="0.643" stop-color="#D53E91"/>
<stop offset="0.761" stop-color="#CC39A4"/>
<stop offset="0.841" stop-color="#C837AB"/>
</radialGradient>
<radialGradient id="paint1_radial" cx="0" cy="0" r="1" gradientUnits="userSpaceOnUse" gradientTransform="translate(1.93098 -0.149819) scale(9.93242 6.61797)">
<stop stop-color="#4168C9"/>
<stop offset="0.999" stop-color="#4168C9" stop-opacity="0"/>
</radialGradient>
</defs>
</svg>
