<svg id="Layer_1" data-name="Layer 1" xmlns="http://www.w3.org/2000/svg" xmlns:xlink="http://www.w3.org/1999/xlink" viewBox="0 0 14 14"><defs><style>.cls-1{fill:url(#radial-gradient);}.cls-2{fill:url(#radial-gradient-2);}.cls-3{fill:#fff;}</style><radialGradient id="radial-gradient" cx="-14.75" cy="-49.67" r="0.4" gradientTransform="matrix(37.4, 0, 0, -37.4, 557.09, -1844.59)" gradientUnits="userSpaceOnUse"><stop offset="0" stop-color="#fd5"/><stop offset="0.33" stop-color="#ff543f"/><stop offset="0.35" stop-color="#fc5245"/><stop offset="0.5" stop-color="#e64771"/><stop offset="0.64" stop-color="#d53e91"/><stop offset="0.76" stop-color="#cc39a4"/><stop offset="0.84" stop-color="#c837ab"/></radialGradient><radialGradient id="radial-gradient-2" cx="-14.47" cy="-52.31" r="0.4" gradientTransform="matrix(24.83, 0, 0, -16.54, 362.29, -864.57)" gradientUnits="userSpaceOnUse"><stop offset="0" stop-color="#4168c9"/><stop offset="1" stop-color="#4168c9" stop-opacity="0"/></radialGradient></defs><title>insta</title><path class="cls-1" d="M10.31,13H3.7a2.65,2.65,0,0,1-2.65-2.65V3.7A2.65,2.65,0,0,1,3.69,1.05H10.3A2.65,2.65,0,0,1,13,3.69V10.3A2.65,2.65,0,0,1,10.31,13Z"/><path class="cls-2" d="M10.31,13H3.7a2.65,2.65,0,0,1-2.65-2.65V3.7A2.65,2.65,0,0,1,3.69,1.05H10.3A2.65,2.65,0,0,1,13,3.69V10.3A2.65,2.65,0,0,1,10.31,13Z"/><path class="cls-3" d="M7,9.32A2.32,2.32,0,1,1,9.32,7,2.32,2.32,0,0,1,7,9.32Zm0-4A1.65,1.65,0,1,0,8.65,7,1.65,1.65,0,0,0,7,5.35Z"/><path class="cls-3" d="M9.48,5a.5.5,0,0,0,.5-.5.5.5,0,1,0-.5.5Z"/><path class="cls-3" d="M9,11.3H5A2.32,2.32,0,0,1,2.7,9V5A2.32,2.32,0,0,1,5,2.7H9A2.32,2.32,0,0,1,11.3,5V9A2.32,2.32,0,0,1,9,11.3ZM5,3.36A1.65,1.65,0,0,0,3.36,5V9A1.65,1.65,0,0,0,5,10.64H9A1.65,1.65,0,0,0,10.64,9V5A1.66,1.66,0,0,0,9,3.36Z"/></svg>