<svg id="Layer_1" data-name="Layer 1" xmlns="http://www.w3.org/2000/svg" xmlns:xlink="http://www.w3.org/1999/xlink" viewBox="0 0 14 14"><defs><style>.cls-1{fill:url(#linear-gradient);}.cls-2{fill:#fff;}</style><linearGradient id="linear-gradient" x1="7" y1="-45.09" x2="7" y2="-57.41" gradientTransform="matrix(1, 0, 0, -1, 0, -44.25)" gradientUnits="userSpaceOnUse"><stop offset="0" stop-color="#6bceff"/><stop offset="1" stop-color="#009eed"/></linearGradient></defs><title>location</title><path class="cls-1" d="M11.38,4.31A4.51,4.51,0,0,0,5.68,1,4.55,4.55,0,0,0,2.5,5.34c0,.17,0,.33,0,.49a6.23,6.23,0,0,0,.65,1.92,19.15,19.15,0,0,0,1.73,2.71l2,2.63c.08.1.14.09.2,0l.18-.24c.73-1,1.48-1.95,2.2-2.93a14.67,14.67,0,0,0,1.6-2.73A4.34,4.34,0,0,0,11.38,4.31Z"/><circle class="cls-2" cx="7" cy="4.87" r="2.61"/></svg>