<svg id="Layer_1" data-name="Layer 1" xmlns="http://www.w3.org/2000/svg" viewBox="0 0 14 14"><defs><style>.cls-1{fill:#1dabf2;}</style></defs><title>male</title><path class="cls-1" d="M9.06.75V2.24h1.55L9,3.9A5.34,5.34,0,0,0,5.19,3,5.24,5.24,0,0,0,1.87,4.85,5.07,5.07,0,0,0,.75,8.23a5.27,5.27,0,0,0,1.37,3.36,5.24,5.24,0,0,0,3.23,1.63,5.13,5.13,0,0,0,3.5-.9,5.16,5.16,0,0,0,1.32-7.16l1.64-1.67V4.93h1.44V.75Zm.52,7.36a3.59,3.59,0,0,1-1.05,2.53,3.68,3.68,0,0,1-2.63,1.1h0a3.63,3.63,0,0,1-2.6-1.07A3.78,3.78,0,0,1,2.24,8,3.7,3.7,0,0,1,5.91,4.4h0A3.71,3.71,0,0,1,9.58,8.11Z"/></svg>