<svg width="5" height="20" viewBox="0 0 5 20" fill="none" xmlns="http://www.w3.org/2000/svg">
<g clip-path="url(#clip0)">
<path d="M0 2.23958C0 0.989583 0.989583 0 2.22917 0C3.4375 0 4.41667 1.01042 4.41667 2.22917C4.41667 3.44792 3.41667 4.45833 2.20833 4.45833C1.01042 4.44792 0 3.44792 0 2.23958Z" fill="black"/>
<path d="M4.42708 17.8021C4.41667 19.0209 3.42708 20.0104 2.20833 20.0104C0.989583 19.9896 0 19 0 17.7813C0 16.5417 1.02083 15.5209 2.25 15.5417C3.44792 15.5625 4.42708 16.5729 4.42708 17.8021Z" fill="black"/>
<path d="M2.17708 7.79171C3.4375 7.78129 4.40625 8.72921 4.41667 9.96879C4.42708 11.25 3.45833 12.2084 2.1875 12.2084C0.947917 12.2084 0 11.2396 0 9.97921C0.0104167 8.76046 0.96875 7.80213 2.17708 7.79171Z" fill="black"/>
</g>
<defs>
<clipPath id="clip0">
<rect width="4.42708" height="20" fill="white"/>
</clipPath>
</defs>
</svg>
