<svg width="25" height="25" viewBox="0 0 25 25" fill="none" xmlns="http://www.w3.org/2000/svg">
<g clip-path="url(#clip0)">
<path d="M11.6379 20.4454C9.6247 20.2645 7.80435 19.8185 6.09249 18.9867C4.44091 18.191 2.92194 17.1784 1.88518 15.6594C-0.803158 11.7414 -0.622328 7.76315 2.62056 4.03805C4.58558 1.7837 7.18953 0.710779 10.0708 0.21651C13.9043 -0.434478 17.4727 0.337064 20.6433 2.57936C22.8976 4.18272 24.2358 6.48528 24.718 9.18568C25.1037 11.4039 24.3563 13.4292 23.1267 15.2736C22.1622 16.7203 20.8603 17.8052 19.3534 18.6612C19.1484 18.7697 18.9314 18.9264 18.8229 19.1193C17.1955 22.0126 14.6156 23.5074 11.4812 24.1705C10.8785 24.3031 10.2516 24.3392 9.63676 24.3995C9.19071 24.4477 8.76878 24.2669 8.7085 23.8329C8.67233 23.5195 8.85316 23.0855 9.08221 22.8564C9.80553 22.1331 10.5891 21.4821 11.3486 20.807C11.433 20.7106 11.5053 20.6141 11.6379 20.4454ZM12.2648 22.2175C14.0731 21.7594 15.6403 20.9276 16.7856 19.4568C16.9785 19.2037 17.1593 18.9264 17.2678 18.6371C17.5209 17.9981 17.9549 17.6124 18.5698 17.2989C23.1628 14.8999 25.3328 8.72758 20.3781 4.43588C16.1949 0.819277 9.20277 0.614336 4.86285 4.03805C2.2589 6.0754 1.1257 8.72758 1.88518 11.9946C2.42767 14.3574 4.00692 16.009 6.06838 17.1904C8.11779 18.3598 10.336 18.8902 12.6868 18.9023C13.8561 18.9023 14.1575 19.4689 13.5547 20.4936C13.3498 20.8311 13.0846 21.1446 12.8435 21.4701C12.6626 21.7112 12.4577 21.9643 12.2648 22.2175Z" fill="#009EED"/>
<path d="M12.2769 12.0553C13.9888 12.0553 15.6886 12.0553 17.4004 12.0553C17.7018 12.0553 18.0393 12.0192 18.2925 12.1397C18.5336 12.2603 18.835 12.5496 18.847 12.7786C18.8591 13.0197 18.6301 13.3814 18.401 13.502C18.1237 13.6587 17.75 13.6707 17.4125 13.6707C14.0972 13.6828 10.782 13.6948 7.47887 13.6828C7.16543 13.6828 6.83994 13.6346 6.5265 13.5622C6.10456 13.4778 5.92373 13.1765 5.97196 12.7666C6.02018 12.3688 6.26128 12.1035 6.69528 12.0915C7.84053 12.0794 8.98579 12.0794 10.131 12.0794C10.8544 12.0794 11.5777 12.0794 12.301 12.0794C12.2769 12.0794 12.2769 12.0674 12.2769 12.0553Z" fill="#009EED"/>
<path d="M12.313 8.96921C10.7217 8.96921 9.14245 8.96921 7.55115 8.96921C7.18949 8.96921 6.82783 8.90893 6.47822 8.87277C6.06834 8.8366 5.80313 8.57138 5.85135 8.20972C5.88751 7.98067 6.16479 7.7034 6.39384 7.60696C6.7555 7.46229 7.17743 7.41407 7.57526 7.41407C10.565 7.40202 13.5547 7.40202 16.5565 7.41407C17.1713 7.41407 17.7982 7.4864 18.401 7.61901C18.6059 7.65518 18.8832 7.95656 18.8832 8.14945C18.8952 8.35439 18.6782 8.70399 18.4853 8.76427C18.0152 8.90893 17.5089 8.95715 17.0025 8.96921C15.4474 8.99332 13.8802 8.98126 12.313 8.96921C12.313 8.96921 12.313 8.98126 12.313 8.96921Z" fill="#009EED"/>
</g>
<defs>
<clipPath id="clip0">
<rect width="24.7978" height="24.4" fill="white" transform="translate(0.0166016)"/>
</clipPath>
</defs>
</svg>
