<svg id="Layer_1" data-name="Layer 1" xmlns="http://www.w3.org/2000/svg" xmlns:xlink="http://www.w3.org/1999/xlink" viewBox="0 0 14 14"><defs><style>.cls-1{fill:none;}.cls-2{clip-path:url(#clip-path);}.cls-3{fill:#010101;}</style><clipPath id="clip-path"><rect class="cls-1" x="0.02" y="0.02" width="13.96" height="13.96"/></clipPath></defs><title>Messege</title><g class="cls-2"><path class="cls-3" d="M6.5,14H2.66A2.58,2.58,0,0,1,0,11.32V3.64A2.63,2.63,0,0,1,2.73.88c.76,0,1.53,0,2.29,0a.93.93,0,0,1,1,.88.92.92,0,0,1-1,.88c-.78,0-1.55,0-2.33,0a.87.87,0,0,0-1,1c0,2.57,0,5.14,0,7.72a.88.88,0,0,0,1,.94h7.67a.9.9,0,0,0,1-1c0-.81,0-1.63,0-2.44a.88.88,0,0,1,.87-1,.86.86,0,0,1,.86.94c0,.91,0,1.81,0,2.72A2.54,2.54,0,0,1,10.47,14Z"/><path class="cls-3" d="M14,1.37a1.47,1.47,0,0,1-.47,1.17C11.62,4.4,9.74,6.26,7.84,8.11a2.88,2.88,0,0,1-.76.45c-.63.29-1.27.59-1.91.83a.73.73,0,0,1-.62,0,.67.67,0,0,1,0-.62c.31-.76.66-1.51,1-2.26a1.61,1.61,0,0,1,.29-.41C7.69,4.21,9.57,2.35,11.47.49a1.44,1.44,0,0,1,2.46.6A1.08,1.08,0,0,1,14,1.37Z"/></g></svg>