<svg width="18" height="25" viewBox="0 0 18 25" fill="none" xmlns="http://www.w3.org/2000/svg">
<g clip-path="url(#clip0)">
<path d="M6.42132 3.99325C6.3649 3.67651 6.2859 3.38239 6.25205 3.08827C6.0602 1.629 7.1323 0.214972 8.54295 0.022664C10.1116 -0.180956 11.5336 0.882393 11.7141 2.39823C11.906 3.948 10.8677 5.33941 9.36678 5.5204C8.82509 5.58827 8.28339 5.59959 7.7417 5.65615C6.09405 5.85977 5.08966 6.83262 4.93167 8.4842C4.78496 10.0792 4.79625 11.6856 4.57054 13.2693C4.41255 14.3552 4.04013 15.4186 3.60001 16.4254C3.3743 16.9571 2.78747 17.3304 2.40377 17.7942C2.18935 18.043 1.9185 18.3485 1.90722 18.6426C1.88465 19.0611 2.32477 19.1177 2.66333 19.1403C4.95424 19.2534 7.24515 19.4231 9.52477 19.4231C11.4884 19.4231 13.4633 19.2421 15.427 19.1064C15.6527 19.0951 16.0138 18.8575 16.0364 18.6765C16.0702 18.439 15.9009 18.0543 15.6978 17.9299C13.9825 16.9118 13.4295 15.215 13.1586 13.4163C12.9442 12.0249 12.9668 10.5996 12.8088 9.19687C12.7298 8.43895 12.4477 7.70366 12.3461 6.94574C12.2897 6.57244 12.3348 6.13126 12.4928 5.79189C12.5718 5.62221 13.0345 5.49778 13.2715 5.55434C13.5423 5.62221 13.8696 5.8937 13.9486 6.14257C14.2307 6.93443 14.5016 7.74891 14.6031 8.5747C14.7837 10.0453 14.8063 11.5385 14.9643 13.0204C15.032 13.6313 15.2464 14.2308 15.4495 14.8077C15.6752 15.4865 16.1605 15.9616 16.7473 16.3801C18.5191 17.6471 18.3273 20.034 16.3975 20.8371C15.9348 21.0295 15.4157 21.1313 14.9191 21.1313C10.9919 21.1539 7.06458 21.1539 3.13731 21.1426C2.75361 21.1426 2.35863 21.0408 1.97493 20.9503C0.981826 20.7353 0.338566 20.1245 0.0790046 19.1403C-0.180557 18.1788 0.0338635 17.2399 0.835117 16.6969C2.44891 15.5996 2.66333 13.9367 2.84389 12.2399C2.96803 11.0408 2.96803 9.83036 3.0696 8.63126C3.25016 6.51588 4.15299 4.89823 6.22948 4.09506C6.29719 4.09506 6.33104 4.04981 6.42132 3.99325ZM8.96051 1.85524C8.48653 1.84393 8.08026 2.26248 8.09154 2.77153C8.09154 3.28058 8.47524 3.67651 8.97179 3.68782C9.43449 3.69913 9.8859 3.28058 9.90847 2.80547C9.91976 2.34167 9.44578 1.86656 8.96051 1.85524Z" fill="black"/>
<path d="M9.01684 25C7.83189 24.9661 6.86135 24.5701 6.12781 23.6538C5.84568 23.3032 5.49584 22.9412 5.91339 22.4661C6.16167 22.1719 6.94035 22.1154 7.33533 22.3529C7.48204 22.4434 7.59489 22.5566 7.73032 22.6697C8.54286 23.3484 9.38925 23.3145 10.2356 22.6697C10.5403 22.4321 10.9579 22.2851 11.3303 22.2398C11.5786 22.2059 11.9849 22.3869 12.0751 22.5905C12.1767 22.8167 12.109 23.2353 11.951 23.4615C11.2513 24.457 10.2356 24.9661 9.01684 25Z" fill="black"/>
</g>
<defs>
<clipPath id="clip0">
<rect width="18" height="25" fill="white"/>
</clipPath>
</defs>
</svg>
