<svg width="12" height="14" viewBox="0 0 12 14" fill="none" xmlns="http://www.w3.org/2000/svg">
<g opacity="0.3" clip-path="url(#clip0)">
<path d="M6.00395 13.9925C4.60301 13.9925 3.20208 13.9925 1.80115 13.9925C0.664391 13.9925 0.00795402 13.3825 -5.13084e-05 12.3206C-0.00805664 10.724 -5.13084e-05 9.13502 -0.00805664 7.53846C-0.00805664 6.99623 0.168061 6.53685 0.608354 6.16783C0.696413 6.09252 0.736439 5.90425 0.720429 5.77622C0.368194 3.0199 2.36152 0.489511 5.25945 0.0527174C7.78113 -0.323829 10.3428 1.25767 11.0873 3.64497C11.3035 4.35288 11.3915 5.06832 11.2795 5.79882C11.2635 5.92684 11.3435 6.10758 11.4396 6.20549C11.7998 6.54438 11.9999 6.92846 11.9999 7.41044C11.9999 9.06724 12.0079 10.724 11.9999 12.3808C11.9919 13.3749 11.3115 13.9849 10.2548 13.9925C8.83784 14 7.42089 13.9925 6.00395 13.9925ZM9.27012 5.82141C9.60635 4.55621 8.98994 3.10274 7.81315 2.37224C6.63637 1.64174 5.15538 1.6794 4.04264 2.47015C2.93791 3.2383 2.36953 4.71436 2.74578 5.82141C4.92323 5.82141 7.10068 5.82141 9.27012 5.82141ZM5.82783 7.80204C5.35552 7.82464 4.89121 8.10328 4.62703 8.63045C4.35485 9.16514 4.38687 9.74502 4.85118 10.1291C5.26746 10.468 5.26746 10.837 5.25945 11.2587C5.25945 11.3868 5.25145 11.5073 5.26746 11.6353C5.32349 12.0269 5.6277 12.2905 6.01996 12.2754C6.40421 12.2679 6.70842 11.9968 6.74044 11.6052C6.75645 11.3717 6.76445 11.1307 6.74044 10.8897C6.71642 10.6337 6.80448 10.4605 7.02062 10.2797C7.52496 9.88058 7.66105 9.25551 7.42089 8.70576C7.17273 8.14093 6.62036 7.79451 5.82783 7.80204Z" fill="black"/>
</g>
<defs>
<clipPath id="clip0">
<rect width="12" height="14" fill="white"/>
</clipPath>
</defs>
</svg>
