<svg id="Layer_1" data-name="Layer 1" xmlns="http://www.w3.org/2000/svg" xmlns:xlink="http://www.w3.org/1999/xlink" viewBox="0 0 14 14"><defs><style>.cls-1{fill:none;}.cls-2{clip-path:url(#clip-path);}.cls-3{fill:#60b2e3;}.cls-4{fill:#4397ca;}.cls-5{fill:#fff;}.cls-6{fill:#d0e9f9;}.cls-7{fill:#d1e9f9;}</style><clipPath id="clip-path"><rect class="cls-1" width="14" height="14"/></clipPath></defs><title>performance</title><g class="cls-2"><path class="cls-3" d="M7,14a6.8,6.8,0,0,1-2.56-.48A7,7,0,0,1,.11,8.2C.07,8,0,7.75,0,7.52v-1s0,0,0-.07A6.79,6.79,0,0,1,.55,4.29,7,7,0,0,1,3.34,1,6.61,6.61,0,0,1,6,.08,4.17,4.17,0,0,0,6.48,0H7V1.23c-.21,0-.42,0-.63,0A5.71,5.71,0,0,0,4.06,2,5.88,5.88,0,0,0,1.91,4.29,5.72,5.72,0,0,0,2,9.94a5.85,5.85,0,0,0,2.38,2.22A5.64,5.64,0,0,0,7,12.78Z"/><path class="cls-4" d="M7,14V12.78H7a4.73,4.73,0,0,0,.75,0A5.5,5.5,0,0,0,9.85,12,5.72,5.72,0,0,0,12.14,9.6a5.57,5.57,0,0,0,.6-3,5.56,5.56,0,0,0-.57-2.09A5.81,5.81,0,0,0,9.93,2,5.62,5.62,0,0,0,7,1.24H7V0h.46A5,5,0,0,0,8,.08a6.87,6.87,0,0,1,3.34,1.44,6.74,6.74,0,0,1,2.43,3.76,6.77,6.77,0,0,1-.87,5.47,6.86,6.86,0,0,1-4.19,3A6.17,6.17,0,0,1,7,14Z"/><path class="cls-5" d="M7,12.78a5.64,5.64,0,0,1-2.58-.62A5.79,5.79,0,0,1,2,9.94a5.66,5.66,0,0,1-.78-2.32,5.58,5.58,0,0,1,.65-3.33A5.88,5.88,0,0,1,4.06,2a5.76,5.76,0,0,1,2.31-.78c.21,0,.42,0,.63,0H7c0,.27,0,.54,0,.82a6.38,6.38,0,0,0-1,.1A4.89,4.89,0,0,0,2.78,4.43a4.94,4.94,0,0,0,.51,5.85,5.07,5.07,0,0,0,2.32,1.48A5.9,5.9,0,0,0,7,12v.82Z"/><path class="cls-6" d="M7,2c0-.27,0-.54,0-.81A5.57,5.57,0,0,1,9.92,2a5.83,5.83,0,0,1,2.25,2.42,5.78,5.78,0,0,1,0,5.14A5.71,5.71,0,0,1,9.84,12a5.38,5.38,0,0,1-2.1.7,3.78,3.78,0,0,1-.75,0V12H7a4.91,4.91,0,0,0,4.33-2.56,5,5,0,0,0-.25-5.18A4.92,4.92,0,0,0,9,2.46a4.86,4.86,0,0,0-2-.41S7,2,7,2Z"/><path class="cls-3" d="M7,12a5.44,5.44,0,0,1-1.39-.21A4.89,4.89,0,0,1,3.3,10.28,4.78,4.78,0,0,1,2.15,8a4.82,4.82,0,0,1,.63-3.55A4.89,4.89,0,0,1,6,2.15,7.94,7.94,0,0,1,7,2H7V3.69a3.29,3.29,0,0,0-.54.05A3.21,3.21,0,0,0,4.2,5.25a3.14,3.14,0,0,0-.46,2.29,3.25,3.25,0,0,0,1.19,2A3.37,3.37,0,0,0,7,10.31V12Z"/><path class="cls-4" d="M7,12V10.31H7A3.33,3.33,0,0,0,9.53,9.13c.06-.07,0-.1,0-.15l-1.14-.9c-.06-.05-.09,0-.13,0A1.63,1.63,0,0,1,7,8.67H7V5.33H7a1.63,1.63,0,0,1,1.24.57s.07.07.13,0L9.51,5c.07,0,.07-.09,0-.15l-.3-.31A3.27,3.27,0,0,0,7,3.69H7V2.05a4.81,4.81,0,0,1,2,.41,5,5,0,0,1,2.91,3.8,4.86,4.86,0,0,1-.56,3.11,4.94,4.94,0,0,1-3.2,2.44A4.79,4.79,0,0,1,7,12Z"/><path class="cls-5" d="M7,10.31a3.31,3.31,0,0,1-2.07-.73,3.23,3.23,0,0,1-1.19-2,3.17,3.17,0,0,1,.45-2.29A3.24,3.24,0,0,1,6.45,3.74,4.89,4.89,0,0,1,7,3.69H7V5.33H7A1.66,1.66,0,0,0,5.33,7,1.68,1.68,0,0,0,7,8.67H7v1.64Z"/><path class="cls-3" d="M7,8.67A1.67,1.67,0,1,1,7,5.34Z"/><path class="cls-7" d="M7,5.33V3.7a3.27,3.27,0,0,1,2.22.86c.11.1.2.21.3.31s.06.1,0,.15l-1.14.91c-.06,0-.09,0-.13,0A1.63,1.63,0,0,0,7,5.33Z"/><path class="cls-7" d="M7,10.31V8.67A1.63,1.63,0,0,0,8.24,8.1s.07-.07.13,0L9.51,9c.06,0,.08.08,0,.14A3.33,3.33,0,0,1,7,10.31Z"/></g></svg>