<svg width="37" height="37" viewBox="0 0 37 37" fill="none" xmlns="http://www.w3.org/2000/svg">
<g clip-path="url(#clip0)">
<path d="M18.5353 0C28.7778 0 37.0235 8.29797 37.0001 18.5235C36.9766 28.7726 28.7308 37 18.4648 36.9765C8.22227 36.9765 -0.023442 28.702 5.00721e-05 18.453C0.0235421 8.22745 8.26926 0 18.5353 0ZM18.5823 3.05591C10.0547 3.00889 3.07751 9.91995 3.05402 18.4295C3.03053 26.939 9.9137 33.8971 18.4413 33.9441C26.9689 33.9911 33.9226 27.0801 33.9696 18.5705C33.9931 10.061 27.0864 3.10292 18.5823 3.05591Z" fill="#009EED"/>
<path d="M15.4584 18.6175C15.4584 16.8545 15.4349 15.0915 15.4819 13.352C15.5054 12.9524 15.6933 12.3412 15.9987 12.2001C16.2806 12.0356 16.8914 12.2236 17.2203 12.4587C19.6165 14.1512 21.9657 15.8672 24.3149 17.6067C25.1606 18.2179 25.1606 18.8291 24.3149 19.4638C21.9657 21.2033 19.593 22.9193 17.1968 24.6118C16.8679 24.8469 16.2336 25.0114 15.9517 24.8469C15.6463 24.6823 15.4584 24.0947 15.4584 23.6715C15.4114 21.979 15.4584 20.2865 15.4584 18.6175Z" fill="#009EED"/>
</g>
<defs>
<clipPath id="clip0">
<rect width="37" height="37" fill="white"/>
</clipPath>
</defs>
</svg>
