<svg width="14" height="17" viewBox="0 0 14 17" fill="none" xmlns="http://www.w3.org/2000/svg">
<path d="M14 5.24812C14 5.84799 14 6.44785 14 7.04772C13.9965 7.07062 13.9918 7.09352 13.9907 7.11752C13.986 7.22331 13.9825 7.32802 13.9778 7.43381C13.9428 8.24417 13.8565 9.04908 13.6838 9.84527C13.538 10.516 13.3315 11.1693 13.0422 11.7976C12.4833 13.0104 11.655 14.0323 10.5513 14.8569C9.52583 15.6236 8.36967 16.1602 7.13417 16.5594C7.0385 16.5899 6.94283 16.5856 6.84833 16.5528C6.72467 16.5114 6.59983 16.47 6.47617 16.4263C5.52183 16.0882 4.61883 15.6607 3.79167 15.099C2.43833 14.1796 1.45833 12.9918 0.847 11.5358C0.4375 10.5597 0.219333 9.54315 0.106167 8.50375C0.049 7.97587 0.0186667 7.44581 0.00816667 6.91575C0.00816667 6.89393 0.00233333 6.87321 0 6.8514C0 6.41513 0 5.97887 0 5.5426C0.00233333 5.51206 0.007 5.48152 0.00816667 5.45099C0.0175 4.85548 0.0268333 4.25889 0.035 3.66339C0.0373333 3.46925 0.169167 3.31001 0.369833 3.26966C0.429333 3.25766 0.4935 3.25875 0.555333 3.25875C1.28333 3.2533 2.00667 3.19331 2.7195 3.05262C4.2105 2.75923 5.50667 2.11901 6.60917 1.13741C6.70483 1.05343 6.79817 0.970541 6.93 0.940002C6.97667 0.940002 7.02333 0.940002 7.07 0.940002C7.196 0.966178 7.2905 1.04034 7.38033 1.12214C7.48417 1.21703 7.59383 1.30756 7.70467 1.39699C8.799 2.28479 10.0625 2.83885 11.4835 3.0897C12.1333 3.20422 12.789 3.2533 13.4493 3.25875C13.5112 3.25875 13.5753 3.25766 13.6348 3.26966C13.8402 3.31001 13.9673 3.46707 13.9697 3.67866C13.9767 4.17273 13.9837 4.66789 13.9918 5.16196C13.9918 5.19032 13.9977 5.21977 14 5.24812ZM2.58067 12.8348C2.59117 12.8293 2.59817 12.8261 2.604 12.8217C3.2935 12.3691 4.04133 12.031 4.851 11.8117C4.88483 11.8019 4.8895 11.7856 4.8895 11.7572C4.88833 11.5173 4.8895 11.2773 4.88833 11.0374C4.88833 11.0166 4.8825 10.9937 4.87083 10.9763C4.56167 10.5422 4.3645 10.0667 4.27233 9.55297C4.26883 9.53334 4.25717 9.51153 4.242 9.49844C3.85 9.16688 3.63183 8.7546 3.57583 8.26381C3.51283 7.72066 3.8255 7.35856 4.18717 7.21023C4.21983 7.19714 4.22217 7.17751 4.22217 7.15024C4.221 6.93974 4.22333 6.72815 4.221 6.51765C4.21983 6.30061 4.242 6.08575 4.3015 5.87525C4.48117 5.23722 4.8615 4.72242 5.40867 4.31342C5.782 4.03421 6.20433 3.8488 6.68267 3.80518C6.98017 3.77791 7.28 3.78663 7.57983 3.78554C7.78283 3.78554 7.95667 3.92733 7.98117 4.11601C7.9975 4.24471 7.9905 4.37668 7.9905 4.50756C7.9905 4.54574 8.001 4.56428 8.043 4.57627C8.6065 4.74424 9.07083 5.04744 9.44067 5.48043C9.73933 5.82945 9.89683 6.22318 9.88867 6.67253C9.88517 6.83286 9.88867 6.99209 9.8875 7.15242C9.8875 7.18623 9.898 7.20368 9.93067 7.21895C10.0765 7.28439 10.1978 7.37928 10.2982 7.49925C10.5035 7.74683 10.5443 8.02931 10.5 8.33034C10.4335 8.77642 10.2247 9.15488 9.87467 9.46463C9.85717 9.4799 9.842 9.50498 9.8385 9.52789C9.74517 10.059 9.53983 10.5487 9.21783 10.9948C9.20383 11.0145 9.19683 11.0417 9.19683 11.0657C9.19567 11.2969 9.198 11.5271 9.1945 11.7583C9.19333 11.8106 9.212 11.8292 9.26333 11.8434C9.79883 11.9939 10.3098 12.2 10.794 12.4618C11.011 12.5785 11.2198 12.7072 11.4357 12.8326C11.4392 12.8293 11.4462 12.8206 11.4532 12.813C11.732 12.4509 11.97 12.0659 12.1718 11.6623C12.6012 10.804 12.8462 9.89762 12.9873 8.96401C13.0935 8.26272 13.1472 7.55815 13.1495 6.85031C13.1518 5.93306 13.1343 5.01472 13.125 4.09638C13.125 4.08111 13.1215 4.06584 13.1192 4.0473C10.8115 3.9895 8.743 3.35255 7.01167 1.88234C6.93583 1.94341 6.86467 2.00122 6.79117 2.05902C5.929 2.74178 4.96417 3.25548 3.88967 3.58595C2.94 3.87825 1.96117 4.01349 0.963667 4.0473C0.9415 4.04839 0.918167 4.04948 0.891333 4.05057C0.891333 4.07348 0.891333 4.09202 0.891333 4.10947C0.880833 4.6548 0.869167 5.20013 0.861 5.74546C0.847 6.67471 0.863333 7.60286 0.970667 8.52775C1.0395 9.12107 1.14683 9.70675 1.3125 10.2837C1.57033 11.1802 1.96233 12.019 2.53983 12.7781C2.55033 12.7977 2.5655 12.8162 2.58067 12.8348ZM7.15283 4.58391C6.90317 4.56973 6.66867 4.597 6.44 4.67443C5.79017 4.89584 5.0715 5.64731 5.07617 6.49257C5.0785 6.8274 5.07033 7.16115 5.0645 7.49598C5.06333 7.54397 5.05867 7.59523 5.0435 7.64104C4.98867 7.81009 4.82767 7.91588 4.62817 7.91916C4.494 7.92134 4.4135 7.99659 4.41817 8.12202C4.4205 8.1831 4.42517 8.24527 4.438 8.30634C4.4975 8.58228 4.64917 8.80368 4.893 8.96837C5.0015 9.04145 5.06917 9.13634 5.08433 9.26067C5.14267 9.74275 5.31767 10.1845 5.61167 10.5836C5.69683 10.7003 5.73767 10.8269 5.73767 10.9676C5.7365 11.3144 5.73767 11.6623 5.73767 12.0091C5.73767 12.2687 5.58367 12.4585 5.3165 12.5228C4.68067 12.6755 4.07867 12.9057 3.51517 13.2209C3.37867 13.2972 3.24683 13.379 3.1115 13.4597C3.12317 13.4728 3.12783 13.4783 3.1325 13.4837C3.51517 13.8731 3.941 14.2177 4.403 14.5231C5.19283 15.0466 6.055 15.4382 6.96267 15.7447C6.98717 15.7523 7.01983 15.7501 7.0455 15.7414C7.51917 15.5832 7.98117 15.3978 8.42917 15.183C9.31467 14.7587 10.1162 14.2265 10.8033 13.5492C10.8348 13.5175 10.8652 13.4859 10.8978 13.4532C10.8815 13.4423 10.871 13.4346 10.8605 13.427C10.2223 13.018 9.52933 12.7192 8.7815 12.5316C8.5015 12.4618 8.34983 12.2785 8.34983 12.0081C8.34983 11.6939 8.35567 11.3787 8.3475 11.0646C8.34283 10.8694 8.39883 10.7014 8.519 10.54C8.792 10.1746 8.9565 9.76674 9.0125 9.32502C9.03467 9.1527 9.10467 9.02509 9.25167 8.91602C9.5235 8.71316 9.65533 8.43831 9.66817 8.11439C9.67283 8.00423 9.59467 7.92461 9.48033 7.91698C9.19567 7.89625 9.04167 7.74029 9.04167 7.47199C9.04167 7.17969 9.04283 6.8863 9.03933 6.594C9.037 6.41404 8.97867 6.24717 8.8725 6.09666C8.55283 5.64185 8.10483 5.37137 7.53083 5.28193C7.287 5.24376 7.1505 5.09107 7.14933 4.85876C7.15167 4.76932 7.15283 4.6788 7.15283 4.58391Z" fill="#009EED"/>
</svg>
