<svg width="18" height="16" viewBox="0 0 18 16" fill="none" xmlns="http://www.w3.org/2000/svg">
<g clip-path="url(#clip0)">
<path d="M8.5817 16C11.1265 16 13.6712 16 16.2079 16C17.0319 16 17.1854 15.8021 17.137 15.0108C16.9835 12.4708 14.9315 10.1365 12.0474 9.81202C11.7808 9.78037 11.5142 9.78037 11.2396 9.78037C9.46227 9.78037 7.68497 9.77246 5.90767 9.78037C2.94282 9.78829 0.68888 11.5924 0.0910617 14.4332C0.0345113 14.6864 0.0183548 14.9555 0.00219751 15.2166C-0.0381956 15.7626 0.179927 16 0.745431 16.0079C1.71487 16.0158 2.6843 16.0079 3.65374 16.0079C5.2937 16 6.93366 16 8.5817 16ZM15.909 14.813C10.9972 14.813 6.14196 14.813 1.27862 14.813C1.2867 14.7022 1.27862 14.6073 1.29478 14.5202C1.70679 12.4945 3.53256 10.9831 5.64916 10.9594C7.59611 10.9357 9.55114 10.9515 11.4981 10.9594C12.4594 10.9594 13.3239 11.2601 14.0832 11.8219C15.0931 12.5578 15.7071 13.539 15.909 14.813Z" fill="black" stroke="black" stroke-width="0.3"/>
<path d="M8.60607 2.31942e-05C6.06938 -0.00788976 4.00933 2.00991 4.01741 4.48667C4.02548 6.96342 6.09361 8.97331 8.62223 8.97331C11.1266 8.9654 13.1786 6.96342 13.1947 4.49458C13.2109 2.02574 11.1508 0.00793615 8.60607 2.31942e-05ZM5.2292 4.47876C5.2292 2.65086 6.74798 1.15531 8.60607 1.16323C10.4642 1.16323 11.9991 2.66669 11.9991 4.47876C11.9991 6.29082 10.4561 7.8022 8.60607 7.8022C6.74798 7.79428 5.2292 6.30665 5.2292 4.47876Z" fill="black" stroke="black" stroke-width="0.3"/>
</g>
<defs>
<clipPath id="clip0">
<rect width="17.1429" height="16" fill="white" transform="matrix(-1 0 0 1 17.145 0)"/>
</clipPath>
</defs>
</svg>
