<svg width="20" height="17" viewBox="0 0 20 17" fill="none" xmlns="http://www.w3.org/2000/svg">
<path d="M10.4047 16.8755C7.70088 16.8755 4.99702 16.8755 2.28438 16.8755C1.24849 16.8755 0.80955 16.483 0.800771 15.4763C0.791993 13.915 0.791992 12.3452 0.791992 10.7839C0.791992 7.81492 0.800771 4.84593 0.791992 1.86841C0.791992 0.563084 1.31872 0.0170631 2.66187 0.00853157C4.53175 0 6.4104 0.00853157 8.28028 0C8.78067 0 9.15816 0.213289 9.4303 0.588679C9.70244 0.955536 9.98336 1.33093 10.1941 1.73191C10.4574 2.2438 10.8525 2.38031 11.4055 2.38031C13.7933 2.36325 16.1724 2.37178 18.5602 2.37178C19.5786 2.37178 19.9824 2.73863 19.9912 3.71977C19.9999 7.70401 19.9999 11.6797 19.9999 15.664C19.9999 16.483 19.5873 16.8755 18.7095 16.8755C15.9354 16.884 13.1701 16.8755 10.4047 16.8755ZM10.4047 15.7066C12.8013 15.7066 15.198 15.7066 17.5946 15.7066C18.49 15.7066 18.8148 15.391 18.8148 14.5293C18.8148 11.3641 18.8148 8.19031 18.8148 5.0251C18.8148 4.32551 18.411 3.93305 17.7087 3.93305C12.8716 3.93305 8.03447 3.93305 3.18859 3.93305C2.31072 3.93305 1.97713 4.26579 1.96835 5.11894C1.96835 8.2415 1.96835 11.3726 1.96835 14.4951C1.96835 15.3739 2.30194 15.7066 3.20615 15.7066C5.60276 15.7066 7.99936 15.7066 10.4047 15.7066Z" fill="#009EED"/>
<path d="M12.4152 10.5536C13.4335 10.5536 14.4607 10.5536 15.479 10.5536C16.1637 10.5536 16.55 10.8948 16.5588 11.4664C16.5588 12.0466 16.1813 12.3964 15.4966 12.3964C13.4072 12.3964 11.3179 12.3964 9.22852 12.3964C8.80714 12.3964 8.48232 12.2428 8.31552 11.8589C8.16629 11.5091 8.17507 11.1337 8.47354 10.8692C8.6579 10.7071 8.95638 10.5792 9.20218 10.5706C10.282 10.545 11.353 10.5621 12.4152 10.5536C12.4152 10.5621 12.4152 10.5536 12.4152 10.5536Z" fill="#009EED"/>
<path d="M12.3708 8.71075C11.3349 8.71075 10.299 8.71928 9.26307 8.71075C8.64856 8.71075 8.27107 8.36096 8.25352 7.82347C8.23596 7.26039 8.61344 6.88501 9.24552 6.87648C11.3524 6.86794 13.4505 6.85941 15.5574 6.86794C16.1983 6.86794 16.5758 7.2348 16.567 7.79788C16.5582 8.35242 16.172 8.70222 15.5311 8.70222C14.4689 8.71928 13.4242 8.71075 12.3708 8.71075Z" fill="#009EED"/>
<path d="M4.63684 7.79789C4.62806 7.24332 5.08456 6.79966 5.66396 6.8082C6.21702 6.81673 6.64718 7.24332 6.65596 7.78936C6.65596 8.32687 6.2258 8.77906 5.68152 8.78759C5.11967 8.80465 4.64562 8.35246 4.63684 7.79789Z" fill="#009EED"/>
<path d="M6.64718 11.4921C6.6384 12.0381 6.19946 12.4647 5.6464 12.4647C5.07578 12.4647 4.62807 12.021 4.63685 11.4665C4.64562 10.9119 5.1109 10.4768 5.68152 10.4939C6.2258 10.5024 6.65596 10.946 6.64718 11.4921Z" fill="#009EED"/>
</svg>
