<svg id="Layer_1" data-name="Layer 1" xmlns="http://www.w3.org/2000/svg" xmlns:xlink="http://www.w3.org/1999/xlink" viewBox="0 0 14 14"><defs><style>.cls-1{fill:none;}.cls-2{clip-path:url(#clip-path);}.cls-3{fill:#3598d4;opacity:0.3;isolation:isolate;}.cls-4{fill:#009eed;}.cls-5{fill:#fff;}.cls-6{fill:#fcd30e;}.cls-7{fill:#f5be1d;}</style><clipPath id="clip-path"><rect class="cls-1" x="0.69" y="0.69" width="12.63" height="12.63"/></clipPath></defs><title>rate</title><g class="cls-2"><path class="cls-3" d="M7,13.34A6.33,6.33,0,1,0,.69,7,6.32,6.32,0,0,0,7,13.34Z"/><path class="cls-4" d="M7,12.49A5.48,5.48,0,1,0,1.54,7,5.47,5.47,0,0,0,7,12.49Z"/><path class="cls-5" d="M7.29,9.4v.76H6.65V9.43A3.47,3.47,0,0,1,6,9.31a2.87,2.87,0,0,1-.55-.22S5.43,9,5.43,9c.06-.21.12-.46.18-.67.18.06.34.15.52.21a1.85,1.85,0,0,0,1,.1.6.6,0,0,0,.49-.59.53.53,0,0,0-.22-.42,2.32,2.32,0,0,0-.64-.34A4.54,4.54,0,0,1,6,6.92,1.21,1.21,0,0,1,6.1,4.81a1.46,1.46,0,0,1,.52-.18c.06,0,.09-.06.09-.12V3.87h.64v.7a3.21,3.21,0,0,1,1.07.24,6.36,6.36,0,0,1-.21.71,5.74,5.74,0,0,0-.64-.19,1.42,1.42,0,0,0-.71,0,.6.6,0,0,0-.46.43.41.41,0,0,0,.16.43,6,6,0,0,0,.55.31c.27.12.55.24.82.39a1.19,1.19,0,0,1,.64,1.23,1.28,1.28,0,0,1-.88,1.16C7.6,9.31,7.44,9.34,7.29,9.4Z"/><g class="cls-2"><path class="cls-6" d="M7,13.34A6.33,6.33,0,1,0,.69,7,6.32,6.32,0,0,0,7,13.34Z"/><path class="cls-7" d="M7,12.49A5.48,5.48,0,1,0,1.54,7,5.47,5.47,0,0,0,7,12.49Z"/><path class="cls-5" d="M7.29,9.4v.76H6.65V9.43A3.47,3.47,0,0,1,6,9.31a2.87,2.87,0,0,1-.55-.22S5.43,9,5.43,9c.06-.21.12-.46.18-.67.18.06.34.15.52.21a1.85,1.85,0,0,0,1,.1.6.6,0,0,0,.49-.59.53.53,0,0,0-.22-.42,2.32,2.32,0,0,0-.64-.34A4.54,4.54,0,0,1,6,6.92,1.21,1.21,0,0,1,6.1,4.81a1.46,1.46,0,0,1,.52-.18c.06,0,.09-.06.09-.12V3.87h.64v.7a3.21,3.21,0,0,1,1.07.24,6.36,6.36,0,0,1-.21.71,5.74,5.74,0,0,0-.64-.19,1.42,1.42,0,0,0-.71,0,.6.6,0,0,0-.46.43.41.41,0,0,0,.16.43,6,6,0,0,0,.55.31c.27.12.55.24.82.39a1.19,1.19,0,0,1,.64,1.23,1.28,1.28,0,0,1-.88,1.16C7.6,9.31,7.44,9.34,7.29,9.4Z"/></g></g></svg>