<svg id="Layer_1" data-name="Layer 1" xmlns="http://www.w3.org/2000/svg" xmlns:xlink="http://www.w3.org/1999/xlink" viewBox="0 0 14 14"><defs><style>.cls-1{fill:none;}.cls-2{clip-path:url(#clip-path);}.cls-3{fill:#09976f;}.cls-4{fill:#fafbfa;}</style><clipPath id="clip-path"><rect class="cls-1" x="0.9" y="0.9" width="12.21" height="12.21"/></clipPath></defs><title>residental</title><g class="cls-2"><path class="cls-3" d="M13.1,6.38V7.62c-.06,0,0,.06,0,.09s-.05.34-.08.52a6.11,6.11,0,0,1-5.27,4.83s-.08,0-.07,0H7.45v0l0,0H6.36c0-.07-.05,0-.08,0S6,13,5.78,13A6.1,6.1,0,0,1,.94,7.72s0-.08,0-.08V6.36c.06,0,0-.05,0-.08A5.86,5.86,0,0,1,1,5.7,6,6,0,0,1,3.69,1.88,5.92,5.92,0,0,1,6.28.94s.08,0,.08,0H7.64c0,.06.05,0,.08,0A1.6,1.6,0,0,0,8,1a6,6,0,0,1,4,2.41,5.79,5.79,0,0,1,1.16,2.93S13,6.38,13.1,6.38Zm-7,1.74-.36-.38a1,1,0,0,0-.41-.27.44.44,0,0,0-.58.42,1,1,0,0,0,.19.55c.36.53.67,1.09,1,1.63a1.5,1.5,0,0,1,.19.55c0,.2,0,.41,0,.61a.27.27,0,0,0,.29.3H8.89a.25.25,0,0,0,.28-.28,2.13,2.13,0,0,1,.13-.71A6.33,6.33,0,0,0,9.67,9c.06-.63,0-1.26,0-1.89a.46.46,0,0,0-.47-.46.52.52,0,0,0-.4.17.51.51,0,0,0-.89-.3c-.19-.43-.45-.5-.88-.22V5.17A.55.55,0,0,0,7,5a.49.49,0,0,0-.53-.34.5.5,0,0,0-.43.52V7.6C6.08,7.77,6.08,7.93,6.08,8.12ZM4.94,7h.42a.21.21,0,0,0,.23-.23q0-.4,0-.81a.21.21,0,0,0-.24-.24H4.54a.21.21,0,0,0-.23.24c0,.27,0,.54,0,.8A.22.22,0,0,0,4.55,7ZM6.57,2.47H6.15a.21.21,0,0,0-.23.23v.84a.2.2,0,0,0,.22.21H7a.22.22,0,0,0,.23-.21c0-.29,0-.57,0-.85S7.11,2.47,7,2.47Zm2.25.64V2.7a.22.22,0,0,0-.23-.23H7.77a.21.21,0,0,0-.24.23v.83a.21.21,0,0,0,.24.22h.82a.21.21,0,0,0,.23-.22ZM5,4.09H4.53a.2.2,0,0,0-.22.23c0,.27,0,.54,0,.82s.07.23.21.23h.85a.21.21,0,0,0,.22-.23V4.31a.2.2,0,0,0-.22-.22Zm3.87.64V4.32c0-.16-.08-.23-.24-.23H7.76c-.14,0-.23.07-.23.21s0,.57,0,.85a.21.21,0,0,0,.23.22h.83a.2.2,0,0,0,.22-.23C8.82,5,8.82,4.87,8.82,4.73Zm-3.88-1h.41q.24,0,.24-.24c0-.27,0-.54,0-.82a.21.21,0,0,0-.23-.23H4.53a.2.2,0,0,0-.22.22v.84a.22.22,0,0,0,.23.23Zm2.27,1V4.31c0-.13-.08-.22-.2-.22H6.12a.17.17,0,0,0-.19.17c0,.16,0,.32,0,.5A.75.75,0,0,1,7.21,4.75ZM8.82,6.29V5.92c0-.14-.08-.22-.22-.22H7.76a.2.2,0,0,0-.2.11c0,.05,0,.09,0,.1A.76.76,0,0,1,8,6.13s0,0,.08,0A.83.83,0,0,1,8.82,6.29Z"/><path class="cls-4" d="M6.08,8.12V5.17a.49.49,0,0,1,.42-.52A.51.51,0,0,1,7,5a.91.91,0,0,1,0,.17V6.31c.44-.28.7-.21.89.22a.51.51,0,0,1,.89.3.52.52,0,0,1,.39-.17.48.48,0,0,1,.48.47c0,.62,0,1.25,0,1.88a6.2,6.2,0,0,1-.36,1.53,1.72,1.72,0,0,0-.13.71.25.25,0,0,1-.28.28H6.44a.27.27,0,0,1-.29-.29,4.24,4.24,0,0,0,0-.62,1.26,1.26,0,0,0-.2-.54c-.34-.55-.65-1.11-1-1.64a.89.89,0,0,1-.19-.55.44.44,0,0,1,.58-.42.92.92,0,0,1,.4.27Z"/><path class="cls-4" d="M4.94,7H4.55c-.17,0-.24-.08-.24-.24s0-.54,0-.81a.21.21,0,0,1,.23-.23h.81a.21.21,0,0,1,.24.24q0,.4,0,.81A.21.21,0,0,1,5.36,7H4.94Z"/><path class="cls-4" d="M6.57,2.47H7a.22.22,0,0,1,.25.22v.85A.21.21,0,0,1,7,3.75H6.14a.2.2,0,0,1-.22-.21V2.7a.22.22,0,0,1,.24-.23Z"/><path class="cls-4" d="M8.82,3.11v.42a.22.22,0,0,1-.23.23H7.77a.22.22,0,0,1-.24-.23V2.7a.21.21,0,0,1,.24-.23h.82a.22.22,0,0,1,.23.23Z"/><path class="cls-4" d="M5,4.09h.42a.2.2,0,0,1,.22.22c0,.28,0,.56,0,.83a.21.21,0,0,1-.22.23H4.52c-.14,0-.21-.09-.21-.23s0-.55,0-.82a.2.2,0,0,1,.22-.23H5Z"/><path class="cls-4" d="M8.82,4.73v.41c0,.15-.08.23-.22.23H7.76a.21.21,0,0,1-.23-.22V4.3c0-.14.09-.21.23-.21h.83c.15,0,.22.07.23.23v.41Z"/><path class="cls-4" d="M4.94,3.76H4.53a.23.23,0,0,1-.23-.23V2.69a.22.22,0,0,1,.23-.22h.83a.22.22,0,0,1,.23.23v.82a.22.22,0,0,1-.24.24Z"/><path class="cls-4" d="M7.21,4.75a.76.76,0,0,0-1.29,0c0-.18,0-.34,0-.5a.17.17,0,0,1,.18-.17H7a.19.19,0,0,1,.2.22C7.21,4.45,7.21,4.59,7.21,4.75Z"/><path class="cls-4" d="M8.82,6.29a.83.83,0,0,0-.75-.14s-.06,0-.08,0a.76.76,0,0,0-.39-.22c-.08,0-.07,0,0-.1a.2.2,0,0,1,.2-.11H8.6c.14,0,.21.08.22.22Z"/></g></svg>