<svg width="18" height="18" viewBox="0 0 18 18" fill="none" xmlns="http://www.w3.org/2000/svg">
<g clip-path="url(#clip0)">
<path d="M9.0093 18C8.54151 18 8.07771 18 7.60992 18C7.00619 17.996 6.55039 17.5442 6.54639 16.9365C6.5424 16.3207 6.61436 16.4727 6.0746 16.2488C5.93467 16.1888 5.79873 16.1088 5.65079 16.0729C5.56283 16.0529 5.44688 16.0729 5.37092 16.1208C5.26696 16.1848 5.191 16.2968 5.09904 16.3847C4.69122 16.7725 4.0555 16.7725 3.65568 16.3727C2.98398 15.705 2.31627 15.0373 1.64857 14.3656C1.22876 13.9418 1.23675 13.2981 1.65657 12.8783C2.01241 12.5224 2.01241 12.5224 1.8165 12.0586C1.75652 11.9187 1.70055 11.7748 1.64857 11.6308C1.60859 11.5149 1.53662 11.4589 1.41268 11.4629C1.28473 11.4669 1.16079 11.4709 1.03285 11.4629C0.473094 11.4429 0.0252932 11.0111 0.0172968 10.4554C0.00530211 9.48778 0.00530211 8.52421 0.0172968 7.55664C0.0252932 6.98889 0.481091 6.5211 1.04884 6.55309C1.46865 6.57708 1.70455 6.45713 1.78051 6.04531C1.79251 5.98134 1.82849 5.92137 1.85648 5.8614C2.02041 5.47757 2.02041 5.47357 1.71254 5.1777C1.38069 4.85784 1.25675 4.47801 1.41667 4.03421C1.46865 3.89427 1.55261 3.75433 1.65657 3.65038C2.30828 2.97068 2.97598 2.30298 3.64768 1.63927C4.0555 1.23545 4.7232 1.20746 5.09904 1.63927C5.38691 1.96713 5.6228 1.96313 6.00264 1.8072C6.39846 1.64727 6.59437 1.48734 6.56239 1.01555C6.52241 0.47179 6.99419 0.0199911 7.54595 0.0119947C8.51752 -0.00399822 9.49309 -0.00399822 10.4647 0.0119947C11.0204 0.0199911 11.4922 0.475789 11.4562 1.03154C11.4282 1.47135 11.5962 1.63927 11.984 1.8032C12.3878 1.97112 12.6357 1.96313 12.9356 1.61928C13.2874 1.21546 13.9511 1.23945 14.3429 1.62328C15.0386 2.30298 15.7223 2.99467 16.406 3.68636C16.7778 4.06219 16.7898 4.7259 16.39 5.07774C16.0622 5.36961 16.0262 5.60951 16.2021 6.01333C16.37 6.39316 16.522 6.59307 16.9818 6.56108C17.5535 6.5211 17.9973 7.02088 18.0013 7.59662C18.0053 8.52821 18.0053 9.46379 18.0013 10.3954C17.9973 11.0311 17.5495 11.4709 16.9098 11.4709C16.3181 11.4709 16.474 11.4229 16.2621 11.9107C16.2141 12.0227 16.1861 12.1426 16.1181 12.2386C15.9782 12.4505 16.0422 12.6024 16.2181 12.7543C16.5939 13.0742 16.7818 13.466 16.6099 13.9618C16.5579 14.1097 16.47 14.2537 16.362 14.3656C15.6983 15.0413 15.0306 15.709 14.3589 16.3767C13.9431 16.7885 13.3074 16.7845 12.8876 16.3687C12.5237 16.0089 12.5237 16.0089 12.0519 16.2088C11.936 16.2568 11.8201 16.3167 11.7001 16.3487C11.5042 16.3967 11.4482 16.5127 11.4642 16.7006C11.4922 17.0404 11.4562 17.3683 11.2203 17.6402C11.0044 17.8841 10.7365 18.012 10.4127 18.008C9.94089 17.996 9.47309 18 9.0093 18ZM2.91201 4.39005C2.928 4.41404 2.944 4.43803 2.95999 4.45802C3.42778 4.99778 3.51574 5.58952 3.21587 6.24123C3.12392 6.44114 3.03595 6.64505 2.96399 6.84896C2.72409 7.51266 2.2523 7.8765 1.55261 7.94047C1.42067 7.95247 1.40468 8.01244 1.40468 8.12039C1.40868 8.43225 1.40468 8.74811 1.40468 9.05997C1.40468 9.38383 1.40468 9.71168 1.40468 10.0395C1.46865 10.0515 1.51263 10.0595 1.56061 10.0635C2.23231 10.1315 2.7001 10.4713 2.944 11.1111C3.04395 11.3669 3.1519 11.6148 3.25986 11.8667C3.3798 12.1426 3.41179 12.4305 3.36781 12.7263C3.31583 13.0742 3.13591 13.3581 2.91601 13.606C3.41179 14.1017 3.89957 14.5895 4.39535 15.0853C4.41534 15.0693 4.45133 15.0533 4.47931 15.0253C5.00708 14.5855 5.58282 14.4976 6.21054 14.7774C6.44244 14.8774 6.67834 14.9733 6.91023 15.0693C7.50197 15.3012 7.84182 15.737 7.92978 16.3647C7.93778 16.4367 7.94977 16.5087 7.96177 16.5846C8.66145 16.5846 9.34915 16.5846 10.0328 16.5846C10.0448 16.5566 10.0528 16.5446 10.0528 16.5327C10.0568 16.5127 10.0568 16.4927 10.0608 16.4727C10.1168 15.769 10.4726 15.2972 11.1364 15.0493C11.3683 14.9614 11.5922 14.8614 11.8201 14.7654C12.4318 14.5016 12.9915 14.5935 13.5033 15.0013C13.5433 15.0333 13.5833 15.0613 13.5953 15.0693C14.099 14.5695 14.5868 14.0857 15.0826 13.598C15.0866 13.606 15.0866 13.598 15.0826 13.594C15.0506 13.554 15.0146 13.514 14.9826 13.47C14.6068 12.9822 14.5149 12.4505 14.7467 11.8707C14.8587 11.5908 14.9746 11.315 15.0906 11.0391C15.3345 10.4594 15.7783 10.1435 16.398 10.0635C16.462 10.0555 16.526 10.0475 16.5899 10.0395C16.5899 9.33585 16.5899 8.64816 16.5899 7.97246C16.5659 7.96046 16.5539 7.94847 16.542 7.94847C16.51 7.94447 16.474 7.94047 16.442 7.93647C15.7543 7.86051 15.2865 7.50466 15.0466 6.84896C14.9627 6.61706 14.8587 6.39316 14.7627 6.16526C14.5228 5.60951 14.5868 5.08574 14.9267 4.59396C14.9786 4.51799 15.0386 4.45002 15.0866 4.39005C14.5868 3.89027 14.103 3.40249 13.6113 2.91071C13.6193 2.91071 13.6113 2.91071 13.6033 2.9147C13.5673 2.94269 13.5313 2.97468 13.4953 3.00267C12.9915 3.39849 12.4438 3.49445 11.848 3.24256C11.5922 3.13461 11.3323 3.02266 11.0724 2.9187C10.4687 2.67881 10.1448 2.22701 10.0688 1.59129C10.0608 1.53132 10.0528 1.47534 10.0448 1.39938C9.96887 1.39938 9.9009 1.39938 9.83693 1.39938C9.28518 1.39938 8.72942 1.40338 8.17767 1.39538C8.01374 1.39138 7.95377 1.42737 7.93378 1.60729C7.86581 2.23501 7.53396 2.67881 6.93822 2.9187C6.67434 3.02665 6.41045 3.13861 6.14657 3.25056C5.54684 3.49845 4.99908 3.39449 4.4993 2.99467C4.45932 2.96268 4.41934 2.9347 4.38735 2.91071C3.89557 3.41048 3.41179 3.89427 2.91201 4.39005Z" fill="white"/>
<path d="M8.98451 14.0817C6.18176 14.0817 3.92676 11.8028 3.92676 8.97202C3.92676 6.24524 6.22174 3.92627 8.91654 3.92627C11.8113 3.93027 14.0862 6.16527 14.0822 9.00801C14.0782 11.8108 11.7953 14.0817 8.98451 14.0817ZM12.6789 9.00401C12.6789 6.96092 11.0356 5.32964 8.98451 5.32964C6.9894 5.32964 5.33013 6.98891 5.32614 8.98801C5.32614 11.0391 6.96141 12.6824 9.0005 12.6824C11.0276 12.6784 12.6789 11.0271 12.6789 9.00401Z" fill="white"/>
</g>
<defs>
<clipPath id="clip0">
<rect width="18" height="18" fill="white" transform="translate(0.000488281)"/>
</clipPath>
</defs>
</svg>
