<svg width="36" height="36" viewBox="0 0 36 36" fill="none" xmlns="http://www.w3.org/2000/svg">
<g clip-path="url(#clip0)">
<path d="M18.0166 36C17.0811 36 16.1535 36 15.2179 36C14.0104 35.992 13.0988 35.0884 13.0908 33.8729C13.0828 32.6415 13.2268 32.9454 12.1473 32.4976C11.8674 32.3776 11.5955 32.2177 11.2996 32.1457C11.1237 32.1057 10.8918 32.1457 10.7399 32.2417C10.532 32.3696 10.38 32.5935 10.1961 32.7694C9.38049 33.5451 8.10905 33.5451 7.30941 32.7454C5.966 31.41 4.6306 30.0746 3.29519 28.7312C2.45556 27.8836 2.47156 26.5962 3.31118 25.7566C4.02287 25.0449 4.02287 25.0449 3.63104 24.1173C3.51109 23.8374 3.39914 23.5495 3.29519 23.2617C3.21523 23.0298 3.07129 22.9178 2.8234 22.9258C2.56751 22.9338 2.31962 22.9418 2.06374 22.9258C0.944235 22.8858 0.0486333 22.0222 0.0326404 20.9107C0.0086511 18.9756 0.0086511 17.0484 0.0326404 15.1133C0.0486333 13.9778 0.960228 13.0422 2.09572 13.1062C2.93535 13.1542 3.40714 12.9143 3.55907 12.0906C3.58306 11.9627 3.65503 11.8427 3.71101 11.7228C4.03886 10.9551 4.03886 10.9471 3.42313 10.3554C2.75943 9.71568 2.51154 8.95602 2.8314 8.06841C2.93535 7.78854 3.10328 7.50866 3.31118 7.30076C4.6146 5.94136 5.95001 4.60595 7.29341 3.27854C8.10905 2.4709 9.44446 2.41493 10.1961 3.27854C10.7719 3.93425 11.2437 3.92625 12.0033 3.61439C12.795 3.29454 13.1868 2.97468 13.1228 2.0311C13.0429 0.943581 13.9864 0.0399822 15.0899 0.0239893C17.0331 -0.00799645 18.9842 -0.00799645 20.9274 0.0239893C22.0389 0.0399822 22.9824 0.951577 22.9105 2.06308C22.8545 2.94269 23.1903 3.27854 23.966 3.6064C24.7736 3.94225 25.2694 3.92625 25.8692 3.23856C26.5728 2.43092 27.9003 2.4789 28.6839 3.24656C30.0753 4.60595 31.4427 5.98934 32.8101 7.37272C33.5537 8.12439 33.5777 9.4518 32.7781 10.1555C32.1224 10.7392 32.0504 11.219 32.4023 12.0267C32.7381 12.7863 33.042 13.1861 33.9616 13.1222C35.1051 13.0422 35.9927 14.0418 36.0007 15.1932C36.0087 17.0564 36.0087 18.9276 36.0007 20.7908C35.9927 22.0622 35.0971 22.9418 33.8176 22.9418C32.6342 22.9418 32.946 22.8458 32.5222 23.8214C32.4262 24.0453 32.3703 24.2852 32.2343 24.4771C31.9545 24.9009 32.0824 25.2048 32.4342 25.5087C33.1859 26.1484 33.5617 26.932 33.2179 27.9236C33.1139 28.2195 32.938 28.5073 32.7221 28.7312C31.3947 30.0826 30.0593 31.418 28.7159 32.7534C27.8843 33.5771 26.6128 33.5691 25.7732 32.7374C25.0455 32.0178 25.0455 32.0178 24.1019 32.4176C23.87 32.5135 23.6381 32.6335 23.3983 32.6975C23.0064 32.7934 22.8945 33.0253 22.9265 33.4012C22.9824 34.0809 22.9105 34.7366 22.4387 35.2803C22.0069 35.7681 21.4711 36.024 20.8234 36.016C19.8798 35.992 18.9442 36 18.0166 36ZM5.82207 8.7801C5.85405 8.82808 5.88604 8.87605 5.91802 8.91604C6.85361 9.99556 7.02953 11.179 6.4298 12.4825C6.24588 12.8823 6.06996 13.2901 5.92602 13.6979C5.44623 15.0253 4.50265 15.753 3.10328 15.8809C2.83939 15.9049 2.80741 16.0249 2.80741 16.2408C2.8154 16.8645 2.80741 17.4962 2.80741 18.1199C2.80741 18.7677 2.80741 19.4234 2.80741 20.0791C2.93535 20.1031 3.02331 20.1191 3.11927 20.1271C4.46267 20.263 5.39826 20.9427 5.88604 22.2221C6.08595 22.7339 6.30185 23.2297 6.51776 23.7334C6.75765 24.2852 6.82162 24.8609 6.73366 25.4527C6.62971 26.1484 6.26987 26.7161 5.83006 27.2119C6.82162 28.2035 7.79719 29.179 8.78875 30.1706C8.82873 30.1386 8.9007 30.1066 8.95667 30.0506C10.0122 29.171 11.1637 28.9951 12.4191 29.5549C12.8829 29.7548 13.3547 29.9467 13.8185 30.1386C15.002 30.6024 15.6817 31.474 15.8576 32.7295C15.8736 32.8734 15.8976 33.0173 15.9216 33.1693C17.321 33.1693 18.6963 33.1693 20.0637 33.1693C20.0877 33.1133 20.1037 33.0893 20.1037 33.0653C20.1117 33.0253 20.1117 32.9853 20.1197 32.9454C20.2317 31.538 20.9433 30.5944 22.2708 30.0986C22.7346 29.9227 23.1824 29.7228 23.6381 29.5309C24.8616 29.0031 25.9811 29.187 27.0047 30.0027C27.0846 30.0666 27.1646 30.1226 27.1886 30.1386C28.1961 29.139 29.1717 28.1715 30.1632 27.1959C30.1712 27.2119 30.1712 27.1959 30.1632 27.1879C30.0993 27.108 30.0273 27.028 29.9633 26.94C29.2117 25.9645 29.0278 24.9009 29.4915 23.7414C29.7154 23.1817 29.9473 22.6299 30.1792 22.0782C30.667 20.9187 31.5546 20.287 32.7941 20.1271C32.922 20.1111 33.05 20.0951 33.1779 20.0791C33.1779 18.6717 33.1779 17.2963 33.1779 15.9449C33.1299 15.9209 33.1059 15.8969 33.082 15.8969C33.018 15.8889 32.946 15.8809 32.882 15.8729C31.5067 15.721 30.5711 15.0093 30.0913 13.6979C29.9234 13.2341 29.7155 12.7863 29.5235 12.3305C29.0437 11.219 29.1717 10.1715 29.8514 9.18792C29.9553 9.03598 30.0753 8.90004 30.1712 8.7801C29.1717 7.78054 28.2041 6.80498 27.2206 5.82141C27.2365 5.82141 27.2206 5.82141 27.2046 5.82941C27.1326 5.88538 27.0606 5.94936 26.9887 6.00533C25.9811 6.79698 24.8856 6.98889 23.6941 6.48512C23.1824 6.26921 22.6626 6.04531 22.1428 5.83741C20.9354 5.35762 20.2876 4.45402 20.1357 3.18259C20.1197 3.06264 20.1037 2.95069 20.0877 2.79876C19.9358 2.79876 19.7999 2.79876 19.6719 2.79876C18.5684 2.79876 17.4569 2.80675 16.3534 2.79076C16.0255 2.78276 15.9056 2.85473 15.8656 3.21457C15.7297 4.47001 15.066 5.35762 13.8745 5.83741C13.3467 6.05331 12.819 6.27721 12.2912 6.50111C11.0917 6.99689 9.99621 6.78898 8.99666 5.98934C8.91669 5.92537 8.83673 5.86939 8.77276 5.82141C7.78919 6.82097 6.82162 7.78854 5.82207 8.7801Z" fill="#009EED"/>
<path d="M17.9678 28.1635C12.3623 28.1635 7.85229 23.6055 7.85229 17.944C7.85229 12.4905 12.4423 7.85254 17.8319 7.85254C23.6213 7.86054 28.1713 12.3305 28.1633 18.016C28.1553 23.6215 23.5893 28.1635 17.9678 28.1635ZM25.3565 18.008C25.3565 13.9218 22.07 10.6593 17.9678 10.6593C13.9776 10.6593 10.659 13.9778 10.6511 17.976C10.6511 22.0782 13.9216 25.3647 17.9998 25.3647C22.054 25.3567 25.3565 22.0542 25.3565 18.008Z" fill="#009EED"/>
</g>
<defs>
<clipPath id="clip0">
<rect width="36" height="36" fill="white"/>
</clipPath>
</defs>
</svg>
