<svg width="17" height="17" viewBox="0 0 17 17" fill="none" xmlns="http://www.w3.org/2000/svg">
<path d="M0.00205001 7.99783C0.00205001 6.23995 -0.00193219 4.48624 0.00205001 2.72837C0.0060322 1.39538 0.766632 0.37898 1.99315 0.0707269C2.17633 0.0249055 2.37146 0.00407758 2.5626 0.00407758C4.51388 -8.80041e-05 6.46516 -0.00425359 8.41643 0.00407758C9.94958 0.00824316 11.0407 1.16211 11.0407 2.77002C11.0407 3.31988 11.0447 3.86557 11.0407 4.41543C11.0367 4.94029 10.6783 5.32769 10.2044 5.33602C9.72658 5.34019 9.35623 4.96528 9.34428 4.44042C9.33234 3.8864 9.3403 3.32821 9.3403 2.77419C9.3403 2.13269 9.00182 1.78695 8.39254 1.78695C6.501 1.78695 4.60945 1.80361 2.71791 1.77862C2.00908 1.77028 1.68652 2.23683 1.6905 2.84917C1.70245 6.29827 1.69448 9.75154 1.69448 13.2006C1.69448 13.8671 2.02899 14.2212 2.65818 14.2212C4.57759 14.2212 6.49303 14.2212 8.41245 14.2212C8.99385 14.2212 9.33632 13.863 9.3403 13.2506C9.3403 12.6966 9.33632 12.1384 9.34428 11.5844C9.34827 11.1762 9.56331 10.8554 9.89781 10.7263C10.2283 10.5972 10.6146 10.6888 10.8336 10.9846C10.9292 11.1137 11.0288 11.2928 11.0288 11.4469C11.0407 12.2092 11.0765 12.9799 10.9969 13.7338C10.8615 15.0252 9.79029 15.9874 8.53192 15.9999C6.91913 16.0166 5.30634 16.0082 3.69355 16.0041C3.17586 16.0041 2.65419 16.0249 2.14447 15.9583C0.961759 15.8041 0.021961 14.7044 0.0100144 13.4589C-0.00989658 11.6385 0.0060322 9.82235 0.0060322 8.00199C0.0060322 7.99783 0.0060322 7.99783 0.00205001 7.99783Z" fill="#FF543F"/>
<path d="M14.0553 7.05648C13.7049 6.69824 13.3545 6.34 13.012 5.97759C12.7173 5.66934 12.6616 5.24028 12.8567 4.89037C13.1315 4.39467 13.7766 4.2822 14.1708 4.68626C15.0429 5.5777 15.9031 6.48579 16.7593 7.39389C17.0778 7.7313 17.0778 8.26033 16.7593 8.60191C15.9031 9.51417 15.0389 10.4139 14.1708 11.3095C13.8363 11.6553 13.3067 11.6303 12.9881 11.2887C12.6656 10.943 12.6536 10.4139 12.9801 10.0515C13.2788 9.71828 13.5974 9.4017 13.904 9.07678C13.9518 9.0268 13.9916 8.97681 14.0633 8.90183C13.9717 8.89766 13.908 8.88933 13.8443 8.88933C10.6665 8.88933 7.4887 8.88933 4.31091 8.88517C3.78924 8.88517 3.41889 8.54776 3.395 8.05205C3.36712 7.52719 3.74543 7.11896 4.27108 7.1148C5.62503 7.11063 6.97898 7.11063 8.32894 7.11063C10.1846 7.11063 12.0443 7.11063 13.9 7.11063C13.9399 7.11063 13.9757 7.11063 14.0155 7.11063C14.0354 7.09397 14.0434 7.0773 14.0553 7.05648Z" fill="#FF543F"/>
</svg>
