<svg width="21" height="24" viewBox="0 0 21 24" fill="none" xmlns="http://www.w3.org/2000/svg">
<g clip-path="url(#clip0)">
<path d="M18.7905 16.3404C18.7905 15.9112 18.7905 15.5572 18.7905 15.2032C18.7905 12.5746 18.7905 9.94611 18.7905 7.31759C18.7905 6.99573 18.7594 6.81335 18.3759 6.73825C14.8725 6.03016 11.3794 5.30061 7.88628 4.57106C7.85518 4.56033 7.82408 4.58179 7.74116 4.60324C7.74116 4.78563 7.74116 4.97875 7.74116 5.17186C7.74116 9.00199 7.74116 12.8214 7.74116 16.6515C7.74116 17.2416 7.74116 17.8317 7.64788 18.411C7.30582 20.6211 5.18095 22.1124 3.09753 21.6296C0.869001 21.1146 -0.447386 18.9153 0.133068 16.6837C0.703157 14.4629 2.94205 13.1969 5.03583 13.8943C5.18095 13.9372 5.31569 14.0015 5.54373 14.0874C5.54373 13.8192 5.54373 13.6046 5.54373 13.4007C5.54373 9.77446 5.59556 6.13744 5.523 2.51116C5.4919 0.805302 6.83939 -0.29975 8.40454 0.0757533C11.794 0.869674 15.2249 1.51339 18.635 2.22148C18.8527 2.2644 19.0807 2.2644 19.2984 2.31804C20.3038 2.57553 20.9983 3.44455 20.9983 4.53887C20.9983 9.55988 20.9569 14.5809 20.9776 19.6019C20.988 21.1576 20.5215 22.4021 19.2984 23.3033C17.8369 24.3762 15.8053 24.2045 14.4786 22.9278C13.1829 21.694 12.8823 19.6126 13.7634 18.0141C14.6652 16.3726 16.5205 15.6216 18.2515 16.1795C18.407 16.2224 18.5521 16.2653 18.7905 16.3404Z" fill="#009EED"/>
</g>
<defs>
<clipPath id="clip0">
<rect width="21" height="24" fill="white"/>
</clipPath>
</defs>
</svg>
