<svg id="Layer_1" data-name="Layer 1" xmlns="http://www.w3.org/2000/svg" viewBox="0 0 14 14"><defs><style>.cls-1{fill:#c694c3;}.cls-2{fill:#ddbddb;}.cls-3{fill:#f1592b;}.cls-4{fill:#be3a26;}</style></defs><title>Artboard 7</title><rect class="cls-1" x="3.81" y="3.92" width="6.26" height="4.83"/><rect class="cls-1" x="6.45" y="7.88" width="1.24" height="1.11"/><path class="cls-2" d="M12.07,7.25V9H11.2V7.47A3.73,3.73,0,0,0,8.06,3.71H6.48A3.69,3.69,0,0,0,2.85,7.52V9H2V7.31A4.28,4.28,0,0,1,6.37,3H8.28A4.39,4.39,0,0,1,12.07,7.25Z"/><path class="cls-1" d="M11.24,7.49V9h-.72V7.68A3.21,3.21,0,0,0,7.9,4.37H6.57a3.22,3.22,0,0,0-3,3.36V9H2.82V7.54A3.71,3.71,0,0,1,6.48,3.71H8.07A3.77,3.77,0,0,1,11.24,7.49Z"/><path class="cls-2" d="M10.55,7.65V9H10V7.82A2.78,2.78,0,0,0,7.76,4.89H6.66c-2.6.16-2.53,3-2.53,3V9H3.52V7.7A3.26,3.26,0,0,1,6.58,4.3H7.91A3.25,3.25,0,0,1,10.55,7.65Z"/><path class="cls-1" d="M10,7.83V9h-.5V8A2.41,2.41,0,0,0,7.64,5.4H6.72C4.55,5.55,4.61,8,4.61,8V9h-.5V7.88S4,5.05,6.66,4.89H7.77A2.79,2.79,0,0,1,10,7.83Z"/><path class="cls-2" d="M9.5,8V9H9.07V8.11C9,6.06,7.53,5.83,7.53,5.83H6.75C4.92,6,5,8.14,5,8.14V9H4.54V8S4.48,5.52,6.7,5.38h.94A2.43,2.43,0,0,1,9.5,8Z"/><path class="cls-1" d="M9.08,8.12V9H8.73V8.23c-.06-1.8-1.29-2-1.29-2H6.79c-1.53.11-1.48,2-1.48,2V9H5V8.15S4.9,6,6.75,5.83h.78S9,6.06,9.08,8.12Z"/><path class="cls-2" d="M8.74,8.2V9h-.3V8.3c0-1.55-1.09-1.73-1.09-1.73H6.8c-1.3.1-1.27,1.75-1.27,1.75V9h-.3V8.23s0-1.89,1.53-2h.66S8.69,6.43,8.74,8.2Z"/><path class="cls-1" d="M8.45,8.31V9H8.2V8.39c0-1.36-.91-1.51-.91-1.51H6.83c-1.08.08-1,1.54-1,1.54V9H5.52V8.33s0-1.66,1.28-1.76h.55S8.41,6.75,8.45,8.31Z"/><path class="cls-2" d="M8.2,8.38V9H8V8.46c0-1.19-.75-1.32-.75-1.32H6.86C6,7.21,6,8.48,6,8.48V9H5.78V8.4s0-1.44,1-1.52h.46S8.17,7,8.2,8.38Z"/><path class="cls-1" d="M8,8.46V9H7.83V8.53c0-1-.63-1.16-.63-1.16H6.88c-.74.07-.72,1.18-.72,1.18V9H6V8.48s0-1.27.88-1.34h.38S8,7.27,8,8.46Z"/><path class="cls-2" d="M7.84,8.52V9H7.69V8.58c0-.92-.52-1-.52-1H6.9c-.62.06-.6,1-.6,1V9H6.15V8.54s0-1.13.73-1.19H7.2S7.81,7.47,7.84,8.52Z"/><path class="cls-1" d="M7.7,8.59V9H7.58V8.64c0-.82-.44-.91-.44-.91H6.92c-.52,0-.51.92-.51.92V9H6.29V8.6s0-1,.61-1h.27S7.68,7.66,7.7,8.59Z"/><path class="cls-2" d="M7.59,8.64V9H7.48V8.68c0-.72-.37-.8-.37-.8H6.93c-.44,0-.43.81-.43.81V9H6.4V8.65s0-.87.51-.92h.23S7.57,7.82,7.59,8.64Z"/><path class="cls-1" d="M7.49,8.68V9H7.4V8.72c0-.63-.31-.7-.31-.7H6.94c-.37,0-.36.72-.36.72V9H6.49V8.7s0-.77.43-.82h.19S7.47,8,7.49,8.68Z"/><path class="cls-2" d="M7.4,8.71V9H7.33V8.75c0-.55-.26-.61-.26-.61H6.94c-.32,0-.31.62-.31.62V9H6.56V8.72s0-.66.37-.7h.16S7.39,8.09,7.4,8.71Z"/><path class="cls-1" d="M7.33,8.75V9H7.27V8.78c0-.48-.21-.53-.21-.53H6.94c-.26,0-.25.54-.25.54V9H6.63V8.76s0-.58.31-.62h.13S7.32,8.2,7.33,8.75Z"/><rect class="cls-3" x="1.98" y="8.99" width="10.09" height="0.55"/><rect class="cls-4" x="1.37" y="9.48" width="11.27" height="0.55"/><rect class="cls-3" x="1.07" y="10.03" width="11.86" height="0.55"/><rect class="cls-4" x="0.85" y="10.58" width="12.3" height="0.55"/></svg>