<svg width="21" height="15" viewBox="0 0 21 15" fill="none" xmlns="http://www.w3.org/2000/svg">
<path d="M20.0023 7.7606C19.9461 10.4703 19.1162 12.6599 17.4003 14.5211C16.894 15.0685 16.3736 15.1369 15.9517 14.7538C15.5016 14.3569 15.5438 13.9326 16.0783 13.3305C18.8771 10.2239 18.8912 5.88572 16.1486 2.72443C15.9095 2.45073 15.6845 2.05386 15.7126 1.72541C15.7267 1.47908 16.1064 1.10958 16.3736 1.04115C16.6409 0.972723 17.0769 1.15063 17.2878 1.35591C18.6662 2.7518 19.5241 4.4214 19.8476 6.33734C19.932 6.89843 19.9601 7.44584 20.0023 7.7606Z" fill="black"/>
<path d="M0.00244141 8.03359C0.0587002 5.5155 0.888517 3.29849 2.6466 1.4373C3.25139 0.794095 3.94056 0.862521 4.27811 1.57415C4.50314 2.03945 4.23592 2.35421 3.94056 2.66897C2.9279 3.76379 2.25279 5.02283 1.98556 6.45978C1.4933 9.08735 2.1684 11.4138 3.99682 13.4119C4.3203 13.7677 4.54534 14.1783 4.17966 14.5614C3.95462 14.7941 3.51862 14.8899 3.15293 14.9309C2.98416 14.9446 2.75912 14.712 2.61847 14.5478C0.888517 12.7003 0.0587002 10.5106 0.00244141 8.03359Z" fill="black"/>
<path d="M4.10918 7.76058C4.13731 6.69313 4.57332 5.57094 5.4172 4.59929C5.86727 4.09293 6.3314 4.01082 6.75334 4.33927C7.18935 4.6814 7.18935 5.17407 6.75334 5.72148C5.57191 7.1858 5.55784 8.82802 6.72521 10.2923C7.17528 10.8534 7.18935 11.3187 6.76741 11.6609C6.34547 12.003 5.86727 11.8935 5.375 11.3735C4.58738 10.5113 4.09512 9.19752 4.10918 7.76058Z" fill="black"/>
<path d="M15.9094 8.11631C15.8532 9.3343 15.4312 10.4839 14.5311 11.4555C14.1514 11.8661 13.7013 12.0029 13.2372 11.6334C12.7871 11.2639 12.8293 10.826 13.195 10.3744C14.4889 8.74583 14.4749 7.28151 13.209 5.65296C12.8152 5.1603 12.8293 4.64026 13.2653 4.3255C13.7576 3.96968 14.1936 4.1339 14.5592 4.54446C15.4453 5.55717 15.8954 6.72041 15.9094 8.11631Z" fill="black"/>
<path d="M10.0165 9.74484C9.00382 9.75853 8.17401 8.96479 8.17401 7.99313C8.15994 7.02148 8.9757 6.20037 9.97429 6.20037C10.9729 6.18668 11.8168 6.98043 11.8308 7.95208C11.8449 8.92373 11.0291 9.74484 10.0165 9.74484Z" fill="black"/>
</svg>
