<svg width="40" height="28" viewBox="0 0 40 28" fill="none" xmlns="http://www.w3.org/2000/svg">
<path d="M39.9987 13.5313C39.8861 18.9505 38.2265 23.3297 34.7949 27.0519C33.7822 28.1467 32.7415 28.2836 31.8976 27.5172C30.9975 26.7235 31.0819 25.875 32.1508 24.6708C37.7484 18.4579 37.7765 9.78167 32.2914 3.45927C31.8132 2.91187 31.3632 2.11815 31.4194 1.46128C31.4476 0.968626 32.207 0.229644 32.7415 0.092796C33.2759 -0.0440525 34.1479 0.311754 34.5698 0.722299C37.3264 3.51401 39.0423 6.85311 39.6892 10.6849C39.858 11.807 39.9143 12.9018 39.9987 13.5313Z" fill="#009EED"/>
<path d="M0 14.0773C0.112514 9.04124 1.7721 4.60735 5.28817 0.885076C6.4977 -0.4013 7.876 -0.264452 8.55109 1.15877C9.00115 2.08934 8.4667 2.71885 7.876 3.34835C5.85075 5.53792 4.50057 8.05594 3.96613 10.9298C2.98163 16.1847 4.3318 20.8376 7.98852 24.8336C8.63548 25.5452 9.08553 26.3663 8.35419 27.1326C7.90413 27.5979 7.03215 27.7895 6.3008 27.8716C5.96326 27.899 5.5132 27.4337 5.23192 27.1052C1.7721 23.4103 0.112514 19.0312 0 14.0773Z" fill="#009EED"/>
<path d="M8.21329 13.5313C8.26955 11.3964 9.14154 9.15211 10.8293 7.20886C11.7294 6.19618 12.6576 6.03196 13.5015 6.68884C14.3735 7.37308 14.3735 8.35839 13.5015 9.45317C11.1387 12.3817 11.1105 15.6661 13.4452 18.5946C14.3453 19.7168 14.3735 20.6474 13.5296 21.3316C12.6857 22.0159 11.7294 21.7969 10.7449 20.7569C9.16967 19.0326 8.18517 16.4051 8.21329 13.5313Z" fill="#009EED"/>
<path d="M31.813 14.2427C31.7005 16.6786 30.8566 18.9777 29.0564 20.9209C28.2969 21.742 27.3968 22.0157 26.4686 21.2767C25.5684 20.5377 25.6528 19.6619 26.3842 18.7587C28.972 15.5017 28.9439 12.5732 26.4123 9.31616C25.6247 8.33085 25.6528 7.2908 26.5248 6.66129C27.5093 5.94968 28.3813 6.27812 29.1126 7.09921C30.8847 9.12457 31.7849 11.451 31.813 14.2427Z" fill="#009EED"/>
<path d="M20.0274 17.4997C18.0022 17.527 16.3426 15.9396 16.3426 13.9964C16.3145 12.0531 17.9459 10.4109 19.943 10.4109C21.9402 10.3836 23.6279 11.971 23.656 13.9143C23.6841 15.8575 22.0527 17.4997 20.0274 17.4997Z" fill="#009EED"/>
</svg>
