<svg width="20" height="15" viewBox="0 0 20 15" fill="none" xmlns="http://www.w3.org/2000/svg">
<path d="M20.0004 7.7606C19.9441 10.4703 19.1143 12.6599 17.3984 14.5211C16.8921 15.0685 16.3717 15.1369 15.9497 14.7538C15.4997 14.3569 15.5419 13.9326 16.0763 13.3305C18.8752 10.2239 18.8893 5.88572 16.1466 2.72443C15.9075 2.45073 15.6825 2.05386 15.7106 1.72541C15.7247 1.47908 16.1044 1.10958 16.3717 1.04115C16.6389 0.972723 17.0749 1.15063 17.2859 1.35591C18.6642 2.7518 19.5222 4.4214 19.8457 6.33734C19.93 6.89843 19.9582 7.44584 20.0004 7.7606Z" fill="white"/>
<path d="M0.000488281 8.03359C0.0567471 5.5155 0.886564 3.29849 2.64465 1.4373C3.24943 0.794095 3.9386 0.862521 4.27616 1.57415C4.50119 2.03945 4.23396 2.35421 3.9386 2.66897C2.92595 3.76379 2.25084 5.02283 1.98361 6.45978C1.49135 9.08735 2.16645 11.4138 3.99486 13.4119C4.31835 13.7677 4.54339 14.1783 4.1777 14.5614C3.95267 14.7941 3.51666 14.8899 3.15098 14.9309C2.9822 14.9446 2.75717 14.712 2.61652 14.5478C0.886564 12.7003 0.0567471 10.5106 0.000488281 8.03359Z" fill="white"/>
<path d="M4.10723 7.76058C4.13536 6.69313 4.57136 5.57094 5.41524 4.59929C5.86531 4.09293 6.32945 4.01082 6.75139 4.33927C7.1874 4.6814 7.1874 5.17407 6.75139 5.72148C5.56996 7.1858 5.55589 8.82802 6.72326 10.2923C7.17333 10.8534 7.18739 11.3187 6.76545 11.6609C6.34351 12.003 5.86531 11.8935 5.37305 11.3735C4.58543 10.5113 4.09316 9.19752 4.10723 7.76058Z" fill="white"/>
<path d="M15.9075 8.11631C15.8512 9.3343 15.4293 10.4839 14.5292 11.4555C14.1494 11.8661 13.6993 12.0029 13.2352 11.6334C12.7851 11.2639 12.8273 10.826 13.193 10.3744C14.487 8.74583 14.4729 7.28151 13.2071 5.65296C12.8133 5.1603 12.8273 4.64026 13.2633 4.3255C13.7556 3.96968 14.1916 4.1339 14.5573 4.54446C15.4434 5.55717 15.8934 6.72041 15.9075 8.11631Z" fill="white"/>
<path d="M10.0145 9.74484C9.00187 9.75853 8.17205 8.96479 8.17205 7.99313C8.15799 7.02148 8.97374 6.20037 9.97234 6.20037C10.9709 6.18668 11.8148 6.98043 11.8289 7.95208C11.8429 8.92373 11.0272 9.74484 10.0145 9.74484Z" fill="white"/>
</svg>
