<svg width="29" height="45" viewBox="0 0 29 45" fill="none" xmlns="http://www.w3.org/2000/svg">
<path d="M5.78833 9.19308C5.99715 9.19308 6.13636 9.19308 6.26861 9.19308C7.47277 9.19975 8.68389 9.19975 9.88805 9.20642C10.1804 9.20642 10.4658 9.2331 10.7511 9.26645C11.2384 9.32648 11.5029 9.65334 11.4611 10.1269C11.4194 10.6005 11.0504 10.9541 10.605 10.9541C9.09456 10.9674 7.5911 10.9874 6.08067 11.0074C5.99019 11.0074 5.8997 11.0208 5.77441 11.0275C5.77441 11.6078 5.77441 12.1814 5.77441 12.8085C5.8997 12.8085 6.03891 12.8085 6.17116 12.8085C7.63286 12.8285 9.09456 12.8285 10.5563 12.8818C11.3567 12.9085 11.7326 13.6489 11.2662 14.2626C11.127 14.4494 10.8138 14.6095 10.5771 14.6162C9.33817 14.6695 8.09921 14.6695 6.86025 14.6895C6.50526 14.6962 6.15028 14.6895 5.77441 14.6895C5.77441 15.3032 5.77441 15.8769 5.77441 16.4839C5.92058 16.4906 6.05979 16.5039 6.19204 16.5039C7.63286 16.5039 9.06672 16.5039 10.5075 16.5039C10.9739 16.5039 11.4611 16.9375 11.475 17.3644C11.489 17.878 11.1479 18.2582 10.5911 18.2649C8.58644 18.2916 6.57487 18.3049 4.57025 18.3183C4.25007 18.3183 3.87421 17.9314 3.87421 17.6179C3.87421 14.8963 3.74892 12.1614 3.91597 9.44655C4.16655 5.41092 6.35213 2.51595 10.1874 0.855002C16.0829 -1.69311 23.3357 1.66213 24.6442 8.15915C24.8113 8.99963 24.8113 9.8868 24.8113 10.7473C24.8113 14.5961 24.8183 18.4383 24.7417 22.2872C24.7069 23.9481 24.0039 25.449 23.0085 26.7897C20.7533 29.8248 17.6559 31.299 13.765 31.1589C9.01799 30.9855 4.79299 27.3968 4.0343 22.9075C3.92293 22.2405 3.89509 21.5601 3.85332 20.8864C3.82548 20.4862 4.52849 20.1059 5.0366 20.2327C5.40551 20.3261 5.65609 20.5262 5.69089 20.9131C5.71177 21.1465 5.76745 21.38 5.76049 21.6068C5.75353 21.887 5.8649 21.9603 6.15028 21.9603C8.1897 21.947 10.2361 21.9537 12.2755 21.9537C15.6652 21.9537 19.048 21.9537 22.4378 21.9537C22.577 21.9537 22.7162 21.9537 22.9041 21.9537C22.9041 20.7396 22.9041 19.5456 22.9041 18.3049C22.7928 18.3049 22.6605 18.3049 22.5213 18.3049C21.1849 18.2983 19.8554 18.2916 18.519 18.2782C18.3311 18.2782 18.1501 18.2382 17.9622 18.2315C17.2731 18.2249 17.0295 17.3444 17.3984 16.9175C17.6351 16.644 17.8787 16.4639 18.3033 16.4705C19.7093 16.4972 21.1083 16.4839 22.5143 16.4839C22.6396 16.4839 22.7649 16.4839 22.925 16.4839C22.925 15.8835 22.925 15.3032 22.925 14.6762C22.7858 14.6762 22.6466 14.6762 22.5143 14.6762C21.2267 14.6695 19.939 14.6695 18.6513 14.6562C18.4285 14.6562 18.2128 14.6362 17.997 14.5961C17.5306 14.5161 17.2383 14.1692 17.2383 13.7357C17.2383 13.2887 17.5446 12.9352 18.0318 12.8685C18.3868 12.8218 18.7487 12.8018 19.1037 12.8018C20.3636 12.7951 21.6304 12.8018 22.925 12.8018C22.925 12.1948 22.925 11.6145 22.925 10.9941C22.7928 10.9941 22.6675 10.9941 22.5422 10.9941C21.0805 10.9941 19.6188 10.9941 18.1571 10.9941C17.7255 10.9941 17.2522 10.5605 17.2244 10.1336C17.1896 9.64667 17.461 9.28646 17.997 9.25978C18.9715 9.20642 19.9459 9.19975 20.9134 9.1864C21.5468 9.17306 22.1872 9.1864 22.8902 9.1864C22.5631 6.80505 21.4772 4.87062 19.4865 3.4965C16.4657 1.40865 13.25 1.22855 10.0133 2.98288C7.54237 4.32364 6.2338 6.46486 5.78833 9.19308ZM6.32429 23.8681C6.90897 26.096 10.1317 29.3112 14.0226 29.3045C16.3056 29.2978 18.2893 28.7175 19.9877 27.27C21.0735 26.3428 21.9088 25.2489 22.4308 23.8681C17.0225 23.8681 11.6839 23.8681 6.32429 23.8681Z" fill="#009EED"/>
<path d="M15.338 37.1423C15.338 38.0962 15.3519 39.0567 15.331 40.0106C15.3241 40.3374 15.4424 40.4108 15.7626 40.4308C18.2057 40.5842 20.5862 41.0178 22.8205 42.0384C23.0223 42.1318 23.2172 42.2252 23.4052 42.3386C23.8715 42.6121 24.0177 43.1057 23.781 43.5459C23.5513 43.9595 23.0502 44.1062 22.556 43.9261C21.5258 43.5526 20.5096 43.1524 19.4586 42.8455C17.3148 42.2185 15.1013 42.1585 12.874 42.2719C10.5353 42.3919 8.30095 42.9322 6.17801 43.8994C5.64205 44.1463 5.19658 43.9928 4.91816 43.5126C4.65366 43.059 4.75807 42.6654 5.28011 42.3519C6.30329 41.7449 7.44481 41.3914 8.59329 41.0912C10.0411 40.7176 11.5167 40.4842 13.0132 40.4241C13.2916 40.4108 13.3543 40.3041 13.3543 40.0573C13.3473 38.4363 13.3403 36.8088 13.3612 35.1878C13.3682 34.8743 13.2359 34.7876 12.9436 34.7609C11.2243 34.6208 9.58168 34.1739 8.05733 33.4202C3.79753 31.3056 1.0899 28.0104 0.254645 23.4478C-0.0168133 21.9737 0.0736728 20.4395 0.0110286 18.9253C-0.00985283 18.3916 0.00406811 17.858 0.0110286 17.3244C0.0110286 16.9842 0.498262 16.5239 0.881087 16.5039C1.38224 16.4772 1.79291 16.7774 1.81379 17.2377C1.86947 18.405 1.93908 19.5723 1.93212 20.733C1.90428 23.708 2.8161 26.3628 4.79287 28.6575C6.85317 31.0455 9.49815 32.4596 12.7069 32.8865C13.1663 32.9466 13.6257 32.9933 14.0921 33.0133C14.983 33.0533 15.2823 33.3134 15.3032 34.1673C15.3241 35.1545 15.3101 36.1484 15.3101 37.1356C15.3101 37.1423 15.3241 37.1423 15.338 37.1423Z" fill="#009EED"/>
<path d="M28.709 19.8325C28.6533 20.9798 28.6742 21.9871 28.535 22.9743C28.1661 25.6158 27.0315 27.9505 25.2566 29.9916C23.8088 31.6659 22.013 32.8933 19.9318 33.7538C19.6813 33.8605 19.4028 33.9339 19.1314 33.9605C18.7277 34.0006 18.3866 33.7538 18.2544 33.3869C18.1291 33.04 18.2265 32.6598 18.5537 32.433C18.7973 32.2662 19.0687 32.1328 19.3402 32.0061C23.3494 30.1584 25.8134 27.1567 26.6 22.9543C26.7948 21.9003 26.7322 20.8064 26.7879 19.7324C26.8296 18.8653 26.8436 17.9981 26.9201 17.1376C26.9619 16.664 27.4352 16.4172 27.9224 16.5239C28.3888 16.6307 28.7159 17.0442 28.7159 17.5045C28.702 18.3383 28.709 19.1588 28.709 19.8325Z" fill="#009EED"/>
</svg>
