<svg width="15" height="20" viewBox="0 0 15 20" fill="none" xmlns="http://www.w3.org/2000/svg">
<path d="M0 10.5082C0 8.06514 0 5.62205 0 3.16245C0 1.66027 0.663507 1.01649 2.17299 0.999979C4.41232 0.983471 6.65166 0.983471 8.89099 1.01649C9.22275 1.01649 9.63744 1.19807 9.88626 1.44568C11.1303 2.65072 12.3578 3.88877 13.5521 5.14333C13.8009 5.40745 13.9668 5.85315 13.9834 6.21631C14.0166 10.0955 14 13.9748 14 17.8375C14 19.3067 13.3531 19.967 11.8934 19.9835C8.64218 20 5.37441 20 2.12322 19.9835C0.663507 19.9835 0.0331754 19.3067 0.0165877 17.8375C0 15.3944 0 12.9513 0 10.5082ZM8.50948 2.32057C6.38626 2.32057 4.34597 2.35358 2.30569 2.32057C1.54265 2.30406 1.31043 2.56818 1.31043 3.32752C1.3436 8.11466 1.3436 12.9018 1.31043 17.6889C1.31043 18.4483 1.55924 18.6959 2.30569 18.6959C5.42417 18.6629 8.55924 18.6629 11.6777 18.6959C12.4408 18.6959 12.673 18.4318 12.673 17.6889C12.6398 14.2224 12.6564 10.7558 12.6564 7.28929C12.6564 7.05819 12.6232 6.81058 12.6066 6.51345C11.2299 6.51345 9.91943 6.51345 8.52607 6.51345C8.50948 5.09381 8.50948 3.75671 8.50948 2.32057ZM9.88626 5.14333C10.5 5.14333 11.0308 5.14333 11.5284 5.14333C10.9976 4.56557 10.4834 4.03734 9.88626 3.39355C9.88626 4.05385 9.88626 4.58208 9.88626 5.14333Z" fill="black"/>
<path d="M3.33398 9.64989C3.33398 9.23721 3.33398 8.85754 3.33398 8.42834C5.75579 8.42834 8.14441 8.42834 10.616 8.42834C10.616 8.82452 10.616 9.20419 10.616 9.64989C8.19417 9.64989 5.78896 9.64989 3.33398 9.64989Z" fill="black"/>
<path d="M3.33398 13.1329C3.33398 12.7202 3.33398 12.3406 3.33398 11.9114C5.77237 11.9114 8.19417 11.9114 10.6326 11.9114C10.6326 12.3406 10.6326 12.7037 10.6326 13.1329C8.19417 13.1329 5.78896 13.1329 3.33398 13.1329Z" fill="black"/>
<path d="M3.36719 15.4109C5.7724 15.4109 8.16103 15.4109 10.616 15.4109C10.616 15.8071 10.616 16.2032 10.616 16.6324C8.21079 16.6324 5.82216 16.6324 3.36719 16.6324C3.36719 16.2363 3.36719 15.8401 3.36719 15.4109Z" fill="black"/>
</svg>
