<svg width="16" height="20" viewBox="0 0 16 20" fill="none" xmlns="http://www.w3.org/2000/svg">
<path d="M0.998047 10.5082C0.998047 8.06514 0.998047 5.62205 0.998047 3.16245C0.998047 1.66027 1.66155 1.01649 3.17103 0.999979C5.41037 0.983471 7.64971 0.983471 9.88904 1.01649C10.2208 1.01649 10.6355 1.19807 10.8843 1.44568C12.1284 2.65072 13.3559 3.88877 14.5502 5.14333C14.799 5.40745 14.9649 5.85315 14.9815 6.21631C15.0146 10.0955 14.998 13.9748 14.998 17.8375C14.998 19.3067 14.3511 19.967 12.8914 19.9835C9.64023 20 6.37245 20 3.12127 19.9835C1.66155 19.9835 1.03122 19.3067 1.01463 17.8375C0.998047 15.3944 0.998047 12.9513 0.998047 10.5082ZM9.50753 2.32057C7.3843 2.32057 5.34402 2.35358 3.30373 2.32057C2.5407 2.30406 2.30847 2.56818 2.30847 3.32752C2.34165 8.11466 2.34165 12.9018 2.30847 17.6889C2.30847 18.4483 2.55729 18.6959 3.30373 18.6959C6.42222 18.6629 9.55729 18.6629 12.6758 18.6959C13.4388 18.6959 13.671 18.4318 13.671 17.6889C13.6379 14.2224 13.6544 10.7558 13.6544 7.28929C13.6544 7.05819 13.6213 6.81058 13.6047 6.51345C12.2279 6.51345 10.9175 6.51345 9.52411 6.51345C9.50753 5.09381 9.50753 3.75671 9.50753 2.32057ZM10.8843 5.14333C11.498 5.14333 12.0289 5.14333 12.5265 5.14333C11.9957 4.56557 11.4815 4.03734 10.8843 3.39355C10.8843 4.05385 10.8843 4.58208 10.8843 5.14333Z" fill="white"/>
<path d="M4.33203 9.64989C4.33203 9.23721 4.33203 8.85754 4.33203 8.42834C6.75383 8.42834 9.14246 8.42834 11.614 8.42834C11.614 8.82452 11.614 9.20419 11.614 9.64989C9.19222 9.64989 6.78701 9.64989 4.33203 9.64989Z" fill="white"/>
<path d="M4.33203 13.1329C4.33203 12.7202 4.33203 12.3406 4.33203 11.9114C6.77042 11.9114 9.19222 11.9114 11.6306 11.9114C11.6306 12.3406 11.6306 12.7037 11.6306 13.1329C9.19222 13.1329 6.78701 13.1329 4.33203 13.1329Z" fill="white"/>
<path d="M4.36523 15.4109C6.77045 15.4109 9.15907 15.4109 11.6141 15.4109C11.6141 15.8071 11.6141 16.2032 11.6141 16.6324C9.20884 16.6324 6.82021 16.6324 4.36523 16.6324C4.36523 16.2363 4.36523 15.8401 4.36523 15.4109Z" fill="white"/>
</svg>
