<svg id="Layer_1" data-name="Layer 1" xmlns="http://www.w3.org/2000/svg" viewBox="0 0 14 14"><defs><style>.cls-1{fill:#03a9f4;}.cls-2{fill:#fff;}</style></defs><title>twitter</title><path class="cls-1" d="M7,1a6,6,0,1,0,4.21,1.75A5.93,5.93,0,0,0,7,1Z"/><path class="cls-2" d="M10.58,5a3.1,3.1,0,0,1-.9.26,2.2,2.2,0,0,0,.9-.89,4.49,4.49,0,0,1-1.13.41A1.44,1.44,0,0,0,7,5.81V6.4A4.44,4.44,0,0,1,3.92,4.62a1.47,1.47,0,0,0-.2.73,1.89,1.89,0,0,0,.9,1.35,2.81,2.81,0,0,1-.9-.3v0A1.34,1.34,0,0,0,4.89,7.74,2,2,0,0,1,4,7.89c.19.58,1.13.88,1.77.9a3.76,3.76,0,0,1-2.09.59H3.43a4.6,4.6,0,0,0,2.38.6A4,4,0,0,0,10,6c0-.07,0-.28,0-.34A2.32,2.32,0,0,0,10.58,5Z"/></svg>