<svg id="Layer_1" data-name="Layer 1" xmlns="http://www.w3.org/2000/svg" viewBox="0 0 14 14"><defs><style>.cls-1{fill:#dbd9db;}.cls-2{fill:#5e5461;}.cls-3{fill:#706572;}.cls-4{fill:#b48764;}.cls-5{fill:#966d51;}.cls-6{fill:#c39771;}.cls-7{fill:#edeaec;}.cls-8{fill:#4b3f4f;}.cls-9{fill:#5c434c;}.cls-10{fill:#ffe1b4;}.cls-11{fill:#f8d7a5;}.cls-12{fill:#d59f63;}.cls-13{fill:#f2c891;}</style></defs><title>EmployE</title><path class="cls-1" d="M13.94,9h0c0-.09-.38-.37-.38-.37l-1.49-.58-.21.07s-.28.49-.4.37l-.61.26-.34.17L10.34,9l-.14.08-.14.06L10,9.2l-.22-.09h0l-.45-.19-.07-.07L9,8.58l-.47-.51H7.83a4.26,4.26,0,0,0-1.24.52c-.79.45-.7.86-.7.86v.07l0,1.81v0c0,.09,0,.15,0,.15v.24c0,.46,0,2.05,0,2.05h7.9a.34.34,0,0,0,.25-.33C14,13.2,13.94,9,13.94,9Z"/><path class="cls-2" d="M7.28,10.66a1.86,1.86,0,0,0-.11-.4,1,1,0,0,0-.12-.17S7,10,7,10l0,0h0s0,0,0,0l0,0A4.71,4.71,0,0,0,6,9.52l-.51-.2-.15-.06-.6-.14H4.46l-1.39.08h-.2L2,9.19h-.1l-.15.07A10.92,10.92,0,0,0,.38,9.9a.08.08,0,0,0,0,.06.15.15,0,0,0,0,.09l.31,3.74H6.91a.56.56,0,0,0,.29-.52C7.17,12.93,7.28,10.66,7.28,10.66Z"/><path class="cls-3" d="M6.9,10l0,0h0S6.92,10,6.9,10Z"/><path class="cls-3" d="M7.05,10.09S7,10,7,10l0,0,0,0A.27.27,0,0,1,7.05,10.09Z"/><path class="cls-3" d="M6.93,10h0s0,0,0,0l0,0Z"/><polygon class="cls-4" points="11.39 6.09 11.39 8.27 10.69 8.96 9.97 9.2 8.61 7.74 8.61 6.4 10.96 6.01 11.39 6.09"/><path class="cls-5" d="M11.39,6.72a1.84,1.84,0,0,1-1.73.55,1.93,1.93,0,0,1-1.05-.55v.52a2.25,2.25,0,0,0,1.19.43,3.11,3.11,0,0,0,1.59-.44Z"/><path class="cls-4" d="M10.44,7.23l0,0A1.26,1.26,0,0,1,9.74,7a1.92,1.92,0,0,1-.92-1.42v-2L8.68,3,7.79,4.51a.48.48,0,0,0-.33.26.74.74,0,0,0,0,.47.38.38,0,0,0,.25.24c.19.06.22,0,.22,0s.14,0,.12.25.53,1,.53,1a1.85,1.85,0,0,0,1.26.6S10.42,7.3,10.44,7.23Z"/><path class="cls-6" d="M12.55,5.19s0,.19-.24.28-.25,0-.25,0-.14,0-.15.29a2.55,2.55,0,0,1-.52.93,2.4,2.4,0,0,1-.83.49,1.65,1.65,0,0,1-.9.06C9,7.21,8.46,6.19,8.46,6.19L8,3.56l.86,0,.57-.49,1.43.19L12.07,4l.14.28.13.22a.35.35,0,0,1,.19.25A1.22,1.22,0,0,1,12.55,5.19Z"/><rect class="cls-7" x="7.83" y="10.66" width="1.39" height="0.57" rx="0.1"/><polygon class="cls-2" points="9.69 9.62 9.46 13.79 10.52 13.79 10.31 9.61 9.69 9.62"/><path class="cls-8" d="M10.37,9.25v.26c0,.06-.1.13-.1.13a2.73,2.73,0,0,1-.56,0c-.09,0-.1-.11-.1-.11V9.24L10,8.91h.38Z"/><path class="cls-7" d="M8.51,7.57,10,8.83s.09,0,0,.14-.65.62-.65.62a.48.48,0,0,1-.41,0l-1-1.52.51-.5Z"/><path class="cls-7" d="M10,8.92l.72.68a.43.43,0,0,0,.49-.12s.79-1.26.87-1.32,0-.11,0-.11-.29-.26-.43-.42a.17.17,0,0,0-.26,0L10,8.84Z"/><path class="cls-4" d="M10.44,7.23l0,0A1.26,1.26,0,0,1,9.74,7a1.92,1.92,0,0,1-.92-1.42v-2L8.68,3,7.79,4.51a.48.48,0,0,0-.33.26.74.74,0,0,0,0,.47.38.38,0,0,0,.25.24c.19.06.22,0,.22,0s.14,0,.12.25.53,1,.53,1a1.85,1.85,0,0,0,1.26.6S10.42,7.3,10.44,7.23Z"/><path class="cls-9" d="M12.38,4.55l-.11,0H12l-.2-.39s-.18-.27-.3-.17A4.29,4.29,0,0,1,10.31,4L9.76,4A6,6,0,0,1,9,3.73a.24.24,0,0,0-.3.11,6.06,6.06,0,0,1-.63.66H7.77a6.67,6.67,0,0,1-.12-1.7.75.75,0,0,1,.77-.62,2.11,2.11,0,0,1,1.09-.54,3.28,3.28,0,0,1,1.39,0,1.92,1.92,0,0,1,1.16.75,1.84,1.84,0,0,1,.36,1A3,3,0,0,1,12.38,4.55Z"/><path class="cls-10" d="M2.93,4.35s-.68.2-.86.6a1.19,1.19,0,0,1-.52.55H1.46s-.26.09-.27.32V6.2s0,.13.25.27l.22,0s.13,0,.16.32a2.09,2.09,0,0,0,.54.9A2.45,2.45,0,0,0,2.74,8v.83l.36.93.64.23.51-.38.49-.74V8a1.94,1.94,0,0,0,.66-.63,1.82,1.82,0,0,0,.3-.79c0-.07.08-.11.17-.09a.23.23,0,0,0,.18,0s.22,0,.25-.35,0-.27,0-.27A.45.45,0,0,0,6,5.5a.78.78,0,0,1-.39-.43L3.27,4.15Z"/><path class="cls-11" d="M4.17,8.22h0A1.31,1.31,0,0,1,3.47,8a1.93,1.93,0,0,1-.91-1.42v-2L2.44,4l-.9,1.51a.48.48,0,0,0-.33.26.74.74,0,0,0,0,.47.41.41,0,0,0,.25.24c.19.06.21,0,.21,0s.14,0,.12.25.53,1,.53,1a1.83,1.83,0,0,0,1.26.61S4.16,8.29,4.17,8.22Z"/><path class="cls-12" d="M1.62,5.48h.24a6.18,6.18,0,0,0,.6-.63.39.39,0,0,1,.61-.21A6.28,6.28,0,0,0,4.58,5a2.45,2.45,0,0,0,.54.07c.09,0,.17,0,.57.39H6l0-.12a2.15,2.15,0,0,0-.26-1.71C5.31,3,4.9,2.88,4.9,2.88V2.62a1.21,1.21,0,0,0-.83-1,1.29,1.29,0,0,0-1.19.32,1.24,1.24,0,0,0-.34.92,3.76,3.76,0,0,0-.82.71,2.13,2.13,0,0,0-.24,1.93h.14Z"/><path class="cls-13" d="M2.72,8.46a4,4,0,0,0,.84.2s-.08,0,.34,0a2.82,2.82,0,0,0,.84-.23V8s-.13.21-.82.28A1.91,1.91,0,0,1,2.72,8Z"/><path class="cls-3" d="M2.6,8.75H2.47L2,9.25l.77,1.24s.15.1.24,0,.47-.38.47-.38.08,0,.09.07,0,3.61,0,3.61h.4V10.15s0-.13.15,0,.44.38.44.38.18.05.24-.06l.46-.73.25-.41L5,8.78l0,0H4.84l-1,1a.17.17,0,0,1-.24,0C3.47,9.64,2.6,8.75,2.6,8.75Z"/><rect class="cls-3" x="1.96" y="11.63" width="1.18" height="0.57" rx="0.1"/><path class="cls-3" d="M.29,10.06s.05-.2.16-.18l.81,1a1.4,1.4,0,0,1,.24.69v2.22h-1s-.25,0-.25-.14Z"/><path class="cls-3" d="M7.26,13.27a.56.56,0,0,1-.29.52H6V11.51l0-.15a1.32,1.32,0,0,1,.18-.45L6.94,10l0,0s0,0,0,0H7l0,0s0,0,.07.05a1,1,0,0,1,.12.17,1.86,1.86,0,0,1,.11.4S7.23,12.93,7.26,13.27Z"/><path class="cls-7" d="M12.78,10.58v3.21h.94a.34.34,0,0,0,.25-.33c0-.26,0-4.44,0-4.44l-.8.88S12.72,10.35,12.78,10.58Z"/></svg>