<svg id="Layer_1" data-name="Layer 1" xmlns="http://www.w3.org/2000/svg" viewBox="0 0 14 14"><defs><style>.cls-1{fill:#03a9f4;}</style></defs><title>website</title><path class="cls-1" d="M7,13a6,6,0,1,1,6-6A6,6,0,0,1,7,13ZM1.67,7.35a5.09,5.09,0,0,0,1,2.8.3.3,0,0,0,.25.13c.44-.09.87-.2,1.27-.29L3.8,7.35ZM9.8,10l1.25.29a.3.3,0,0,0,.25-.11,5.05,5.05,0,0,0,1-2.82H10.2ZM4.18,4.08,2.75,3.75A5.09,5.09,0,0,0,1.67,6.64H3.8Zm8.11,2.56a4.43,4.43,0,0,0-1.08-2.88l-1.39.32.38,2.56Zm-2.71.71H7.35V9.93H8.91a.35.35,0,0,0,.23-.2C9.29,9,9.43,8.19,9.58,7.35ZM6.64,9.93V7.35H4.42c.15.84.29,1.62.45,2.41a.36.36,0,0,0,.25.17ZM4.82,4.17,4.46,6.64H6.64V4.17Zm4.35,0H7.36V6.64h2.2ZM7.34,3.49H8.88a3.15,3.15,0,0,0-1.54-1.8Zm-.69-1.8a3.19,3.19,0,0,0-1.53,1.8H6.65Zm.7,8.87v1.69a2.3,2.3,0,0,0,1.41-1.69Zm-.71,1.73V10.58H5.16A2.92,2.92,0,0,0,6.64,12.29ZM5.2,2l-.07-.1L3.19,3.12c.95.45,1.18.38,1.59-.39C4.91,2.48,5.06,2.25,5.2,2Zm3.68-.1L8.82,2l.77,1.42,1.11-.2,0-.17ZM10.69,11l0-.15c-.3-.06-.6-.13-.9-.16a.37.37,0,0,0-.28.13c-.22.4-.43.81-.64,1.21l.06.09ZM5.13,12.09l0-.09c-.21-.4-.41-.8-.64-1.19a.31.31,0,0,0-.26-.15c-.31,0-.62.1-.93.16l0,.14Z"/></svg>