<?xml version="1.0" encoding="utf-8"?>
<!-- Generator: Adobe Illustrator 22.1.0, SVG Export Plug-In . SVG Version: 6.00 Build 0)  -->
<svg version="1.1" id="Layer_1" xmlns="http://www.w3.org/2000/svg" xmlns:xlink="http://www.w3.org/1999/xlink" x="0px" y="0px"
	 viewBox="0 0 36 36" style="enable-background:new 0 0 36 36;" xml:space="preserve">
<style type="text/css">
	.st0{clip-path:url(#SVGID_2_);}
	.st1{fill:#FFFFFF;}
</style>
<g>
	<defs>
		<rect id="SVGID_1_" width="36" height="36"/>
	</defs>
	<clipPath id="SVGID_2_">
		<use xlink:href="#SVGID_1_"  style="overflow:visible;"/>
	</clipPath>
	<g class="st0">
		<path class="st1" d="M18,36c-0.9,0-1.9,0-2.8,0c-1.2,0-2.1-0.9-2.1-2.1c0-1.2,0.1-0.9-0.9-1.4c-0.3-0.1-0.6-0.3-0.8-0.4
			c-0.2,0-0.4,0-0.6,0.1c-0.2,0.1-0.4,0.4-0.5,0.5c-0.8,0.8-2.1,0.8-2.9,0c-1.3-1.3-2.7-2.7-4-4c-0.8-0.8-0.8-2.1,0-3
			C4,25,4,25,3.6,24.1c-0.1-0.3-0.2-0.6-0.3-0.9c-0.1-0.2-0.2-0.3-0.5-0.3c-0.3,0-0.5,0-0.8,0c-1.1,0-2-0.9-2-2C0,19,0,17,0,15.1
			C0,14,1,13,2.1,13.1c0.8,0,1.3-0.2,1.5-1c0-0.1,0.1-0.2,0.2-0.4C4,11,4,10.9,3.4,10.4C2.8,9.7,2.5,9,2.8,8.1
			c0.1-0.3,0.3-0.6,0.5-0.8c1.3-1.4,2.6-2.7,4-4c0.8-0.8,2.2-0.9,2.9,0c0.6,0.7,1,0.6,1.8,0.3C12.8,3.3,13.2,3,13.1,2
			c-0.1-1.1,0.9-2,2-2C17,0,19,0,20.9,0c1.1,0,2.1,0.9,2,2c-0.1,0.9,0.3,1.2,1.1,1.5c0.8,0.3,1.3,0.3,1.9-0.4c0.7-0.8,2-0.8,2.8,0
			c1.4,1.4,2.8,2.7,4.1,4.1c0.7,0.8,0.8,2.1,0,2.8c-0.7,0.6-0.7,1.1-0.4,1.9c0.3,0.8,0.6,1.2,1.6,1.1c1.1-0.1,2,0.9,2,2.1
			c0,1.9,0,3.7,0,5.6c0,1.3-0.9,2.2-2.2,2.2c-1.2,0-0.9-0.1-1.3,0.9c-0.1,0.2-0.2,0.5-0.3,0.7c-0.3,0.4-0.2,0.7,0.2,1
			c0.8,0.6,1.1,1.4,0.8,2.4c-0.1,0.3-0.3,0.6-0.5,0.8c-1.3,1.4-2.7,2.7-4,4c-0.8,0.8-2.1,0.8-2.9,0C25,32,25,32,24.1,32.4
			c-0.2,0.1-0.5,0.2-0.7,0.3c-0.4,0.1-0.5,0.3-0.5,0.7c0.1,0.7,0,1.3-0.5,1.9c-0.4,0.5-1,0.7-1.6,0.7C19.9,36,18.9,36,18,36z
			 M5.8,8.8c0,0,0.1,0.1,0.1,0.1C6.9,10,7,11.2,6.4,12.5c-0.2,0.4-0.4,0.8-0.5,1.2c-0.5,1.3-1.4,2.1-2.8,2.2c-0.3,0-0.3,0.1-0.3,0.4
			c0,0.6,0,1.3,0,1.9c0,0.6,0,1.3,0,2c0.1,0,0.2,0,0.3,0c1.3,0.1,2.3,0.8,2.8,2.1c0.2,0.5,0.4,1,0.6,1.5c0.2,0.6,0.3,1.1,0.2,1.7
			c-0.1,0.7-0.5,1.3-0.9,1.8c1,1,2,2,3,3c0,0,0.1-0.1,0.2-0.1c1.1-0.9,2.2-1.1,3.5-0.5c0.5,0.2,0.9,0.4,1.4,0.6
			c1.2,0.5,1.9,1.3,2,2.6c0,0.1,0,0.3,0.1,0.4c1.4,0,2.8,0,4.1,0c0-0.1,0-0.1,0-0.1c0,0,0-0.1,0-0.1c0.1-1.4,0.8-2.4,2.2-2.8
			c0.5-0.2,0.9-0.4,1.4-0.6C24.9,29,26,29.2,27,30c0.1,0.1,0.2,0.1,0.2,0.1c1-1,2-2,3-2.9c0,0,0,0,0,0C30.1,27.1,30,27,30,26.9
			c-0.8-1-0.9-2-0.5-3.2c0.2-0.6,0.5-1.1,0.7-1.7c0.5-1.2,1.4-1.8,2.6-2c0.1,0,0.3,0,0.4,0c0-1.4,0-2.8,0-4.1c0,0-0.1,0-0.1,0
			c-0.1,0-0.1,0-0.2,0c-1.4-0.2-2.3-0.9-2.8-2.2c-0.2-0.5-0.4-0.9-0.6-1.4c-0.5-1.1-0.4-2.2,0.3-3.1C30,9,30.1,8.9,30.2,8.8
			c-1-1-2-2-3-3c0,0,0,0,0,0C27.1,5.9,27.1,5.9,27,6c-1,0.8-2.1,1-3.3,0.5c-0.5-0.2-1-0.4-1.6-0.6c-1.2-0.5-1.9-1.4-2-2.7
			c0-0.1,0-0.2,0-0.4c-0.2,0-0.3,0-0.4,0c-1.1,0-2.2,0-3.3,0c-0.3,0-0.4,0.1-0.5,0.4c-0.1,1.3-0.8,2.1-2,2.6
			c-0.5,0.2-1.1,0.4-1.6,0.7C11.1,7,10,6.8,9,6C8.9,5.9,8.8,5.9,8.8,5.8C7.8,6.8,6.8,7.8,5.8,8.8z"/>
		<path class="st1" d="M18,28.2c-5.6,0-10.1-4.6-10.1-10.2c0-5.5,4.6-10.1,10-10.1c5.8,0,10.3,4.5,10.3,10.2
			C28.2,23.6,23.6,28.2,18,28.2z M25.4,18c0-4.1-3.3-7.3-7.4-7.3c-4,0-7.3,3.3-7.3,7.3c0,4.1,3.3,7.4,7.3,7.4
			C22.1,25.4,25.4,22.1,25.4,18z"/>
	</g>
</g>
</svg>
