<svg width="22" height="15" viewBox="0 0 22 15" fill="none" xmlns="http://www.w3.org/2000/svg">
<path d="M10.5981 0C13.0178 0.0973499 15.4053 0.03245 17.7928 0.302866C18.4673 0.378583 19.1418 0.4543 19.7093 0.886966C20.3302 1.35208 20.6836 1.97945 20.8013 2.73661C21.2831 5.81936 21.3045 8.91293 20.8442 11.9957C20.5765 13.8021 19.72 14.5484 17.9106 14.6998C13.0285 15.1001 8.14633 15.1001 3.26419 14.6998C1.45481 14.5484 0.630409 13.8129 0.319923 12.0065C-0.0762153 9.68091 -0.0440959 7.34451 0.0950877 4.9973C0.127207 4.3483 0.191446 3.6993 0.309216 3.06111C0.641116 1.17902 1.46551 0.475933 3.34984 0.29205C5.7695 0.0540833 8.19986 0.0973499 10.5981 0ZM13.9706 7.50676C12.1934 6.46836 10.4803 5.47323 8.77801 4.4781C8.56388 4.3483 8.46752 4.36993 8.46752 4.65116C8.46752 6.55489 8.46752 8.46944 8.46752 10.3732C8.46752 10.6544 8.56388 10.676 8.77801 10.5462C10.4803 9.52948 12.1934 8.53434 13.9706 7.50676Z" fill="#FE0101"/>
<path d="M14.2544 7.51211C12.3291 8.67331 10.4734 9.78611 8.62932 10.8989C8.39735 11.0441 8.29297 11.0199 8.29297 10.7054C8.29297 8.57654 8.29297 6.43559 8.29297 4.30674C8.29297 3.99225 8.39735 3.96806 8.62932 4.11321C10.4734 5.23811 12.3291 6.35092 14.2544 7.51211Z" fill="#FEFBFB"/>
</svg>
